<?xml version="1.0" encoding="UTF-8" standalone="no"?>
<!-- Created with Inkscape (http://www.inkscape.org/) -->

<svg
   xmlns:dc="http://purl.org/dc/elements/1.1/"
   xmlns:cc="http://creativecommons.org/ns#"
   xmlns:rdf="http://www.w3.org/1999/02/22-rdf-syntax-ns#"
   xmlns:svg="http://www.w3.org/2000/svg"
   xmlns="http://www.w3.org/2000/svg"
   xmlns:sodipodi="http://sodipodi.sourceforge.net/DTD/sodipodi-0.dtd"
   xmlns:inkscape="http://www.inkscape.org/namespaces/inkscape"
   version="1.1"
   id="svg4537"
   width="156.8"
   height="152.32001"
   viewBox="0 0 156.8 152.32001"
   sodipodi:docname="apply-concat.svg"
   inkscape:version="0.92.3 (2405546, 2018-03-11)">
  <metadata
     id="metadata4543">
    <rdf:RDF>
      <cc:Work
         rdf:about="">
        <dc:format>image/svg+xml</dc:format>
        <dc:type
           rdf:resource="http://purl.org/dc/dcmitype/StillImage" />
        <dc:title></dc:title>
      </cc:Work>
    </rdf:RDF>
  </metadata>
  <defs
     id="defs4541" />
  <sodipodi:namedview
     pagecolor="#ffffff"
     bordercolor="#666666"
     borderopacity="1"
     objecttolerance="10"
     gridtolerance="10"
     guidetolerance="10"
     inkscape:pageopacity="0"
     inkscape:pageshadow="2"
     inkscape:window-width="3832"
     inkscape:window-height="2084"
     id="namedview4539"
     showgrid="false"
     inkscape:zoom="11.313709"
     inkscape:cx="66.139421"
     inkscape:cy="75.905403"
     inkscape:window-x="0"
     inkscape:window-y="28"
     inkscape:window-maximized="0"
     inkscape:current-layer="svg4537" />
  <path
     style="fill:#000000;stroke-width:1"
     d="m 36.08,146.21438 c -0.308,-0.17939 -0.56,-0.52302 -0.56,-0.76361 0,-0.24058 -0.112422,-0.48543 -0.249827,-0.54409 -0.137405,-0.0587 -0.787437,-1.78004 -1.444515,-3.82527 -1.071236,-3.33433 -1.929155,-7.65715 -3.263009,-16.4414 -0.482197,-3.17556 -0.932245,-10.79441 -0.916771,-15.52 0.0201,-6.13875 0.491924,-17.390369 0.758664,-18.09195 0.151029,-0.397235 0.202574,-0.794272 0.114546,-0.8823 -0.131376,-0.131376 0.779077,-4.046602 1.670986,-7.185755 0.268492,-0.944985 2.208857,-1.050489 2.448748,-0.133148 0.251316,0.96103 0.06535,2.933587 -0.532953,5.653149 -1.211379,5.506263 -1.57641,7.915085 -2.133671,14.080004 -0.01591,0.176 -9.92e-4,1.184 0.03313,2.24 0.03413,1.056 0.02144,2.064 -0.02823,2.24 -0.04966,0.176 0.03173,1.616 0.180877,3.2 0.149143,1.584 0.253015,3.816 0.230829,4.96 -0.04203,2.16703 0.276851,5.70274 1.053389,11.68 0.251517,1.936 0.541181,4.384 0.643693,5.44 0.31855,3.28137 0.632563,4.58301 2.44648,10.14114 1.266246,3.87997 1.167788,4.69688 -0.452362,3.75323 z m 88.82951,-17.01909 c -1.76353,-1.00956 -3.60033,-2.49764 -5.62275,-4.55528 -6.33045,-6.4407 -9.53751,-9.81392 -11.10973,-11.68534 -0.95863,-1.14106 -2.05308,-2.36266 -2.43211,-2.71466 -0.75139,-0.69779 -5.32544,-6.9746 -6.549928,-8.98822 -0.418666,-0.68848 -0.850314,-1.323783 -0.959219,-1.411783 -0.525322,-0.424477 -2.359367,-3.401252 -3.012266,-4.889098 -0.933641,-2.127613 -2.77712,-7.408622 -3.096627,-8.870903 -0.578154,-2.646001 -0.980221,-4.097933 -1.550746,-5.600001 -1.021513,-2.689408 -1.914995,-5.988682 -2.123171,-7.84 -0.169152,-1.504288 -0.09682,-1.887856 0.497792,-2.64 0.382634,-0.484 0.806131,-0.88 0.941107,-0.88 0.505012,0 0.943946,1.597683 1.020717,3.715321 0.04362,1.203277 0.259267,2.551578 0.47921,2.996228 0.219942,0.444649 0.577814,1.420451 0.79527,2.168451 0.217459,0.748 0.502848,1.36 0.634202,1.36 0.131353,0 0.169558,0.264871 0.0849,0.588602 -0.172061,0.657958 1.223405,5.190999 1.929984,6.269376 0.250592,0.382451 0.74312,1.653677 1.094512,2.824951 0.544966,1.816515 1.152602,3.044902 3.431376,6.936848 0.17712,0.302503 0.57312,0.801092 0.879997,1.107972 0.30689,0.306883 0.55797,0.83568 0.55797,1.17511 0,0.339427 0.144,0.617142 0.32,0.617142 0.176,0 0.32,0.288001 0.32,0.640001 0,0.352 0.11243,0.640003 0.24984,0.640003 0.22303,0 1.1545,2.05249 0.95256,2.09896 -0.0453,0.0104 0.6736,0.86717 1.5976,1.90388 0.924,1.0367 1.68,2.05676 1.68,2.2668 0,0.21004 0.20512,0.46059 0.45582,0.5568 0.2507,0.0962 0.6996,0.68865 0.99756,1.31657 0.29797,0.6279 1.17285,1.7818 1.94419,2.5642 0.77134,0.78241 1.40319,1.53736 1.40413,1.67767 9.6e-4,0.14032 1.36894,1.66369 3.04,3.38527 1.67106,1.72159 3.0383,3.26959 3.0383,3.44 0,0.17042 0.108,0.31018 0.24,0.31058 0.132,3.2e-4 1.104,0.82857 2.16,1.84037 1.056,1.0118 2.63536,2.41547 3.50968,3.11927 2.35786,1.89798 4.33032,3.9393 4.33032,4.48149 0,0.58417 -1.16799,0.62442 -2.13049,0.0734 z m 4.65364,-14.55528 c -0.0203,-0.308 -0.011,-0.81298 0.0205,-1.12218 0.0315,-0.3092 -0.15055,-0.64196 -0.40463,-0.73946 -1.00923,-0.38728 0.29504,-8.71369 2.32744,-14.858364 2.93064,-8.86032 3.67166,-14.912193 2.46847,-20.160001 -1.828,-7.972983 -2.68645,-10.772493 -5.49502,-17.920001 -2.25491,-5.738493 -2.54683,-7.394375 -2.51329,-14.256564 0.028,-5.729201 0.032,-5.751265 1.94986,-10.724871 1.1839,-3.070253 3.14714,-5.894741 6.32354,-9.097611 1.76,-1.774667 3.776,-3.494634 4.48,-3.822149 2.36395,-1.099752 7.37903,-4.90418 8.01049,-6.07674 0.69263,-1.286142 0.63137,-1.397362 -1.02514,-1.860976 -3.17483,-0.888551 -7.94782,-0.165054 -11.46535,1.737933 -0.528,0.285649 -1.63133,0.874452 -2.45184,1.308452 -1.69383,0.895939 -3.57222,2.330133 -5.64818,4.312523 -0.7833,0.748 -1.47724,1.36 -1.54209,1.36 -0.26043,0 -1.39789,1.301157 -1.39789,1.599079 0,0.175493 -0.47773,0.859493 -1.06162,1.52 -1.30042,1.47106 -3.46235,6.452877 -4.19147,9.658548 -0.50745,2.23111 -0.84623,7.578356 -0.94413,14.902375 -0.0441,3.301447 0.57176,9.827815 1.08715,11.520001 0.16082,0.528 0.32091,1.536 0.35577,2.24 0.0348,0.704 0.16317,1.424 0.28515,1.6 0.22884,0.330196 0.57874,2.239904 0.82083,4.480001 0.0761,0.704 0.226,1.64 0.33314,2.08 0.10714,0.44 0.24013,1.088 0.29555,1.44 0.98103,6.231408 1.23643,8.49257 1.24701,11.040001 0.0214,5.150781 -0.5979,9.574781 -1.54203,11.01569 -0.28894,0.440986 -0.52535,1.022861 -0.52535,1.293053 0,0.270192 -0.108,0.494662 -0.24,0.498822 -0.132,0.0042 -0.66362,0.58016 -1.18139,1.28 -0.51776,0.69984 -1.12976,1.272439 -1.36,1.272439 -0.23023,0 -0.38261,0.16258 -0.33861,0.36128 0.0833,0.37598 -1.22341,0.62105 -1.92,0.36009 -0.6754,-0.25302 -0.42443,-0.85041 0.63915,-1.521373 1.40324,-0.885242 2.90748,-4.084798 3.76112,-8.000001 0.82983,-3.805984 0.93123,-5.211559 0.5831,-8.082676 -0.14387,-1.186528 -0.47799,-4.007088 -0.74249,-6.267911 -0.2645,-2.260822 -0.54999,-4.222352 -0.63442,-4.358957 -0.0844,-0.136601 -0.37728,-1.742838 -0.65079,-3.569414 -0.2735,-1.826573 -0.65531,-3.897044 -0.84845,-4.601044 -0.19314,-0.704 -0.46299,-2.144 -0.59967,-3.2 -0.13669,-1.056 -0.4811,-3.72 -0.76538,-5.92 -0.74107,-5.735134 -0.65239,-7.937754 0.77027,-19.131723 0.20772,-1.634445 0.58151,-3.362445 0.83064,-3.84 0.24914,-0.477553 0.45386,-1.057344 0.45495,-1.288423 0.003,-0.718995 1.65455,-3.943455 3.40957,-6.658304 1.77146,-2.740266 3.4146,-4.374147 6.43599,-6.399702 1.01003,-0.677125 2.09402,-1.485547 2.40888,-1.796493 0.31485,-0.310947 0.6837,-0.565358 0.81965,-0.565358 0.13596,0 0.52635,-0.25866 0.86754,-0.574799 1.0698,-0.991266 6.51367,-3.354421 9.09763,-3.949239 2.18927,-0.50396 6.60108,-0.355292 7.7962,0.262715 3.16879,1.638615 3.42846,2.559625 1.5161,5.377303 -1.31394,1.935961 -1.96132,2.413034 -8.78768,6.475855 -4.10949,2.445829 -7.38428,5.56726 -8.73307,8.324091 -0.46865,0.95789 -1.01103,1.90867 -1.20528,2.112846 -0.60216,0.632922 -2.73578,9.691092 -2.80094,11.89123 -0.0228,0.767923 0.28549,3.427546 0.71058,6.131364 0.37925,2.412285 1.34714,5.596886 2.21754,7.296298 0.35709,0.697213 0.64926,1.45784 0.64926,1.690278 0,0.232439 0.23929,0.957991 0.53176,1.612339 1.04519,2.338436 1.41588,3.502641 2.84468,8.934107 1.93586,7.359024 2.39514,10.150397 2.35874,14.335617 -0.0302,3.475865 -1.13963,9.671981 -2.34569,13.100858 -1.47979,4.207126 -2.76188,8.931806 -2.91419,10.739146 -0.50804,6.02884 -0.43966,5.76 -1.46492,5.76 -0.6587,0 -0.94114,-0.16353 -0.96723,-0.56 z M 36.32,79.813736 c -1.670547,-1.464649 -3.007014,-2.150896 -5.90046,-3.029753 -2.216095,-0.673117 -2.757948,-0.707879 -8.208777,-0.526589 -6.224371,0.207014 -6.716543,0.106595 -6.196478,-1.264256 0.343384,-0.90514 1.915794,-1.113264 8.659903,-1.146231 5.664265,-0.02768 5.914051,0.0231 10.152791,2.064957 1.114842,0.537031 2.105098,1.179987 2.200576,1.428794 0.11953,0.311491 0.451255,0.391392 1.065159,0.256553 0.886492,-0.194704 0.890566,-0.187974 0.716208,1.183489 -0.167354,1.316358 -0.575207,2.19319 -1.008103,2.167289 C 37.690368,80.941381 37.024,80.430968 36.32,79.813736 Z m 18.916602,0.784023 c -1.035869,-0.17593 -2.223869,-0.542954 -2.64,-0.815616 -1.496039,-0.980243 -0.585284,-2.07225 1.43614,-1.721949 1.300807,0.225421 8.576717,0.211005 9.327258,-0.01846 0.733149,-0.224166 4.556301,-2.455309 5.285619,-3.084621 0.355088,-0.306397 1.41889,-1.601088 2.363997,-2.877088 0.94511,-1.276 1.827174,-2.32 1.960147,-2.32 0.4268,0 0.618663,0.937203 0.410154,2.003501 -0.430163,2.199792 -2.990659,5.150269 -5.642061,6.501389 C 67.002035,78.639874 65.608,79.352664 64.64,79.848888 63.154794,80.610245 62.430336,80.764114 60,80.83438 58.416,80.88017 56.27247,80.77371 55.236602,80.597775 Z m 0.524896,-4.351988 c -1.136797,-0.102438 -1.391482,-0.253811 -1.560573,-0.927523 -0.303091,-1.207619 0.212416,-1.515478 1.925773,-1.150054 1.786291,0.380979 3.484304,-0.333876 3.663171,-1.542176 0.135885,-0.917952 -1.218045,-6.066014 -1.595351,-6.066014 -0.150985,0 -0.274518,-0.25336 -0.274518,-0.563024 0,-0.66839 -1.154109,-1.472553 -1.662461,-1.158374 -0.207888,0.128483 -0.267097,0.07575 -0.142077,-0.126538 0.122807,-0.198707 -0.546819,-0.868966 -1.567961,-1.569443 -0.980269,-0.672442 -2.008125,-1.377594 -2.284122,-1.567005 -0.828198,-0.568374 -0.222352,-1.553866 1.418247,-2.306957 2.065756,-0.948259 4.41056,-2.264368 6.254416,-3.510531 1.681904,-1.136708 2.017056,-1.239655 2.077456,-0.638128 0.02208,0.22 0.179228,1.048 0.3492,1.84 0.18926,0.881901 0.194364,1.557821 0.01315,1.744 -0.162727,0.1672 -0.295866,0.529926 -0.295866,0.806061 0,0.276131 -0.432803,1.532157 -0.961782,2.791168 -0.916381,2.181053 -1.043677,3.03647 -0.565658,3.801194 0.117722,0.188333 0.280701,0.692333 0.36217,1.12 0.08147,0.427667 0.220956,0.993577 0.309971,1.257577 0.08901,0.264001 0.241952,0.849447 0.339859,1.300989 0.607862,2.803441 4.894541,3.451629 6.019482,0.910208 0.547782,-1.23752 1.242224,-1.448592 1.938195,-0.589104 0.542928,0.67049 0.543053,0.738941 0.0029,1.560292 -1.568122,2.384045 -1.59337,2.399248 -5.04504,3.038144 -1.001037,0.18529 -2.72,-0.332515 -2.72,-0.819351 0,-0.631654 -0.642208,-0.223795 -0.830807,0.527636 -0.201859,0.804275 -2.451724,2.141126 -3.391638,2.01528 -0.229654,-0.03075 -1.02888,-0.110995 -1.776058,-0.178327 z m 3.68447,-15.667889 c 0.73777,-2.269197 0.700406,-2.703328 -0.181315,-2.106691 -0.299559,0.202701 -1.312282,0.767037 -2.250493,1.25408 -1.553021,0.806202 -1.653354,0.922285 -1.12,1.295779 0.322211,0.225639 0.922074,0.700208 1.333024,1.054602 0.41095,0.354394 0.92159,0.644352 1.134755,0.644352 0.213165,0 0.700976,-0.963955 1.084029,-2.142122 z M 15.043126,72.080005 c 0.0017,-0.484 0.337543,-1.6 0.746276,-2.48 0.946198,-2.037165 2.045585,-5.674423 2.257904,-7.470145 0.0904,-0.764579 0.289527,-1.556579 0.442503,-1.76 C 18.985924,59.710148 19.52,57.401738 19.52,55.917114 c 0,-0.946659 0.155277,-1.508224 0.448108,-1.620592 0.24646,-0.09458 0.548811,-0.76801 0.671892,-1.496519 0.231067,-1.36767 0.982531,-2.020201 1.451899,-1.260748 0.262865,0.425328 0.187442,2.891085 -0.136447,4.460749 -0.09079,0.44 -0.240944,1.631926 -0.333673,2.648723 -0.09273,1.0168 -0.333697,2.157213 -0.535483,2.534253 -0.201786,0.37704 -0.692024,1.633117 -1.089416,2.791277 -1.602347,4.669876 -2.186182,6.008903 -3.254562,7.464327 -1.274696,1.736483 -1.703657,1.89841 -1.699192,0.641421 z m 67.631671,-7.92241 c -0.313386,-0.816663 0.172921,-2.566711 1.393625,-5.015175 1.211594,-2.430199 5.317892,-8.726925 5.963248,-9.144241 0.202583,-0.130995 1.149748,-1.174176 2.10481,-2.318176 2.876406,-3.445434 4.293197,-4.786691 5.06352,-4.793571 0.396,-0.0036 0.72,0.147036 0.72,0.334608 0,0.487555 -0.639139,1.65024 -1.243395,2.261904 C 96.392474,45.77056 95.584,46.69536 94.88,47.538054 c -0.704,0.842692 -1.519539,1.782909 -1.812314,2.08937 -1.759011,1.841264 -4.550252,6.040308 -5.975936,8.989978 -0.908464,1.879572 -1.65175,3.579687 -1.65175,3.778039 0,0.397952 -1.909792,2.244563 -2.32136,2.244563 -0.142298,0 -0.342029,-0.217085 -0.443843,-0.482409 z M 32.93008,61.705329 c -2.223253,-2.230237 -3.342008,-5.61778 -3.100114,-9.387015 0.08386,-1.306682 0.03042,-2.300352 -0.118748,-2.20816 C 29.562048,50.202346 29.44,49.781546 29.44,49.17504 c 0,-1.048064 2.179873,-5.864426 3.225722,-7.12713 1.297475,-1.566509 6.896265,-3.335514 7.494278,-2.367907 0.108774,0.176 0.477274,0.32 0.818886,0.32 0.341613,0 0.621114,0.116662 0.621114,0.259251 0,0.142589 0.412496,0.682589 0.916659,1.2 1.651507,1.694906 3.530768,5.151197 4.055699,7.459146 0.453005,1.991703 0.453341,2.403543 0.0036,4.342986 -0.273299,1.178445 -0.856684,2.614317 -1.296412,3.190826 -0.439725,0.576512 -0.799501,1.139645 -0.799501,1.251408 0,0.413811 -3.008055,2.96641 -4.550407,3.861418 -1.186531,0.688531 -2.14575,0.964505 -3.751763,1.079414 -2.114451,0.15129 -2.179504,0.132477 -3.24775,-0.939123 z m 6.962701,-2.526624 c 2.436534,-1.652736 4.089129,-3.568301 4.693875,-5.440794 0.558608,-1.729626 0.483242,-2.649456 -0.09291,-1.134045 -0.178295,0.468944 -0.605511,1.154608 -0.94937,1.523699 -0.545734,0.585776 -0.847283,0.643328 -2.372361,0.452781 -2.117325,-0.264541 -2.788359,-0.90792 -3.011472,-2.887357 -0.09007,-0.799142 -0.253044,-1.448195 -0.362154,-1.442339 -0.954438,0.05122 -3.544634,3.950992 -4.169181,6.277075 -0.300957,1.1209 -0.268688,1.481946 0.207155,2.317799 1.092042,1.918253 3.522522,2.051962 6.056423,0.333181 z m -6.191687,-7.571294 c 1.009348,-1.591958 3.965616,-4.575117 5.055648,-5.101635 0.419792,-0.202771 1.446717,-0.633523 2.282058,-0.957226 0.835341,-0.323699 1.519341,-0.670627 1.52,-0.770947 6.4e-4,-0.10032 -0.498736,-0.766464 -1.109766,-1.480317 -1.219472,-1.424678 -2.570192,-2.069168 -2.254957,-1.075942 0.279693,0.881228 -0.620819,1.406166 -2.077139,1.210832 -0.702317,-0.0942 -1.276938,-0.05391 -1.276938,0.08954 0,0.143446 -0.553293,0.960781 -1.229536,1.816295 -0.676246,0.855513 -1.41375,1.899686 -1.638899,2.320384 -0.592762,1.107581 -1.293984,4.722739 -1.276597,6.581488 l 0.01497,1.600119 0.566786,-1.44 c 0.311734,-0.792 0.952701,-2.048666 1.424371,-2.792593 z M 44.57272,47.680003 C 44.423261,47.108477 43.52,46.734995 43.52,47.244726 c 0,0.160634 0.942816,1.01889 1.170042,1.065101 0.02752,0.0056 -0.02528,-0.277824 -0.117322,-0.629824 z M 61.76,52.487251 c -0.616,-0.131532 -1.48,-0.388963 -1.92,-0.572067 -0.772307,-0.321392 -2.854458,-2.180355 -2.904483,-2.593152 -0.01347,-0.111117 -0.08292,-0.418029 -0.154352,-0.682029 -1.167581,-4.315494 -0.954951,-8.143783 0.63096,-11.360001 1.891789,-3.836534 3.638889,-4.841024 8.373805,-4.814489 l 2.585932,0.0145 1.470317,1.400928 c 0.808675,0.770508 1.99744,2.282509 2.641706,3.36 1.165053,1.94848 1.170707,1.97551 1.045833,4.999072 -0.149993,3.631818 -0.746336,5.172961 -2.97886,7.698356 -1.068452,1.208618 -1.907943,1.839581 -2.743002,2.061645 -0.66184,0.176 -1.309357,0.428 -1.438931,0.56 -0.290125,0.295551 -3.091123,0.25134 -4.608925,-0.07276 z m 4.64,-2.626534 c 1.399331,-0.474173 2.505549,-1.009459 2.949258,-1.427117 0.29831,-0.28079 0.118438,-0.417206 -0.76984,-0.58385 -0.698912,-0.131116 -1.575652,-0.646381 -2.208295,-1.29783 -0.953261,-0.9816 -1.040989,-1.235437 -0.959449,-2.776151 0.04936,-0.932672 0.187827,-1.917785 0.307705,-2.189142 0.177178,-0.401056 -0.199776,-0.565015 -2.014454,-0.876196 -2.453034,-0.420649 -2.906704,-0.334787 -4.10656,0.777204 -0.446503,0.413801 -1.004935,0.752368 -1.24096,0.752368 -0.536461,0 -0.383002,4.025802 0.194598,5.105056 1.374669,2.568592 4.620925,3.609172 7.847997,2.515658 z m 3.210803,-11.731524 c -0.115552,-0.526112 -0.453257,-1.244285 -0.750451,-1.595933 -0.297194,-0.351651 -0.786794,-0.934643 -1.087997,-1.295539 -0.470592,-0.563853 -0.838425,-0.639853 -2.6144,-0.54016 -2.400217,0.134732 -3.786749,0.825363 -4.73656,2.359273 -0.704176,1.137223 -0.622291,1.576938 0.207219,1.112721 0.286413,-0.160285 1.3309,-0.180417 2.344004,-0.04518 3.563641,0.475715 6.270656,0.932231 6.421331,1.082906 0.321715,0.321712 0.418557,-0.159744 0.216854,-1.078093 z m -48.07755,10.568445 c -0.397528,-0.245686 -1.157172,-1.251168 -3.186439,-4.217635 -0.662179,-0.968 -1.425692,-1.976 -1.696696,-2.24 -0.271005,-0.264 -1.065773,-1.2 -1.766153,-2.08 -3.325028,-4.17777 -6.7585954,-7.520001 -7.7255103,-7.520001 -0.4258173,0 -0.2595625,-1.878585 0.2093312,-2.365324 0.3364003,-0.349204 9.6456421,-0.470169 12.6757131,-0.16471 3.58651,0.361554 8.259105,1.284264 8.511601,1.680809 0.314106,0.493305 0.297226,0.593372 -0.213785,1.267318 -0.413827,0.545776 -0.536647,0.549514 -2.196946,0.06685 C 23.988552,32.498233 21.41835,32.302895 20.88,32.72485 c -0.24898,0.195149 -0.4,0.198045 -0.4,0.0077 0,-0.353123 0.05814,-0.341811 -3.52,-0.684921 -1.496,-0.143464 -3.478285,-0.176857 -4.405078,-0.07422 l -1.685079,0.186613 1.917314,2.04312 c 1.054522,1.123719 1.840309,2.167719 1.746193,2.32 -0.09412,0.152285 0.04131,0.27688 0.300943,0.27688 0.259635,0 0.663286,0.432 0.897001,0.96 0.233716,0.528001 0.535815,0.960001 0.671333,0.960001 0.30747,0 2.135225,1.987612 2.147993,2.335862 0.0052,0.140723 0.51338,0.774813 1.12938,1.409088 0.616,0.634275 1.12,1.253779 1.12,1.376679 0,0.122896 0.445602,0.689731 0.990226,1.259625 0.864642,0.904765 0.962943,1.184724 0.775099,2.207463 -0.251758,1.370726 -0.506598,1.713677 -1.032072,1.388918 z M 91.52,42.346297 c -2.241005,-0.372365 -7.227251,-1.788246 -8.412675,-2.388842 -3.532762,-1.789868 -7.806832,-6.022893 -7.346029,-7.275482 0.191222,-0.519801 0.69769,-0.987746 1.079152,-0.997071 0.11025,-0.0027 0.784403,0.5351 1.498128,1.1951 0.713722,0.66 1.84752,1.706487 2.519549,2.32553 2.6892,2.477152 5.403977,3.618368 10.687696,4.492797 l 2.105821,0.348502 -0.190692,1.173143 C 93.264509,42.428505 92.986317,42.589939 91.52,42.346297 Z M 34.701162,29.618068 c -0.57481,-0.427464 -0.584855,-0.528189 -0.134628,-1.349782 0.669076,-1.220955 5.898602,-3.815933 9.696762,-4.811694 3.274768,-0.858545 8.232573,-0.671552 8.206058,0.309506 -0.0059,0.216647 -0.280938,0.717904 -0.611293,1.113904 -0.522403,0.626205 -0.906615,0.720315 -2.949354,0.722417 -4.71632,0.0049 -8.052307,0.977507 -11.509792,3.355837 -1.861801,1.280695 -1.862592,1.280889 -2.697753,0.659812 z m 38.710416,-1.957967 c -0.180551,-0.985573 -0.202772,-1.8561 -0.0498,-1.950644 0.151949,-0.09391 0.24057,-2.568953 0.196938,-5.5001 -0.04363,-2.931146 0.03375,-6.387486 0.171962,-7.680755 l 0.251292,-2.351399 -0.750988,0.222795 c -1.912647,0.567427 -9.455255,5.993926 -11.292116,8.12407 -2.578073,2.989698 -4.97887,5.004286 -4.97887,4.177934 0,-0.226384 -0.239117,-0.675828 -0.531373,-0.998765 -0.503142,-0.555966 -0.42239,-0.693373 1.52,-2.586469 3.546307,-3.456302 6.530957,-5.815967 11.430263,-9.036767 0.267721,-0.1760003 1.647987,-1.0833303 3.067257,-2.0162891 1.844154,-1.2122577 2.78225,-1.6456504 3.287562,-1.5188257 0.388886,0.097605 0.785648,0.050317 0.881693,-0.1050851 0.09604,-0.1554016 0.48559,-0.3638679 0.86566,-0.463258 0.677719,-0.1772278 0.687168,-0.1306032 0.490493,2.419868 -0.110301,1.4303179 -0.347021,2.7470559 -0.526048,2.9260839 -0.17903,0.179028 -0.325507,0.76261 -0.325507,1.296849 0,0.89563 -0.43873,4.425149 -1.295315,10.420658 -0.188589,1.32 -0.403392,2.904 -0.477344,3.52 -0.266122,2.216813 -0.51112,2.88 -1.063949,2.88 -0.409846,0 -0.626954,-0.443243 -0.871814,-1.779901 z"
     id="path4547"
     inkscape:connector-curvature="0"
     sodipodi:nodetypes="csccsscsssscccccscscccsscscsccscscscssccccssssccscccccscscscccsscssscsccssccsssccccccscccsccscccsssccsccccccccscscsscccccscscccscccssccccccccccscscsccscccccscsscscscscccsscccscccssccccccscsscccssscsccssssccccscscccsssccccscsssscccsscccccccccccscccccccccsccccccccscccsccsccccssscccscccscccssscccscscccccscsscscscsscscccssscsscsccscccccsccsssscccssccscccsscscscccccsscscc" />
</svg>
