<?xml version="1.0" encoding="UTF-8" standalone="no"?>
<!-- Created with Inkscape (http://www.inkscape.org/) -->

<svg
   xmlns:dc="http://purl.org/dc/elements/1.1/"
   xmlns:cc="http://creativecommons.org/ns#"
   xmlns:rdf="http://www.w3.org/1999/02/22-rdf-syntax-ns#"
   xmlns:svg="http://www.w3.org/2000/svg"
   xmlns="http://www.w3.org/2000/svg"
   xmlns:sodipodi="http://sodipodi.sourceforge.net/DTD/sodipodi-0.dtd"
   xmlns:inkscape="http://www.inkscape.org/namespaces/inkscape"
   version="1.1"
   id="svg5188"
   width="211.2"
   height="212.8"
   viewBox="0 0 211.2 212.8"
   sodipodi:docname="flatten.svg"
   inkscape:version="0.92.3 (2405546, 2018-03-11)">
  <metadata
     id="metadata5194">
    <rdf:RDF>
      <cc:Work
         rdf:about="">
        <dc:format>image/svg+xml</dc:format>
        <dc:type
           rdf:resource="http://purl.org/dc/dcmitype/StillImage" />
        <dc:title></dc:title>
      </cc:Work>
    </rdf:RDF>
  </metadata>
  <defs
     id="defs5192" />
  <sodipodi:namedview
     pagecolor="#ffffff"
     bordercolor="#666666"
     borderopacity="1"
     objecttolerance="10"
     gridtolerance="10"
     guidetolerance="10"
     inkscape:pageopacity="0"
     inkscape:pageshadow="2"
     inkscape:window-width="3832"
     inkscape:window-height="2084"
     id="namedview5190"
     showgrid="false"
     inkscape:zoom="8.0534098"
     inkscape:cx="93.467858"
     inkscape:cy="87.763476"
     inkscape:window-x="0"
     inkscape:window-y="28"
     inkscape:window-maximized="0"
     inkscape:current-layer="svg5188" />
  <path
     style="fill:#000000;stroke-width:1"
     d="m 142.88,207.75691 c -0.176,-0.1571 -0.968,-0.47976 -1.76,-0.71703 -0.792,-0.23727 -1.8,-0.60608 -2.24,-0.81957 -0.44,-0.2135 -1.16,-0.55411 -1.6,-0.75691 -1.56482,-0.72126 -2.40788,-1.28832 -2.98973,-2.01097 -0.32435,-0.40284 -1.04929,-1.23643 -1.61099,-1.85243 -1.29843,-1.42397 -3.39928,-4.18511 -3.39928,-4.46766 0,-0.1186 -0.792,-1.06665 -1.76,-2.10677 -0.968,-1.04013 -1.76,-2.06622 -1.76,-2.28021 0,-0.21399 -0.2651,-0.57724 -0.58911,-0.80722 -0.32401,-0.22997 -0.97816,-1.03702 -1.45366,-1.79343 -0.47551,-0.7564 -1.07441,-1.45581 -1.33089,-1.55423 -0.70802,-0.27169 -0.5571,-1.2921 0.2212,-1.49563 1.1893,-0.31101 4.13998,2.43161 6.65436,6.18515 4.01907,5.99978 6.91694,9.1697 9.71434,10.62634 3.49245,1.81857 4.73174,0.89048 3.46179,-2.59249 -0.37292,-1.02276 -0.67803,-2.15677 -0.67803,-2.52004 0,-0.36326 -0.108,-0.70848 -0.24,-0.76714 -0.132,-0.0587 -0.57496,-0.82667 -0.98435,-1.70667 -0.4094,-0.88 -1.5974,-3.04992 -2.64,-4.82204 C 136.85304,189.72585 136,188.10011 136,187.88522 c 0,-0.21489 -0.27405,-0.92791 -0.60901,-1.58447 -0.33495,-0.65657 -0.85826,-2.44882 -1.1629,-3.98278 -0.44729,-2.25223 -0.47651,-2.88225 -0.15181,-3.27349 0.43797,-0.52772 1.15017,-0.63945 1.40878,-0.22102 0.0896,0.1449 0.3725,1.2609 0.62878,2.48 0.42362,2.01511 3.20169,8.21648 4.2184,9.41654 0.22366,0.264 1.44587,2.496 2.71602,4.96 1.27015,2.464 2.41907,4.624 2.55317,4.8 0.32749,0.42981 0.95857,3.48324 0.95857,4.63791 0,0.50952 -0.324,1.29459 -0.72,1.74459 -0.76445,0.86869 -2.42623,1.37082 -2.96,0.89441 z m -74.4,-7.85294 c 0,-0.26985 -0.169907,-0.54727 -0.377571,-0.61649 -0.207664,-0.0692 -0.289834,-0.3545 -0.182602,-0.63395 0.317613,-0.82768 4.314938,-1.3467 10.480173,-1.36076 7.226803,-0.0165 9.798848,0.28293 10.288403,1.19767 0.273027,0.51016 0.270979,0.70976 -0.0082,0.80284 -0.204381,0.0681 -0.553033,0.30529 -0.774781,0.52704 -0.30014,0.30014 -0.85071,0.32958 -2.154288,0.11519 -0.963107,-0.1584 -4.127104,-0.36587 -7.031104,-0.46104 -4.840761,-0.15865 -6.182454,-0.0571 -9.36,0.70819 -0.669526,0.16126 -0.88,0.0946 -0.88,-0.27869 z m -16.64,-1.65274 c -1.728621,-0.56896 -3.763293,-1.51191 -4.716717,-2.18591 -0.922195,-0.65193 -1.826621,-1.18532 -2.009837,-1.18532 -0.183212,0 -1.173923,-0.8382 -2.201577,-1.86267 -1.456682,-1.45217 -1.898762,-2.12218 -2.005936,-3.04023 -0.227555,-1.94917 0.328198,-1.93442 2.009171,0.0533 0.851152,1.00648 2.136464,2.18538 2.856246,2.61977 0.719783,0.4344 1.812074,1.11516 2.427316,1.51281 2.57767,1.66606 6.516025,3.277 8.01143,3.277 0.841645,0 0.938502,0.28179 0.349904,1.01799 -0.690221,0.86331 -1.588454,0.82396 -4.72,-0.20676 z m 35.838803,-2.96513 c -6.4e-4,-0.31136 -0.271945,-1.0101 -0.602861,-1.55277 -0.740662,-1.2146 -0.978067,-2.65415 -1.051068,-6.37333 -0.0311,-1.584 -0.158378,-3.25167 -0.282861,-3.70594 -0.265674,-0.96952 0.648989,-2.45516 1.273817,-2.069 0.703687,0.4349 1.027888,1.90206 1.280842,5.79637 0.20543,3.16269 0.396323,4.15113 1.054918,5.46237 0.9049,1.80161 0.732276,2.40988 -0.79159,2.78929 -0.710733,0.17696 -0.88023,0.11022 -0.881197,-0.34699 z M 50.271306,193.87225 C 50.078086,193.31798 49.92,192.58258 49.92,192.23801 c 0,-0.47455 -0.135808,-0.5684 -0.56,-0.38699 -1.26735,0.542 -2.226819,0.53337 -2.439917,-0.022 -0.252982,-0.65927 0.311619,-1.42907 1.048128,-1.42907 0.827091,0 2.439194,-1.29374 3.687882,-2.95959 1.115021,-1.48752 1.129552,-1.54492 0.688694,-2.72 -0.734304,-1.95725 -0.889289,-3.78851 -0.357952,-4.22948 0.492192,-0.40849 1.773165,-0.16962 1.773165,0.33064 0,0.16414 0.154054,0.29843 0.342342,0.29843 0.188292,0 0.944292,0.40123 1.68,0.89161 0.735712,0.49038 2.091645,1.23405 3.013184,1.6526 1.340128,0.60867 1.603236,0.8481 1.314397,1.19613 -0.198617,0.23932 -0.268288,0.52796 -0.154825,0.64143 0.314816,0.31481 -0.779306,1.37823 -1.418026,1.37823 -0.310058,0 -0.611738,0.14259 -0.670406,0.31686 -0.05867,0.17428 -0.974695,0.40745 -2.03562,0.51816 -1.892006,0.19745 -1.949638,0.23256 -3.008835,1.83323 -1.016982,1.53687 -1.061913,1.71965 -0.771376,3.13796 0.289741,1.41443 0.262599,1.52696 -0.446221,1.84991 -0.997097,0.45432 -0.932256,0.4866 -1.333308,-0.66387 z m 6.862643,-8.27755 c 0.709817,-0.26987 0.78848,-0.40619 0.461651,-0.8 -0.216682,-0.26109 -0.635533,-0.4747 -0.930781,-0.4747 -0.295251,0 -0.673619,-0.12781 -0.840819,-0.28404 -0.1672,-0.15621 -0.66287,-0.39298 -1.101491,-0.52615 -0.718151,-0.21804 -0.681241,-0.13935 -0.513541,0.28627 0.167699,0.42563 0.114181,0.52258 0.248749,0.78312 0.134568,0.26054 0.108801,0.41402 0.284801,0.74287 0.358256,0.66941 1.11954,0.7562 2.391431,0.27263 z M 95.04,190.43605 c 0,-0.16287 -0.288,-0.22082 -0.64,-0.12877 -0.434707,0.11368 -0.64,0.01 -0.64,-0.32379 0,-0.27013 -0.08187,-0.7045 -0.181936,-0.96526 -0.127558,-0.33242 0.163306,-0.58806 0.973197,-0.85535 0.635325,-0.20967 1.329193,-0.31688 1.541936,-0.23823 0.514473,0.1902 6.253093,-0.27898 8.866803,-0.72494 1.144,-0.19519 3.592,-0.4829 5.44,-0.63936 1.848,-0.15646 4.404,-0.38543 5.68,-0.50882 2.57438,-0.24895 2.86619,-0.009 1.56699,1.29057 -0.72466,0.72466 -3.0672,1.41978 -5.64699,1.67568 -0.616,0.0611 -1.984,0.25392 -3.04,0.42848 -1.056,0.17457 -4.296,0.4567 -7.2,0.62696 -2.904,0.17026 -5.604,0.38818 -6,0.48427 -0.396,0.0961 -0.72,0.0414 -0.72,-0.12144 z m -27.265706,-6.99908 c -0.88399,-0.38387 -3.031923,-2.55247 -4.109321,-4.14887 -0.867015,-1.28467 -0.997683,-1.75209 -0.984112,-3.52027 0.01789,-2.33154 0.719507,-3.84179 2.468057,-5.31259 2.316183,-1.94827 6.875108,-2.78275 8.487927,-1.55366 0.419734,0.31988 1.224134,0.76644 1.787555,0.99237 1.025475,0.4112 1.66424,1.16244 2.710224,3.18742 2.593075,5.0201 -1.115677,10.15083 -7.574624,10.47882 -1.232,0.0626 -2.485568,0.007 -2.785706,-0.12322 z m 5.012004,-2.20471 c 2.7391,-0.37543 4.924057,-3.60979 4.009769,-5.9356 -0.83735,-2.1301 -1.614918,-3.07504 -3.107837,-3.77679 -1.718336,-0.80772 -3.598265,-0.71588 -5.927046,0.28953 -1.786048,0.77109 -2.290387,1.42087 -2.791171,3.59607 l -0.415664,1.80548 1.053478,1.31091 c 2.107731,2.62279 3.628474,3.19698 7.178471,2.7104 z m -4.918493,-2.39504 c -0.81984,-0.76379 -0.820384,-0.82303 -0.01962,-2.13648 0.793398,-1.30133 2.596848,-2.15041 3.519107,-1.65683 1.046304,0.55997 0.658538,3.17874 -0.542797,3.66577 -1.78984,0.72563 -2.291507,0.74727 -2.956707,0.12754 z M 32.504429,179.76 c -0.895592,-4.3639 -1.192479,-5.19767 -2.676389,-7.51636 -0.477422,-0.74599 -1.501319,-2.40199 -2.275326,-3.68 -0.774007,-1.278 -1.494007,-2.39564 -1.6,-2.48364 -0.683517,-0.56749 -0.05882,-1.92028 0.886468,-1.91965 0.468575,3.1e-4 2.920818,2.90444 2.920818,3.45905 0,0.12493 0.331957,0.58567 0.737682,1.02387 0.405725,0.4382 1.402512,2.02073 2.21508,3.51673 3.325126,6.1218 3.042156,5.41465 2.368512,5.91896 -0.428199,0.32057 -0.557914,0.72633 -0.455424,1.42464 0.13512,0.92063 0.08284,0.9764 -0.915175,0.9764 -0.840569,0 -1.088902,-0.14823 -1.206246,-0.72 z m 54.752448,-2.60717 c -0.186106,-0.48499 0.425997,-1.20411 2.070765,-2.43283 1.487571,-1.11128 4.17574,-3.55474 4.73127,-4.30057 0.499226,-0.67024 0.744269,-0.9147 2.986547,-2.97943 0.81232,-0.748 1.604304,-1.36 1.759962,-1.36 0.155661,0 0.596777,-0.33398 0.980262,-0.74218 l 0.697247,-0.74218 -2.85077,-0.37956 c -1.567923,-0.20875 -3.044582,-0.31224 -3.281466,-0.22997 -0.23688,0.0823 -2.707324,0.21648 -5.489872,0.29825 -5.023804,0.14763 -5.058486,0.14389 -4.96,-0.53511 0.07276,-0.50163 0.482775,-0.79732 1.539178,-1.11 1.814285,-0.537 10.94681,-0.95734 13.92,-0.64068 1.232,0.13121 2.78534,0.29255 3.45188,0.35854 1.37736,0.13636 1.35455,0.12166 1.64196,1.05776 0.15233,0.49616 0.004,0.89374 -0.52025,1.39026 -0.8835,0.83748 -3.3218,2.55487 -3.62733,2.55487 -0.362935,0 -2.270903,1.65404 -4.059383,3.51914 -4.558986,4.75427 -6.145859,6.0451 -8.005191,6.51176 -0.548988,0.13779 -0.870393,0.0601 -0.984809,-0.23807 z m -38.840765,-2.21718 c -1.286294,-0.47193 -4.523984,-3.51777 -5.325635,-5.01006 -1.864707,-3.4712 0.550441,-8.33799 5.229523,-10.53805 1.622694,-0.76298 2.047098,-0.82052 5.44,-0.73752 2.92312,0.0715 3.840474,0.20721 4.460227,0.65978 1.213197,0.88591 1.939629,2.03039 2.380589,3.75054 0.356093,1.38909 0.33024,1.83059 -0.214298,3.65966 -0.775059,2.6034 -1.296441,3.64227 -2.693593,5.36708 -1.191491,1.47092 -2.164205,1.98675 -5.225322,2.77097 -2.264873,0.58023 -2.660845,0.58782 -4.051491,0.0776 z M 55.12,172.31947 c 0.308,-0.12537 0.56,-0.35654 0.56,-0.51371 0,-0.15716 0.18,-0.28604 0.4,-0.28638 0.559997,-9.6e-4 2.48,-2.90482 2.48,-3.75093 0,-0.38409 0.170355,-1.07223 0.378566,-1.5292 0.295319,-0.64815 0.288314,-1.09129 -0.03184,-2.01506 -0.631584,-1.82236 -1.946249,-2.80238 -4.547251,-3.38976 -2.14632,-0.4847 -2.343437,-0.48048 -3.595149,0.0768 -2.427126,1.08066 -4.155776,3.30897 -4.659756,6.00665 -0.433312,2.31941 0.435203,4.31064 2.379974,5.45651 0.673274,0.39669 5.626653,0.35567 6.635459,-0.0549 z m -4.998246,-3.12937 c -0.896874,-0.65581 -0.774176,-2.37834 0.23614,-3.31516 0.972772,-0.902 2.637741,-0.94627 3.176957,-0.0845 0.442586,0.70737 0.02845,2.11531 -0.893318,3.03709 -0.860067,0.86007 -1.678365,0.9778 -2.519779,0.36254 z m 91.505476,4.68546 c -0.10298,-0.26835 -0.18723,-0.59692 -0.18723,-0.73016 0,-0.13325 1.62,-1.62268 3.6,-3.30985 6.61111,-5.63337 11.50076,-10.72148 14.31977,-14.90095 0.79187,-1.17403 1.61987,-2.32488 1.84,-2.55746 0.22012,-0.23257 0.40023,-0.5363 0.40023,-0.67496 0,-0.13866 0.5026,-0.88438 1.11689,-1.65715 0.6143,-0.77276 1.1183,-1.56561 1.12,-1.76187 0.002,-0.19627 0.30156,-0.73627 0.66634,-1.2 0.36477,-0.46374 0.55567,-0.84316 0.42422,-0.84316 -0.13146,0 0.11009,-0.37093 0.53677,-0.82429 0.42668,-0.45336 1.13578,-1.44778 1.57578,-2.20983 0.44,-0.76205 1.37583,-2.37112 2.07963,-3.57571 0.7038,-1.2046 1.4958,-2.69684 1.76,-3.3161 0.2642,-0.61927 1.02037,-2.16367 1.68037,-3.43201 0.66,-1.26835 1.2,-2.63764 1.2,-3.04287 0,-0.40523 0.19745,-1.02083 0.43878,-1.36799 1.09155,-1.57025 2.87933,-7.73979 3.19655,-11.0312 0.13975,-1.44989 1.29229,-6.14984 1.65005,-6.7287 0.34007,-0.55025 1.35458,-0.33192 1.52734,0.32869 0.40474,1.54773 -0.65805,7.32115 -2.22934,12.11055 -0.61521,1.8752 -1.15623,3.55346 -1.20227,3.72946 -0.046,0.176 -0.39046,0.968 -0.76538,1.76 -0.37492,0.792 -0.68484,1.58815 -0.6887,1.76923 -0.0171,0.80226 -3.31996,7.69825 -5.58972,11.67077 -0.45252,0.792 -1.47145,2.664 -2.26429,4.16 -1.51996,2.86798 -4.40563,7.49756 -5.65255,9.06854 -2.80509,3.53414 -4.77146,5.70632 -8.66458,9.57146 -2.43751,2.42 -4.56082,4.4 -4.71846,4.4 -0.15764,0 -0.76155,0.47143 -1.34203,1.04762 -1.59291,1.58116 -3.93499,3.38723 -4.83743,3.73034 -0.62371,0.23713 -0.84542,0.19632 -0.99074,-0.1824 z M 26.731261,162.25822 c -0.365072,-0.5907 0.409883,-1.23202 1.765484,-1.46105 0.692946,-0.11707 1.332397,-0.33016 1.421004,-0.47353 0.08861,-0.14336 1.061361,-0.35886 2.161678,-0.47886 2.959267,-0.32275 5.423783,-1.01448 8.041703,-2.25711 2.143769,-1.01755 3.966969,-1.39291 4.444809,-0.91506 0.374714,0.37471 -0.835641,2.36739 -1.437955,2.36739 -0.326413,0 -1.127744,0.26981 -1.780733,0.59958 -1.329545,0.67144 -6.342326,1.81153 -9.987251,2.27146 -1.32,0.16657 -2.850536,0.39523 -3.40119,0.50814 -0.61712,0.12654 -1.088025,0.0648 -1.227549,-0.16096 z m 49.760294,-1.48275 c -0.742477,-0.80549 -1.948816,-1.78467 -2.680755,-2.17594 -0.731939,-0.39128 -1.6908,-0.9446 -2.1308,-1.22959 -0.44,-0.28499 -1.88,-0.98681 -3.2,-1.55961 -1.32,-0.57279 -2.688,-1.29049 -3.04,-1.59488 -0.352,-0.30439 -1.504,-0.91451 -2.56,-1.35582 -1.57087,-0.65649 -1.92,-0.93852 -1.92,-1.55101 0,-0.69233 0.146093,-0.75567 1.942906,-0.84241 1.803817,-0.0871 2.773648,0.12486 3.977094,0.86911 0.264,0.16326 1.992,1.04762 3.84,1.96523 3.604307,1.7897 6.397882,3.64238 6.403408,4.2467 0.0019,0.20502 0.490416,0.84586 1.085645,1.4241 1.399065,1.35914 1.612169,2.17344 0.730413,2.79105 -0.375028,0.26268 -0.775488,0.4776 -0.889914,0.4776 -0.114422,0 -0.815523,-0.65904 -1.557997,-1.46453 z M 35.565558,152.88 c -1.631923,-4.09208 -2.055337,-5.73237 -2.292217,-8.88 -0.139075,-1.848 -0.354627,-4.23839 -0.479005,-5.31199 -0.193706,-1.67203 -0.148115,-1.98192 0.317869,-2.16074 0.973081,-0.3734 1.667133,0.96773 1.871622,3.61658 0.102589,1.32888 0.283959,2.84815 0.403043,3.37615 0.119085,0.528 0.19816,1.248 0.175725,1.6 -0.05751,0.90234 0.601143,3.61496 1.11848,4.60639 0.239242,0.45849 0.440448,1.04961 0.44713,1.31361 0.0067,0.264 0.222601,0.7582 0.479821,1.09822 0.417881,0.5524 0.401187,0.68016 -0.156797,1.2 -0.905411,0.84352 -1.416019,0.71944 -1.885671,-0.45822 z m 9.140144,-0.16 c -0.209571,-1.42811 -0.128518,-3.42049 0.400304,-9.84 0.217476,-2.64 0.312807,-5.40865 0.211844,-6.15256 -0.155933,-1.14894 -0.08332,-1.40622 0.482336,-1.70895 0.592921,-0.31732 0.91654,-0.0973 2.952857,2.0074 2.907299,3.00495 3.331482,3.5484 4.033837,5.16803 0.95328,2.19826 2.220752,4.73632 3.378886,6.76608 0.602532,1.056 1.099722,2.172 1.104871,2.48 0.024,1.43496 -2.694163,-0.28606 -3.537824,-2.24 -0.246973,-0.572 -0.557891,-1.04 -0.690928,-1.04 -0.133037,0 -0.241885,-0.26858 -0.241885,-0.59684 0,-0.32827 -0.288,-0.96298 -0.64,-1.41048 -0.352,-0.44749 -0.64,-0.89853 -0.64,-1.0023 0,-0.10377 -0.456691,-1.16106 -1.014867,-2.34953 -1.028439,-2.18974 -2.112685,-3.49814 -2.52569,-3.04784 -0.396211,0.432 -1.100838,7.4918 -1.062656,10.64699 0.03819,3.15576 -0.09692,3.50602 -1.355888,3.5151 -0.541357,0.004 -0.714819,-0.2385 -0.855197,-1.1951 z M 28.48,133.06048 c -0.968,-0.12841 -4.352,-0.38831 -7.52,-0.57756 -8.169025,-0.48801 -10.872084,-0.86473 -12.8214083,-1.78691 -1.4822013,-0.70119 -2.7078432,-1.90919 -2.8977363,-2.85601 -0.5437812,-2.71134 -0.5203024,-2.94113 0.4051392,-3.96523 1.1343782,-1.2553 5.0282474,-2.87756 7.4570104,-3.10674 0.977348,-0.0922 2.208995,-0.24117 2.736995,-0.33099 0.528,-0.0898 1.896,-0.22297 3.04,-0.29586 5.904549,-0.37622 7.068675,-0.49151 9.28,-0.91902 1.32,-0.2552 3.552,-0.78455 4.96,-1.17635 2.657754,-0.73955 4.841664,-0.85215 5.41465,-0.27916 0.535747,0.53575 -1.368791,1.84393 -3.17465,2.18058 -0.88,0.16406 -2.536,0.47362 -3.68,0.68793 -3.568006,0.66838 -5.552429,0.9348 -8.497821,1.14088 -5.030629,0.35198 -10.786779,1.16676 -12.527403,1.77324 -1.0201267,0.35544 -2.0892227,0.72247 -2.3757686,0.81561 -0.7429901,0.24151 -1.2021364,1.42054 -0.8859917,2.27511 0.1464985,0.396 0.4122051,0.72 0.5904589,0.72 0.178254,0 1.0828944,0.48265 2.010312,1.07256 1.0322714,0.65661 2.3067204,1.15605 3.2862134,1.28783 0.88,0.1184 2.032,0.27357 2.56,0.34481 0.997707,0.13463 3.930812,0.36902 8.32,0.66488 2.372776,0.15993 6.194593,0.6773 7.114605,0.9631 0.502155,0.156 0.156665,1.10682 -0.402175,1.10682 -0.230503,0 -0.467097,0.11114 -0.525763,0.24698 -0.05867,0.13583 -0.898667,0.14191 -1.866667,0.0135 z m 10.673254,-22.5069 c -0.284835,-0.74228 0.09144,-4.68181 0.71097,-7.44377 0.724013,-3.227749 2.205027,-6.434124 4.769238,-10.325333 C 44.813059,92.511936 45.248,91.806662 45.6,91.2172 c 0.352,-0.589459 1.00967,-1.518474 1.461491,-2.064474 0.451818,-0.546 1.444685,-1.892726 2.206365,-2.992726 0.76168,-1.1 1.481494,-2 1.599584,-2 0.11809,0 0.519066,-0.54 0.891059,-1.2 0.371991,-0.66 1.082506,-1.658976 1.578925,-2.219949 C 53.83384,80.179082 54.528,79.324861 54.88,78.841786 58.091219,74.434803 70.735104,62.72 72.280374,62.72 c 0.168461,0 0.354292,-0.143754 0.41296,-0.319453 0.134381,-0.402454 2.186666,-1.010784 2.186666,-0.64816 0,0.147239 0.503878,0.113066 1.119728,-0.07594 1.243146,-0.381533 1.726496,-0.166896 1.160352,0.515267 -0.204118,0.245945 -0.294662,0.646425 -0.20121,0.889958 0.09345,0.243533 -0.104668,0.585786 -0.440272,0.76056 -1.994412,1.038647 -5.19807,3.171107 -6.438598,4.285744 -0.792,0.711626 -1.522829,1.297952 -1.624067,1.302947 -0.251261,0.01238 -3.433853,2.519296 -4.615933,3.63593 -2.644128,2.497734 -5.281123,5.162256 -6.72,6.790141 -0.88,0.995597 -2.337386,2.623062 -3.238637,3.616592 C 51.941082,85.612525 48.64,90.225414 48.64,90.797789 48.64,91.019005 48.498742,91.2 48.326096,91.2 c -0.172646,0 -0.404256,0.36 -0.514691,0.8 -0.110432,0.44 -0.304842,0.8 -0.432023,0.8 -0.12718,0 -0.386185,0.324 -0.575571,0.72 -0.189385,0.396 -0.88495,1.872 -1.545699,3.28 -0.660749,1.408 -1.313574,2.635213 -1.450726,2.727136 -0.446045,0.29896 -2.520893,8.926224 -2.526948,10.507104 -2.4e-4,0.0628 -0.209065,0.0342 -0.464057,-0.0637 -0.280509,-0.10765 -0.541799,0.0684 -0.661565,0.44576 -0.236346,0.74466 -0.741891,0.81394 -1.001562,0.13725 z m 142.469606,-5.13644 c -0.27658,-0.27657 -0.50286,-0.56145 -0.50286,-0.63307 0,-0.17683 4.73669,-2.38407 5.11616,-2.38407 0.16617,0 0.77501,-0.20544 1.35298,-0.45654 0.57797,-0.25109 2.41886,-0.98215 4.09086,-1.62457 4.07422,-1.565405 5.52774,-2.233677 10.24,-4.70794 1.61954,-0.850371 2.08,-1.251436 2.08,-1.811712 0,-1.133014 -3.27792,-2.701145 -6.36587,-3.045382 -3.9692,-0.44247 -8.1605,-0.80401 -11.40497,-0.983786 -1.85397,-0.102726 -4.12637,-0.306204 -5.04978,-0.452179 -0.92342,-0.145971 -1.99854,-0.205344 -2.38916,-0.131939 -0.78414,0.147357 -3.11022,-0.713504 -3.11022,-1.151066 0,-0.868544 1.02444,-1.021056 5.6514,-0.84134 2.61173,0.101443 6.0446,0.318393 7.6286,0.482112 1.584,0.163718 4.464,0.460099 6.4,0.658627 4.13539,0.424064 7.77361,1.116291 9.50221,1.807945 0.99785,0.399258 1.39344,0.828695 2.0586,2.23473 1.23231,2.604896 0.95738,3.466614 -1.65377,5.183347 -1.95205,1.283399 -6.80617,3.165963 -11.34704,4.400703 -2.08692,0.56747 -6.46092,2.02607 -9.45351,3.15249 -2.53661,0.95477 -2.2257,0.92157 -2.84363,0.30364 z M 169.53227,83.91623 c -0.65325,-1.361926 -1.69166,-3.34023 -2.30756,-4.39623 -1.5783,-2.706074 -2.55111,-4.453155 -2.58366,-4.64 -0.12581,-0.722154 -3.77016,-6.539533 -4.3031,-6.868906 -0.16836,-0.104051 -1.17858,-1.265308 -2.24494,-2.580572 -1.89666,-2.339373 -3.5372,-5.738855 -3.35421,-6.950522 0.0466,-0.308787 -0.11805,-0.56 -0.36711,-0.56 -0.95073,0 -0.35924,-1.172214 1.211,-2.4 1.80303,-1.409792 4.53646,-4 4.22119,-4 -0.10991,0 0.14613,-0.468 0.56897,-1.04 2.36862,-3.20409 4.03308,-10.111245 3.81507,-15.83167 -0.0734,-1.925092 1.27236,-7.889193 2.25826,-10.00833 1.52899,-3.286479 5.53323,-7.494992 8.27382,-8.695905 0.792,-0.34705 3.024,-1.139256 4.96,-1.760458 3.52077,-1.129703 5.19807,-1.766859 6.4,-2.431169 0.352,-0.194551 1.144,-0.601303 1.76,-0.903895 0.616,-0.302591 1.46407,-0.9179519 1.8846,-1.3674687 0.74046,-0.7914931 0.74718,-0.8438886 0.21301,-1.6591363 -0.92735,-1.415313 -2.79781,-2.006544 -6.41761,-2.0285248 -2.93982,-0.017853 -4.37348,0.1995843 -6.08,0.9221219 -0.352,0.1490362 -1.34335,0.4339498 -2.203,0.6331415 -0.85966,0.1991913 -2.10183,0.6370502 -2.76038,0.9730195 -0.65856,0.3359693 -1.28721,0.5210227 -1.397,0.4112301 C 170.96983,8.6231635 170.88,8.7013334 170.88,8.9066666 170.88,9.112 170.72,9.28 170.52444,9.28 c -0.95247,0 -5.7237,3.358736 -7.37399,5.190957 -2.78524,3.09229 -3.33522,3.855097 -4.79393,6.649043 -0.43324,0.829812 -2.54523,6.821023 -2.87652,8.16 -0.17419,0.704 -0.45244,1.4168 -0.61835,1.584 -0.16591,0.1672 -0.30428,0.6712 -0.30751,1.12 -0.003,0.4488 -0.50722,2.033296 -1.12,3.521101 -0.61277,1.487805 -1.11414,2.900707 -1.11414,3.139782 0,0.894135 -1.69712,6.359811 -2.33143,7.508509 -0.64937,1.175962 -3.9813,3.766608 -4.84438,3.766608 -0.23964,0 -0.50998,0.193536 -0.60075,0.430077 -0.0908,0.236544 -1.04218,0.616221 -2.11424,0.843728 -1.07206,0.227504 -1.9492,0.557536 -1.9492,0.733401 0,0.300717 -1.229,0.279127 -12.64,-0.222073 -7.3237,-0.321674 -14.793,-0.152733 -18.71788,0.423366 -2.88937,0.424109 -4.19809,0.495587 -4.72,0.257792 -3.16024,-1.439904 5.46566,-2.876243 16.55788,-2.757126 18.46952,0.198339 20.93914,0.0816 23.49488,-1.11056 1.95284,-0.910925 3.87303,-2.619952 4.17809,-3.718605 0.39986,-1.440128 3.10947,-10.007664 4.2103,-13.312569 0.5922,-1.777913 1.07673,-3.465027 1.07673,-3.749143 0,-0.934204 3.69838,-8.637217 4.88691,-10.178468 2.05108,-2.659812 2.79212,-3.488281 4.51184,-5.044133 1.86351,-1.68595 5.47181,-4.195687 6.03221,-4.195687 0.16046,0 0.75013,-0.3434579 1.31039,-0.7632397 1.28609,-0.9636221 4.29844,-1.917536 8.27773,-2.6212912 5.85499,-1.0354809 12.13561,-0.2115446 12.88921,1.6908999 0.49796,1.2570598 0.48965,2.7176889 -0.0202,3.554683 -0.61499,1.009568 -3.72876,3.110998 -5.09525,3.438699 -0.52406,0.125673 -1.10621,0.348189 -1.29369,0.494479 -0.18748,0.14629 -1.62748,0.693968 -3.2,1.217061 -7.24065,2.408574 -8.2705,3.029988 -11.19984,6.758048 -1.17145,1.490864 -2.25892,2.75896 -2.4166,2.817992 -0.15767,0.05903 -0.21091,0.229929 -0.11831,0.37977 0.0926,0.149841 -0.13,1.037543 -0.49468,1.972669 -1.01684,2.607374 -1.35746,4.683463 -1.733,10.562569 -0.19727,3.088429 -0.79485,5.957136 -1.77085,8.501095 -0.35522,0.925888 -0.64585,1.937712 -0.64585,2.248502 0,0.695981 -2.83813,4.815622 -4.88939,7.097117 -2.26321,2.517241 -2.25849,2.747267 0.12878,6.264854 1.12233,1.653728 2.24461,3.011127 2.49394,3.016439 0.24933,0.0053 0.35702,0.105968 0.2393,0.223686 -0.11771,0.117718 0.0246,0.477718 0.31627,0.8 0.29166,0.322282 0.42864,0.585968 0.30441,0.585968 -0.12424,0 0.1266,0.468 0.55742,1.04 0.43082,0.572 1.52564,2.336 2.43294,3.92 2.0361,3.554736 1.84279,3.223539 3.99276,6.840726 0.98096,1.6504 1.78357,3.1264 1.78357,3.28 0,0.1536 0.144,0.279274 0.32,0.279274 0.176,0 0.32,0.36 0.32,0.8 0,0.44 0.11984,0.8 0.26631,0.8 0.33565,0 1.04357,2.252771 0.82105,2.6128 -0.0908,0.14696 -0.62464,0.265504 -1.18625,0.26343 -0.95681,-0.0035 -1.09591,-0.159699 -2.20884,-2.48 z M 78.834682,55.26663 c 0.101235,-0.403353 0.277593,-1.591353 0.391907,-2.64 0.386445,-3.545014 3.651427,-14.672646 4.576589,-15.597808 C 83.99943,36.83257 84.16,36.49663 84.16,36.282291 c 0,-0.531696 1.63575,-3.77631 1.970675,-3.908957 C 86.278803,32.314666 86.4,32.141062 86.4,31.987544 c 0,-0.475663 1.530118,-2.561915 2.30441,-3.141969 3.886835,-2.91178 6.868745,-0.934468 7.910662,5.24558 0.327184,1.940685 0.261894,14.603712 -0.08491,16.468845 -0.229693,1.235274 -0.60465,1.864835 -1.204019,2.021574 -0.640378,0.167463 -0.651184,0.06718 -0.573898,-5.325449 0.04332,-3.022867 0.174803,-5.929443 0.292182,-6.459053 0.24853,-1.121392 -0.457243,-7.849754 -0.91252,-8.699315 C 93.745424,31.376568 91.95161,29.76 91.537827,29.76 c -0.781283,0 -1.937427,0.806265 -2.242848,1.564108 -0.185283,0.45974 -0.605286,1.267892 -0.933344,1.795892 -0.328054,0.528 -0.526643,1.081731 -0.441305,1.230512 0.08533,0.148784 0.0044,0.580784 -0.179712,0.96 -0.481063,0.990486 -1.551418,4.336544 -1.807191,5.649488 -0.361446,1.855389 -1.508646,5.247901 -1.947782,5.76 -0.226384,0.264 -0.636109,1.344 -0.910496,2.4 -0.745469,2.868986 -2.308496,6.343814 -2.970944,6.604832 -1.116189,0.439795 -1.46345,0.314461 -1.269523,-0.458202 z"
     id="path5741"
     inkscape:connector-curvature="0"
     sodipodi:nodetypes="csccccscscccssccscccsccccccscsccccccccccccccccssccccsccccccccsccccsccscccssccccscccscccscscczzcsscsccccsccccscscscscccccccccsccccccccccccccssscsscccsssccccsccccccsccccccccscssccscsscscsccccccccccssscscccssscccsccccscscccccscccccccccsccccccscscsccccccscssscsccccccssssccscccsscsccscssccsccccccsccsscsscccccscscscccsscssscsccccscsscsscscscccccccsscsssccccsssscsssccccccccscsccsssscccssccssssccsccscsccssccscccsccscscccssccsccsscscccsscssssscccccssscscccsccssccccscscc" />
</svg>
