<?xml version="1.0" encoding="UTF-8" standalone="no"?>
<!-- Created with Inkscape (http://www.inkscape.org/) -->

<svg
   xmlns:dc="http://purl.org/dc/elements/1.1/"
   xmlns:cc="http://creativecommons.org/ns#"
   xmlns:rdf="http://www.w3.org/1999/02/22-rdf-syntax-ns#"
   xmlns:svg="http://www.w3.org/2000/svg"
   xmlns="http://www.w3.org/2000/svg"
   xmlns:sodipodi="http://sodipodi.sourceforge.net/DTD/sodipodi-0.dtd"
   xmlns:inkscape="http://www.inkscape.org/namespaces/inkscape"
   version="1.1"
   id="svg4595"
   width="258.88"
   height="158.72"
   viewBox="0 0 258.88 158.72"
   sodipodi:docname="sequence-cat.svg"
   inkscape:version="0.92.3 (2405546, 2018-03-11)">
  <metadata
     id="metadata4601">
    <rdf:RDF>
      <cc:Work
         rdf:about="">
        <dc:format>image/svg+xml</dc:format>
        <dc:type
           rdf:resource="http://purl.org/dc/dcmitype/StillImage" />
        <dc:title></dc:title>
      </cc:Work>
    </rdf:RDF>
  </metadata>
  <defs
     id="defs4599" />
  <sodipodi:namedview
     pagecolor="#ffffff"
     bordercolor="#666666"
     borderopacity="1"
     objecttolerance="10"
     gridtolerance="10"
     guidetolerance="10"
     inkscape:pageopacity="0"
     inkscape:pageshadow="2"
     inkscape:window-width="3832"
     inkscape:window-height="2084"
     id="namedview4597"
     showgrid="false"
     inkscape:zoom="10.797414"
     inkscape:cx="130.71065"
     inkscape:cy="68.368749"
     inkscape:window-x="0"
     inkscape:window-y="28"
     inkscape:window-maximized="0"
     inkscape:current-layer="svg4595" />
  <path
     style="fill:#000000;stroke-width:1"
     d="m 96.803795,152.70995 c -0.729827,-0.99797 -0.731197,-1.06917 -0.192205,-9.98995 0.20736,-3.432 0.431664,-7.67008 0.498458,-9.41795 0.118934,-3.11241 1.027619,-11.07293 1.372301,-12.02205 0.09588,-0.264 0.213027,-0.66818 0.260336,-0.89818 0.04731,-0.23 0.370803,-1.382 0.71887,-2.56 0.348067,-1.178 0.817895,-2.93382 1.044055,-3.90182 0.22616,-0.968 0.52892,-1.8968 0.67279,-2.064 0.14388,-0.1672 0.2616,-0.61757 0.2616,-1.00082 0,-0.84795 0.4927,-1.27842 1.76,-1.53766 1.74482,-0.35693 2.00287,0.16681 1.03498,2.10056 -0.90037,1.79884 -1.37975,3.57643 -1.88287,6.98192 -0.84185,5.69823 -1.24127,9.23413 -1.55437,13.76 -0.18873,2.728 -0.46782,5.464 -0.62021,6.08 -0.15239,0.616 -0.292068,2.39601 -0.3104,3.95557 -0.01834,1.55957 -0.08876,2.92757 -0.156503,3.04 -0.06774,0.11244 -0.224336,1.71643 -0.347981,3.56443 -0.123644,1.848 -0.354822,3.408 -0.513728,3.46667 -0.158905,0.0587 -0.288918,0.29526 -0.288918,0.52576 0,0.2305 -0.227776,0.5065 -0.506173,0.61333 -0.637705,0.24471 -0.510371,0.31559 -1.250032,-0.69581 z M 36.56,152.20483 c -0.396,-0.19613 -0.72,-0.51864 -0.72,-0.7167 0,-0.19806 -0.424502,-1.38953 -0.943334,-2.64772 -1.521143,-3.68881 -1.870743,-11.01311 -0.801687,-16.79576 0.25576,-1.38344 0.465021,-2.92641 0.465021,-3.42882 0,-1.15501 0.880246,-3.81028 1.492518,-4.50219 0.538839,-0.60891 2.136832,-1.02694 1.786797,-0.46741 -0.37167,0.59411 -0.480262,1.22263 -0.614003,3.55377 -0.07068,1.232 -0.258243,2.528 -0.41681,2.88 -0.77975,1.73099 -1.287699,14.88 -0.574816,14.88 0.135472,0 0.246314,0.31134 0.246314,0.69188 0,0.87429 1.017248,4.20701 1.358778,4.45164 0.43878,0.31428 0.56343,1.66824 0.194505,2.11277 -0.399181,0.48098 -0.480249,0.48035 -1.473283,-0.0115 z m 30.64,-0.96291 c 0,-0.41695 0.230269,-2.03695 0.511709,-3.6 0.768477,-4.26796 0.621798,-10.85461 -0.344762,-15.48192 -0.747901,-3.58048 -1.674275,-6.71594 -2.079984,-7.04 C 64.950944,124.8516 64,122.654 64,122.14588 c 0,-0.54173 0.760989,-0.92543 1.36,-0.68574 1.330272,0.5323 3.484733,5.33368 4.29864,9.57986 0.592214,3.0896 0.857747,12.62112 0.400832,14.38819 -0.138208,0.53449 -0.330774,1.90729 -0.427926,3.05065 -0.112631,1.32549 -0.35329,2.20802 -0.664093,2.43528 -0.268099,0.19604 -0.487453,0.52056 -0.487453,0.72116 0,0.2006 -0.288,0.36472 -0.64,0.36472 -0.459898,0 -0.64,-0.21333 -0.64,-0.75808 z m 82.304,-0.58592 c -0.2112,-0.2112 -0.384,-0.7067 -0.384,-1.10111 0,-0.39442 -0.12768,-0.79603 -0.28372,-0.89247 -0.53155,-0.32851 -1.38512,-6.97992 -1.37857,-10.74242 0.002,-1.32 -0.11802,-2.976 -0.26737,-3.68 -0.14936,-0.704 -0.43122,-2.864 -0.62636,-4.8 -0.63224,-6.27243 -3.11705,-20.24172 -3.84123,-21.59486 -0.17751,-0.33169 -0.32275,-0.89203 -0.32275,-1.24522 0,-1.54149 2.06871,-1.23336 2.4154,0.35978 0.1245,0.57217 0.42398,1.32434 0.66549,1.6715 0.24151,0.34716 0.43911,0.92778 0.43911,1.29027 0,0.36248 0.22388,1.44644 0.49751,2.40879 0.5066,1.78169 1.22246,4.3724 1.7656,6.38974 0.33654,1.24995 1.26422,6.67383 1.39567,8.16 0.0467,0.528 0.19077,1.824 0.32017,2.88 0.12939,1.056 0.28257,3.072 0.34039,4.48 0.11206,2.72888 0.37551,7.33462 0.65893,11.52 0.23404,3.45618 0.23587,3.40094 -0.14603,4.4 -0.36844,0.96381 -0.66327,1.08097 -1.24824,0.496 z m 33.17769,-3.376 c -0.22436,-0.66 -0.42339,-1.344 -0.44229,-1.52 -0.0189,-0.176 -0.1944,-0.69359 -0.39002,-1.15021 -0.93463,-2.18159 -2.62339,-13.0671 -2.62646,-16.92979 -10e-4,-1.496 -0.0892,-5.888 -0.19553,-9.76 -0.10743,-3.91084 -0.0556,-8.24899 0.1167,-9.76 0.17054,-1.496 0.61511,-5.528 0.98793,-8.96 0.37282,-3.432 0.82982,-7.536 1.01556,-9.12 0.34569,-2.948189 1.39446,-7.937734 1.80636,-8.593859 0.12642,-0.201379 0.27262,-0.676672 0.3249,-1.056208 0.15157,-1.100506 2.63519,-8.198771 3.1419,-8.979645 1.01529,-1.564634 1.9784,0.515328 1.04219,2.250749 -0.95054,1.761984 -3.03774,8.516157 -2.72755,8.826345 0.22066,0.220656 0.21962,0.458695 -0.003,0.739056 -0.31291,0.39368 -0.71354,2.041015 -0.91773,3.773562 -0.0519,0.44 -0.19308,1.592 -0.31383,2.56 -0.12075,0.968 -0.26086,2.264 -0.31134,2.88 -0.0505,0.616 -0.23737,2.56 -0.41532,4.32 -0.34081,3.3709 -0.81402,23.42268 -0.73251,31.04 0.043,4.01719 0.83398,11.12763 1.6356,14.70277 0.15573,0.69453 0.22108,1.36319 0.14523,1.48593 -0.0759,0.12273 0.0721,0.81834 0.32874,1.54579 0.32641,0.92516 0.37622,1.56047 0.16574,2.11407 -0.4378,1.15151 -1.16661,0.9694 -1.63505,-0.40856 z M 90.56,146.5363 c 0,-0.11739 -1.116,-0.94605 -2.48,-1.84146 -4.931376,-3.23723 -8.147386,-7.13593 -12.070918,-14.63331 C 73.240829,124.77174 72.64,122.4588 72.64,117.09197 c 0,-4.91503 0.382992,-7.88732 1.645718,-12.77197 0.523223,-2.024 1.160029,-4.832 1.415127,-6.24 0.255097,-1.408 0.700905,-3.293411 0.990688,-4.189802 0.445833,-1.379113 0.477904,-2.124576 0.208496,-4.846454 -0.301031,-3.041376 -0.399315,-3.343152 -1.803719,-5.53825 -1.649667,-2.578448 -1.994352,-3.801209 -1.692438,-6.003904 0.256765,-1.873308 1.375805,-3.28126 3.799946,-4.781008 1.815184,-1.123001 1.869849,-1.134784 3.52,-0.758681 1.909148,0.435133 3.259174,1.477229 4.609484,3.558099 1.227872,1.892186 1.743738,3.112982 1.893092,4.48 0.306236,2.802941 0.536323,4.027741 0.821836,4.374819 0.710685,0.86392 -0.503097,13.215434 -1.551209,15.785181 -0.107677,0.264 -0.240925,1.056 -0.296109,1.76 -0.121085,1.54468 -0.633629,4.60913 -1.301034,7.77873 -0.867251,4.11867 0.147895,12.35592 2.2357,18.14127 1.164217,3.22607 4.369094,6.42446 7.344422,7.32956 0.308,0.0937 0.56,0.46287 0.56,0.8204 0,1.00803 -2.056896,0.87939 -3.69888,-0.23133 -4.881955,-3.30241 -6.584675,-6.25319 -8.353581,-14.47661 -0.96608,-4.4912 -1.310765,-11.70575 -0.742061,-15.53202 0.208455,-1.4025 0.422128,-2.91 0.474826,-3.35 0.22233,-1.85624 0.86272,-4.42809 1.938266,-7.784182 1.088118,-3.395328 1.146195,-3.801946 1.150624,-8.055818 0.0044,-4.269517 -0.290973,-6.315446 -1.27706,-8.844451 -0.528003,-1.35416 -2.233084,-3.086429 -3.425273,-3.479885 -1.572298,-0.518906 -3.758477,0.597062 -5.02353,2.564336 -1.129011,1.755718 -1.043677,2.862445 0.371322,4.815792 0.541942,0.748128 0.985347,1.485488 0.985347,1.638579 0,0.153091 0.381587,0.882819 0.847968,1.621616 0.738486,1.169837 0.851178,1.695792 0.872826,4.073642 0.01366,1.501702 -0.151133,3.594371 -0.366224,4.650371 -0.215095,1.056 -0.469184,2.784 -0.564644,3.84 -0.178624,1.975978 -0.608956,3.99553 -1.090985,5.12 -0.710458,1.65734 -1.013603,2.83656 -1.645261,6.4 -0.834854,4.70976 -0.876714,10.7503 -0.09606,13.86306 0.694871,2.77072 3.236416,7.9883 5.122269,10.51559 0.418061,0.56026 0.760112,1.10654 0.760112,1.21396 0,0.10743 0.36,0.58357 0.8,1.05809 0.44,0.47452 0.8,0.9701 0.8,1.1013 0,0.49358 5.009472,5.25009 6.16,5.84894 0.66,0.34353 1.2,0.73585 1.2,0.87183 0,0.13598 0.18,0.24757 0.4,0.24798 0.778378,0.002 2.516771,1.77108 2.298528,2.33982 -0.227917,0.59394 -0.238752,0.59882 -1.498528,0.67556 -0.484,0.0295 -0.88,-0.0424 -0.880001,-0.15983 z m -66.24,-1.00069 c -2.055972,-0.66171 -4.892852,-2.93815 -5.76,-4.62208 -0.44,-0.85444 -1.112122,-1.98553 -1.493604,-2.51353 -1.106723,-1.53179 -2.220042,-9.45276 -2.325363,-16.54434 -0.08071,-5.43432 -0.120187,-5.50127 -4.571325,-7.75204 -3.1387333,-1.58713 -3.8350043,-2.07489 -4.2697768,-2.99111 -1.5514941,-3.26953 1.4998179,-5.51456 6.2301868,-4.58392 2.052035,0.40371 4.509882,1.47129 4.509882,1.95888 0,0.17189 0.144,0.31253 0.32,0.31253 0.660484,0 2.757995,2.50432 3.61824,4.32 1.890696,3.9906 2.223866,5.67705 2.323079,11.75907 0.101525,6.22372 0.232105,7.02561 1.406121,8.63495 1.606448,2.20211 2.453943,2.65154 4.904282,2.60078 1.840866,-0.0381 2.166419,0.0347 2.08336,0.46597 -0.21167,1.09911 -4.103714,1.37371 -5.375082,0.37923 -0.44,-0.34417 -0.927487,-0.62897 -1.083305,-0.63288 -0.445662,-0.0112 -1.692878,-1.47644 -2.666285,-3.13237 -0.868745,-1.47789 -0.891764,-1.64322 -0.946049,-6.79475 -0.08018,-7.60843 -0.25079,-8.85859 -1.574491,-11.53699 -0.625195,-1.26503 -1.414178,-2.59787 -1.753295,-2.96187 -0.339116,-0.364 -0.616575,-0.76187 -0.616575,-0.88416 0,-0.12228 -0.252,-0.30984 -0.56,-0.4168 -0.308,-0.10695 -1.226588,-0.61331 -2.041306,-1.12524 -1.085778,-0.68225 -1.940221,-0.94994 -3.2,-1.00256 -2.9843657,-0.12466 -3.3511135,-0.0469 -3.7330012,0.79123 -0.3134771,0.68801 -0.2468483,0.87633 0.5461213,1.54357 0.4967369,0.41798 1.3902893,0.94298 1.9856719,1.16667 2.547233,0.95703 3.676118,1.5108 4.510257,2.21247 1.664514,1.40019 2.494653,4.26588 2.245301,7.7509 -0.09093,1.27089 -0.0011,3.69492 0.199619,5.38674 0.200723,1.69182 0.427517,3.86804 0.503988,4.83604 0.245964,3.11351 0.573561,4.62512 1.144287,5.28 0.306768,0.352 0.993004,1.432 1.52497,2.4 1.488129,2.7079 4.425914,4.16 8.416205,4.16 0.948419,0 1.260973,0.14561 1.425541,0.66412 0.11593,0.36526 0.139584,0.73531 0.05256,0.82233 -0.348803,0.3488 -4.932148,0.38648 -5.980219,0.0492 z m 219.39399,-0.91517 c -0.11429,-0.71475 -0.12907,-2.19075 -0.0328,-3.28 0.0962,-1.08924 0.39248,-4.78844 0.65833,-8.22044 0.26585,-3.432 0.60639,-7.536 0.75677,-9.12 0.54813,-5.77366 0.0577,-24.056272 -0.80254,-29.92 -0.67578,-4.606202 -2.77013,-15.578336 -4.06191,-21.28 -0.54067,-2.386442 -0.64211,-3.38513 -0.399,-3.928173 0.56803,-1.268819 1.21234,-0.661817 1.96213,1.848531 1.49675,5.011191 1.76407,6.03418 1.68565,6.450688 -0.0668,0.354935 0.50418,2.539069 1.24155,4.748954 0.0881,0.264 0.20681,0.768 0.26382,1.12 0.34954,2.158141 0.58147,3.02016 1.12495,4.18103 0.335,0.715568 0.60909,1.678196 0.60909,2.139168 0,0.460976 0.15606,1.243514 0.3468,1.73897 0.41855,1.087178 0.86901,3.749091 1.10528,6.53135 0.0957,1.127216 0.24198,2.481482 0.32502,3.009482 0.66048,4.19964 0.77813,15.03326 0.1946,17.92 -0.30183,1.4932 -0.89369,5.05126 -1.14443,6.88 -0.0603,0.44 -0.42366,2.816 -0.80741,5.28 -0.38374,2.464 -0.81436,5.704 -0.95694,7.2 -0.14258,1.496 -0.30092,2.864 -0.35188,3.04 -0.051,0.176 0.0142,0.56321 0.1449,0.86047 0.13065,0.29726 0.0713,1.34126 -0.13189,2.32 -0.28317,1.36404 -0.50401,1.77953 -0.94584,1.77953 -0.42648,0 -0.63047,-0.33803 -0.78422,-1.29956 z M 175.104,138.176 c -0.2112,-0.2112 -0.384,-0.27503 -0.384,-0.14186 0,0.13318 -0.32004,0.018 -0.7112,-0.256 -0.39116,-0.27397 -0.96716,-0.49814 -1.28,-0.49814 -0.31284,0 -0.5688,-0.12653 -0.5688,-0.28118 0,-0.15464 -0.432,-0.46012 -0.96,-0.67882 -0.528,-0.2187 -0.96,-0.5067 -0.96,-0.64 0,-0.1333 -0.43557,-0.42277 -0.96793,-0.64328 -1.2205,-0.50555 -6.37242,-5.5697 -8.46088,-8.31672 -0.86973,-1.144 -1.66684,-2.152 -1.77134,-2.24 -0.10451,-0.088 -0.58504,-0.952 -1.06786,-1.92 -0.48283,-0.968 -1.00772,-1.976 -1.16644,-2.24 -0.15872,-0.264 -0.50721,-1.272 -0.77442,-2.24 -0.26721,-0.968 -0.83599,-2.984 -1.26396,-4.48 -0.42796,-1.496 -0.87855,-3.584 -1.0013,-4.64 -0.12276,-1.056 -0.30541,-2.64 -0.40588,-3.52 -0.41899,-3.66951 -0.14303,-6.06881 1.89549,-16.48 0.36184,-1.848 0.69295,-3.72 0.73579,-4.16 0.0429,-0.44 0.22919,-1.376 0.41408,-2.08 0.1849,-0.704 0.42613,-2 0.53607,-2.88 0.33615,-2.690576 1.49728,-9.570675 1.70117,-10.08 0.70698,-1.766045 1.10147,-16.178896 0.59856,-21.868166 -0.41797,-4.728192 -1.84504,-8.85968 -3.87347,-11.21392 -0.94563,-1.097527 -1.27708,-2.5928 -1.02567,-4.627191 0.26818,-2.170146 0.78633,-3.010708 2.59279,-4.206084 1.16117,-0.768378 1.99692,-1.074841 2.98802,-1.095692 1.25817,-0.02647 1.50525,0.110448 2.88656,1.599592 3.11653,3.359808 4.00256,5.155416 5.8283,11.811461 0.38622,1.408 0.83273,2.890774 0.99227,3.295056 0.15953,0.404282 0.29005,1.208237 0.29005,1.786566 0,0.57833 0.43654,2.407552 0.97008,4.064944 0.84851,2.635792 0.94408,3.294151 0.7626,5.253434 -0.11413,1.232 -0.40666,3.026253 -0.65009,3.987232 -0.24342,0.960976 -0.44259,2.988976 -0.44259,4.506666 0,1.517689 -0.0985,2.857932 -0.21888,2.978316 -0.12039,0.120388 -0.23748,0.828388 -0.2602,1.573335 -0.0227,0.744947 -0.2053,2.074451 -0.40575,2.954451 -0.37762,1.657878 -0.74439,3.633075 -1.33693,7.2 -1.02661,6.179866 -1.40013,10.691818 -1.16171,14.032989 0.34474,4.831101 0.42241,5.550633 0.76505,7.087011 0.17663,0.792 0.31111,1.8 0.29883,2.24 -0.0123,0.44 0.0608,1.016 0.1623,1.28 0.10155,0.264 0.42772,1.344 0.72484,2.4 0.48412,1.72064 1.18133,3.54685 1.71931,4.50341 0.86345,1.53528 2.44789,3.59327 3.5155,4.56621 1.96353,1.78942 2.21382,1.97038 2.72525,1.97038 0.66847,0 0.88538,0.47747 0.64749,1.42528 -0.16052,0.63958 -0.40476,0.81472 -1.13615,0.81472 -0.88521,0 -3.51735,-1.38481 -3.74675,-1.97122 -0.0593,-0.15156 -0.74328,-1.20367 -1.52,-2.33803 -0.77671,-1.13435 -1.4122,-2.20083 -1.4122,-2.36994 0,-0.16911 -0.108,-0.35548 -0.24,-0.41414 -0.21607,-0.096 -1.80731,-3.30841 -1.86284,-3.76069 -0.0125,-0.10229 -0.21048,-0.61798 -0.43984,-1.14598 -0.86397,-1.98896 -0.97375,-2.27539 -1.41039,-3.68 -0.65809,-2.11698 -1.10441,-4.11281 -1.32386,-5.92 -0.10686,-0.88 -0.38551,-3.04 -0.61923,-4.8 -0.35599,-2.680842 -0.35381,-3.771075 0.0135,-6.72 0.24111,-1.936 0.51644,-4.528 0.61184,-5.76 0.0954,-1.232 0.26095,-2.456 0.3679,-2.72 0.33018,-0.81504 1.0144,-6.29279 1.51889,-12.16 0.26483,-3.08 0.57407,-6.68 0.6872,-8 0.30467,-3.554893 0.2174,-10.695955 -0.15381,-12.587046 -0.17846,-0.909124 -0.48635,-2.578576 -0.68421,-3.709892 -0.51748,-2.958966 -2.01392,-5.886572 -4.11041,-8.041505 -2.2681,-2.331339 -3.46927,-2.351426 -4.63135,-0.07745 -0.72994,1.428355 -0.63835,2.867456 0.30139,4.735891 2.13351,4.241894 2.58204,6.172208 3.19397,13.74569 0.25661,3.175872 0.53504,6.20631 0.61873,6.73431 0.30604,1.930803 0.14973,5.820205 -0.32795,8.16 -0.26948,1.32 -0.55682,3.192 -0.63853,4.16 -0.21758,2.577498 -0.3303,3.374742 -0.92749,6.56 -0.29697,1.584 -0.66967,3.6 -0.82822,4.48 -0.15854,0.88 -0.36576,1.96 -0.46049,2.4 -0.15883,0.737779 -0.5081,2.658048 -0.98946,5.44 -0.49973,2.888224 -0.79517,4.525536 -1.27028,7.04 -0.28267,1.496 -0.50908,3.8 -0.50314,5.120002 0.0207,4.59235 2.62601,14.79679 4.21285,16.50062 0.3384,0.36335 0.62015,0.79535 0.62612,0.96 0.006,0.16466 0.28909,0.87538 0.62915,1.57938 0.34005,0.704 0.62317,1.4063 0.62914,1.56068 0.0198,0.51088 2.30661,4.99932 2.54714,4.99932 0.12976,0 0.68164,0.684 1.2264,1.52 1.41724,2.17492 2.94097,3.53299 7.11732,6.34349 3.61324,2.43156 4.08043,2.9776 3.60581,4.21445 -0.19504,0.50826 -0.80318,0.51669 -1.30181,0.0181 z M 48.16,127.14012 c -2.152736,-0.66934 -3.421114,-1.59904 -3.297744,-2.41719 0.127728,-0.84706 1.764368,-1.00648 3.915824,-0.38141 2.286582,0.66432 3.776006,0.58403 4.850941,-0.26152 0.503433,-0.396 0.950281,-0.648 0.992995,-0.56 0.04271,0.088 0.560992,-0.29589 1.151731,-0.85309 1.537799,-1.45049 2.211565,-1.487 2.496461,-0.13528 0.290176,1.37677 0.109962,1.86329 -1.153939,3.11533 -1.568435,1.55371 -6.250842,2.33434 -8.956269,1.49316 z m -8.497654,-4.51098 c -0.625712,-0.30203 -1.540717,-0.86967 -2.033351,-1.26143 -0.49263,-0.39175 -1.888688,-1.0321 -3.102345,-1.42298 -1.862215,-0.59977 -2.20665,-0.8228 -2.20665,-1.42883 0,-0.92757 0.456141,-1.18802 1.976342,-1.12845 1.525744,0.0598 3.07529,0.69253 5.280522,2.15628 1.877325,1.2461 2.479418,2.08277 2.179299,3.02836 -0.241696,0.76152 -0.613401,0.77164 -2.093817,0.0571 z m 7.255686,-0.23682 c -0.932397,-0.9324 -0.504816,-2.07232 0.777318,-2.07232 0.498784,0 0.985652,-0.12746 1.081933,-0.28324 0.318128,-0.51474 -0.555565,-2.41856 -1.632259,-3.55676 -1.099898,-1.16273 -1.341882,-2.03112 -0.679984,-2.4402 0.211773,-0.13088 1.663475,-0.24738 3.226006,-0.25888 l 2.840964,-0.0209 -0.155623,1.12 c -0.199821,1.43808 -0.941913,3.52 -1.254688,3.52 -0.132934,0 -0.241699,0.43652 -0.241699,0.97004 0,1.15525 0.685286,1.52513 1.76,0.94996 0.79168,-0.4237 1.93304,-0.21888 1.618288,0.29041 -0.100253,0.16221 -0.01773,0.34978 0.183414,0.41682 0.594992,0.19833 -1.095801,1.13011 -2.359769,1.30045 -0.71304,0.0961 -1.412333,-0.0148 -1.798333,-0.28516 -0.66505,-0.46582 -1.456115,-0.32251 -2.325568,0.42129 -0.449264,0.38434 -0.594118,0.37439 -1.04,-0.0715 z m 3.580602,-6.31375 c 0.07124,-0.36722 -0.07812,-0.46218 -0.53786,-0.34195 -0.392214,0.10256 -0.568451,0.34375 -0.459206,0.62844 0.22175,0.57787 0.865245,0.39297 0.997066,-0.28649 z m 11.429344,3.6678 c -0.713405,-0.1592 -1.422541,-0.96398 -1.437802,-1.63173 -0.0056,-0.24494 0.398314,-0.83573 0.897581,-1.31285 0.499267,-0.47713 1.314189,-1.40037 1.810941,-2.05164 1.044438,-1.36933 2.200262,-1.92617 4.576441,-2.20481 1.382218,-0.16208 1.731482,-0.10407 1.891994,0.31422 0.115277,0.3004 -0.03244,0.68065 -0.356448,0.91757 -0.304317,0.22252 -0.546451,0.5257 -0.53808,0.67373 0.0084,0.14803 -0.351402,0.36719 -0.799498,0.48703 -1.418265,0.3793 -4.933107,3.36594 -4.933107,4.19177 0,0.63485 -0.295734,0.79886 -1.112022,0.61671 z m -30.41611,-4.77557 c 0.122702,-0.65405 0.475355,-1.55405 0.783674,-2 0.512026,-0.74057 1.149799,-2.36843 1.966368,-5.01896 0.327876,-1.06427 0.909956,-1.48477 1.527216,-1.10328 0.2041,0.12614 0.387044,1.01282 0.406541,1.97039 0.02899,1.42329 -0.169657,2.12067 -1.088358,3.82105 -1.003434,1.8572 -2.661623,3.52 -3.510245,3.52 -0.182437,0 -0.217216,-0.48547 -0.0852,-1.1892 z m 8.238442,-2.21547 c -1.871539,-1.78854 -2.113276,-5.63547 -0.524713,-8.35009 1.149325,-1.96402 1.401817,-2.20134 2.628861,-2.47084 0.560012,-0.123 1.100352,-0.35656 1.200758,-0.51902 0.100406,-0.16246 0.597558,-0.29538 1.104784,-0.29538 0.507226,0 1.004378,0.13292 1.104784,0.29538 0.100406,0.16246 0.587165,0.38425 1.081686,0.49286 0.765818,0.1682 0.96273,0.44467 1.328087,1.86462 0.634889,2.46751 0.531062,4.01997 -0.389763,5.82795 -1.01488,1.99264 -3.156189,3.60802 -5.143853,3.88045 -1.270861,0.1742 -1.531581,0.095 -2.390631,-0.72593 z M 44.490467,110.16 c 0.677997,-0.484 1.387911,-1.21715 1.577581,-1.62922 0.337258,-0.73271 0.317008,-0.74451 -0.919059,-0.53568 -1.107459,0.1871 -1.376752,0.10159 -2.175431,-0.69078 -0.592428,-0.58775 -0.872576,-1.15636 -0.800278,-1.62432 0.06118,-0.396 -0.02621,-0.72 -0.194221,-0.72 -0.864416,0 -1.942752,3.40205 -1.510256,4.76472 0.186435,0.5874 1.364576,1.23138 2.360067,1.29002 0.235882,0.0139 0.9836,-0.37074 1.661597,-0.85474 z m 8.66137,1.22137 C 51.253757,109.50054 50.88,108.54625 50.88,105.58083 c 0,-2.34517 0.09231,-2.76144 0.825504,-3.72271 0.454026,-0.59526 1.375242,-1.42933 2.047149,-1.85348 1.067133,-0.673654 1.372995,-0.729402 2.418297,-0.440781 2.29337,0.633231 4.30905,3.495681 4.30905,6.119251 0,1.02385 -0.635094,3.48931 -0.967763,3.75689 -0.109405,0.088 -0.287722,0.40112 -0.396256,0.69582 -0.108535,0.2947 -0.710029,0.7791 -1.336659,1.07646 -0.626628,0.29735 -1.139322,0.65248 -1.139322,0.78917 0,0.13669 -0.525674,0.3099 -1.168163,0.38491 -1.001578,0.11693 -1.332419,-0.0264 -2.32,-1.00499 z m 3.972742,-1.9442 c 1.108461,-0.68506 1.923658,-2.21104 1.824058,-3.41447 -0.07801,-0.9426 -1.267229,-3.47677 -1.863952,-3.97201 -0.725847,-0.6024 -0.94321,-0.0393 -0.363591,0.94191 0.2901,0.49109 0.472452,1.31466 0.405226,1.83015 -0.06722,0.51549 -0.132147,1.04344 -0.144272,1.17324 -0.01213,0.12979 -0.600842,0.60136 -1.308259,1.04793 -1.02448,0.64673 -1.415181,0.74293 -1.92,0.47276 -0.793213,-0.42452 -0.79288,-0.2742 0.0022,1.03559 0.533645,0.879 0.966115,1.17223 2.206147,1.49583 0.06723,0.0175 0.590282,-0.25737 1.162349,-0.61093 z m 62.199701,2.28777 c -2.35682,-1.25075 -3.29316,-3.24494 -1.5236,-3.24494 0.63286,0 0.63208,-0.0152 -0.0502,-0.9734 -0.47183,-0.66262 -0.63009,-1.22453 -0.49569,-1.76 0.29209,-1.16378 1.7337,-1.00724 2.19265,0.23809 0.13157,0.357 0.44624,0.49742 0.91317,0.40749 0.92041,-0.17725 1.00447,-0.2756 2.17388,-2.54336 1.25274,-2.42936 1.31669,-4.097079 0.18553,-4.838247 -0.44,-0.288298 -0.8,-0.693616 -0.8,-0.900707 0,-0.207092 -0.50038,-0.907021 -1.11195,-1.555402 -1.25388,-1.32935 -1.71588,-2.591162 -1.0903,-2.977792 0.79548,-0.491638 8.35092,-0.814669 8.78978,-0.375808 0.75308,0.753075 -0.23434,3.264333 -1.87406,4.766195 -0.31648,0.289882 -0.54175,0.649882 -0.50057,0.8 0.0412,0.150119 -0.031,1.280941 -0.16039,2.512941 -0.31623,3.01094 0.12329,4.32 1.45043,4.32 0.52819,0 1.45525,-0.23485 2.06014,-0.52189 1.2548,-0.59544 1.47922,-0.48413 1.52455,0.75618 0.0236,0.64505 -0.31543,1.20945 -1.24763,2.07716 -1.76432,1.64226 -1.09275,1.48956 1.76,-0.40017 3.19887,-2.11902 3.74747,-2.10314 2.69094,0.0779 -0.67752,1.39859 -2.88986,3.00099 -5.33815,3.86643 -1.09603,0.38744 -2.04079,0.81243 -2.09946,0.94443 -0.0587,0.132 -1.37074,0.24 -2.91572,0.24 -2.47519,0 -3.01398,-0.10876 -4.53333,-0.91506 z M 127.2,109.71085 c 1.17878,-0.35521 1.21674,-0.40015 0.48,-0.56828 -1.19005,-0.27158 -1.71697,-0.69388 -2.52365,-2.02257 -0.4007,-0.66 -0.8248,-1.19822 -0.94245,-1.19604 -0.11764,0.002 -0.54631,0.51698 -0.95258,1.14401 -0.42593,0.65736 -1.29763,1.3903 -2.05885,1.73111 l -1.32018,0.59105 1.09886,0.49952 c 1.22666,0.55761 4.0438,0.47662 6.21885,-0.1788 z m -1.32855,-13.582792 c 0.68017,-0.933616 0.6531,-1.002151 -0.43145,-1.092359 -2.51752,-0.209398 -3.03968,0.118941 -2,1.257635 0.78163,0.856068 1.73455,0.791293 2.43145,-0.165276 z M 66.073267,109.59749 c -1.611501,-0.73913 -2.399241,-1.31307 -2.829414,-2.06147 -0.600919,-1.04545 -0.831107,-3.41998 -0.399274,-4.11871 0.368157,-0.59569 1.412483,-0.43972 1.629274,0.24333 0.283347,0.89274 3.504275,4.02638 4.608781,4.48388 0.84726,0.35095 1.301059,1.09947 1.312998,2.16574 0.0077,0.68531 -1.993795,0.35526 -4.322365,-0.71277 z m 40.552343,-1.23085 c -0.35372,-0.20165 -1.54634,-0.94264 -2.65029,-1.64664 -1.10394,-0.704 -2.10002,-1.28 -2.21351,-1.28 -0.1135,0 -0.84433,-0.30912 -1.62408,-0.68692 C 98.738253,104.075 94.557776,102.72 93.865206,102.72 c -0.880038,0 -0.837484,-2.01332 0.04975,-2.35379 0.522403,-0.20046 5.168144,1.03628 7.045044,1.87546 0.704,0.31477 1.47768,0.61301 1.71929,0.66277 0.92336,0.19015 2.28071,0.86528 2.28071,1.13438 0,0.15465 0.204,0.28118 0.45333,0.28118 0.24934,0 0.50134,0.108 0.56,0.24 0.0587,0.132 0.65479,0.64952 1.32471,1.15004 1.01486,0.75825 1.20168,1.07373 1.12,1.89138 -0.10848,1.0859 -0.74973,1.35966 -1.79243,0.76522 z M 31.545225,103.28 c -0.06308,-0.22 -0.346559,-1.05281 -0.629957,-1.8507 C 30.631871,100.63142 30.4,99.280125 30.4,98.426429 c 0,-0.853696 -0.165424,-2.104314 -0.36761,-2.779149 -0.287387,-0.959213 -0.278836,-1.333936 0.03918,-1.717126 0.560236,-0.67504 1.787342,-0.614426 2.475961,0.12231 C 32.86239,94.389318 34.416,95.340266 36,96.165683 c 3.429779,1.787245 3.68,1.974467 3.68,2.753498 0,0.928752 -1.837002,0.768179 -4.109213,-0.359181 -2.924877,-1.451184 -2.881981,-1.49263 -2.129824,2.05793 0.258416,1.21986 0.435917,2.22786 0.394445,2.24 -0.04147,0.0121 -0.397453,0.20207 -0.791066,0.42207 -0.393612,0.22 -0.866131,0.4 -1.050043,0.4 -0.183912,0 -0.385995,-0.18 -0.449074,-0.4 z m 31.633137,-4.660301 c 0.114713,-1.176835 0.288332,-2.546547 0.385824,-3.043801 l 0.177254,-0.904106 -1.07072,0.53993 c -0.588896,0.29696 -1.52215,0.967993 -2.073894,1.491184 -1.036346,0.98271 -2.33408,1.139526 -2.605831,0.314886 C 57.83337,96.539466 60.204211,94.15631 62.004189,92.983757 62.661885,92.555315 63.92,91.546736 64.8,90.742467 c 1.138464,-1.040486 1.830768,-1.439251 2.4,-1.382384 0.726883,0.07261 0.790442,0.196906 0.695427,1.359917 -0.122608,1.500746 -0.874832,4.376992 -1.517267,5.801517 -0.248416,0.550835 -0.614144,1.702835 -0.812733,2.56 -0.342726,1.479323 -0.417821,1.561513 -1.478352,1.618183 l -1.117286,0.0597 z M 139.84,100.17293 c 0,-0.574274 1.4792,-2.276271 3.11329,-3.582216 2.98867,-2.388503 5.06739,-3.85786 7.06175,-4.991636 2.30121,-1.308224 3.52587,-1.482256 3.08062,-0.437785 -0.12161,0.285289 -0.21083,0.770707 -0.19827,1.078707 0.0142,0.348538 -0.21133,0.56 -0.59728,0.56 -0.34106,0 -0.62011,0.144 -0.62011,0.32 0,0.176 -0.16409,0.32 -0.36465,0.32 -0.68123,0 -5.56107,3.419792 -6.65069,4.6608 -0.59642,0.679283 -1.356,1.276512 -1.68795,1.327171 -0.33196,0.05066 -0.91267,0.380093 -1.29047,0.732069 -0.89188,0.8309 -1.84624,0.83757 -1.84624,0.0129 z M 43.6,99.190029 c -0.986464,-0.396512 -0.904656,-1.218391 0.16,-1.607443 0.484,-0.176868 1.096,-0.411053 1.36,-0.520413 0.538554,-0.223095 0.44135,-0.194346 2.975613,-0.880074 2.093238,-0.566397 6.153245,-0.665385 7.427053,-0.181085 l 0.844332,0.321015 -0.730822,0.882454 c -0.706003,0.852483 -0.839933,0.883283 -3.943501,0.906867 -2.496921,0.01898 -3.603779,0.178612 -4.968157,0.716532 C 44.7888,99.591059 44.64048,99.60825 43.6,99.190029 Z m 47.786122,-0.837347 c -0.132765,-0.345978 0.378185,-1.308884 1.485763,-2.8 C 93.800349,94.302707 94.737853,92.992 94.955226,92.64 96.252224,90.539741 97.921712,85.736342 97.95505,84.008998 97.998061,81.780477 98.494794,80.64 99.422413,80.64 h 0.812777 l -0.21999,2.48 c -0.23752,2.677616 -0.627827,4.484534 -1.296045,6 -0.232813,0.528 -0.830873,1.896 -1.329024,3.04 -1.246678,2.862982 -4.347062,6.691702 -5.435894,6.712883 -0.201171,0.0039 -0.456823,-0.230176 -0.568115,-0.520201 z M 108,93.16063 c -0.352,-0.133795 -1.09505,-0.423241 -1.65122,-0.643216 C 105.23003,92.074928 103.68,90.082426 103.68,89.0868 c 0,-0.351341 -0.1602,-0.799005 -0.35601,-0.994813 -0.19581,-0.195805 -0.36991,-1.268605 -0.3869,-2.384 -0.0529,-3.472169 1.55747,-6.070579 5.01959,-8.099513 0.75875,-0.44466 1.62396,-0.808474 1.92269,-0.808474 0.29873,0 0.86438,-0.210477 1.25699,-0.467728 0.91565,-0.599955 3.8899,-0.453741 5.19049,0.255165 2.72732,1.486557 3.45276,2.768329 3.43521,6.069651 -0.0169,3.176829 -0.75252,5.049024 -2.73885,6.970403 -2.39959,2.32112 -7.23286,4.213642 -9.02321,3.533139 z m 3.07225,-2.645942 c 0.59826,-0.200925 1.31509,-0.560925 1.59295,-0.8 0.27786,-0.239078 0.77098,-0.434688 1.09583,-0.434688 0.32485,0 1.28028,-0.726883 2.12317,-1.615293 1.49762,-1.578496 1.91797,-2.585433 1.95554,-4.684457 0.0332,-1.855972 -0.10743,-2.264592 -1.20018,-3.486935 L 115.51913,78.24 l 0.80043,1.646474 c 0.95896,1.972544 0.96439,2.121148 0.14368,3.930217 -0.76937,1.695872 -1.66208,2.385168 -3.22481,2.49 -1.34941,0.09052 -2.7538,-0.983273 -3.1311,-2.394045 -0.22489,-0.840918 0.60521,-3.685939 1.277,-4.376646 0.552,-0.567552 0.29886,-0.840205 -0.42433,-0.457027 -1.13155,0.599549 -1.83681,1.545702 -2.97646,3.993104 -1.1203,2.405827 -1.20662,3.438201 -0.47905,5.729123 0.64693,2.037021 1.45246,2.423891 3.56776,1.713488 z m 2.76108,-12.628022 c -0.10633,-0.106333 -0.38233,-0.1177 -0.61333,-0.02525 -0.25527,0.10215 -0.17945,0.177977 0.19333,0.193331 0.33734,0.01389 0.52634,-0.06174 0.42,-0.168071 z m 16.16316,13.680451 c -2.03144,-0.785328 -3.75006,-3.63368 -4.25813,-7.05721 -0.30219,-2.036307 0.19551,-3.837177 1.71079,-6.190214 1.60271,-2.488803 3.28034,-3.151277 8.12844,-3.209824 1.31789,-0.0159 1.88468,0.153197 2.76572,0.825193 1.13173,0.863216 1.53631,1.936429 1.98428,5.263639 0.19328,1.435523 -0.52874,4.95303 -1.36322,6.641299 -0.73392,1.484826 -2.49471,2.899677 -4.53406,3.643261 -2.15691,0.786448 -2.59497,0.794733 -4.43382,0.08386 z M 134.72,89.031568 c 2.02528,-0.820032 3.02971,-2.386042 3.53508,-5.511568 0.28957,-1.790797 0.29795,-2.727418 0.033,-3.689888 -0.5704,-2.072346 -1.03326,-2.496778 -2.72282,-2.496778 -0.81692,0 -1.57372,0.08842 -1.68178,0.19648 -0.10807,0.108064 0.10577,0.58073 0.47518,1.050365 1.14716,1.458375 1.36586,2.862816 0.69097,4.437267 -0.97831,2.282308 -3.33245,3.384394 -5.15071,2.411296 -0.5343,-0.285948 -0.61896,-0.223145 -0.61896,0.459168 0,0.959204 0.4988,2.337373 1.04124,2.876916 1.11471,1.108755 2.1623,1.172281 4.39876,0.266742 z m 15.6246,-2.628781 c -3.32991,-2.205638 -6.22706,-5.81207 -7.29489,-9.080809 -0.33488,-1.025088 -0.32921,-1.285677 0.0329,-1.515101 0.81952,-0.519175 1.14806,-0.287175 2.45488,1.733533 1.27119,1.965619 6.13005,6.93959 6.77898,6.93959 0.17793,0 0.32351,0.16311 0.32351,0.362464 0,0.199357 0.30748,0.629139 0.68328,0.955069 0.56356,0.488781 0.61276,0.677561 0.28081,1.077536 -0.61194,0.737344 -1.66327,0.585011 -3.25949,-0.472282 z M 97.601411,76.8 C 95.87497,75.089952 93.44,71.503094 93.44,70.66999 93.44,70.345494 93.306458,70.08 93.143238,70.08 c -0.595129,0 -1.966665,-3.575069 -2.314128,-6.032038 -0.415257,-2.936372 -0.143289,-5.344071 0.503706,-4.459252 0.250048,0.341956 0.645075,0.475316 1.074963,0.362896 0.444074,-0.116128 1.323059,0.210628 2.535933,0.942714 1.02096,0.616243 3.440288,1.945034 5.376288,2.952864 5.19134,2.702474 8.13317,5.00727 7.73053,6.056534 -0.23439,0.610794 -1.42304,0.647476 -2.10533,0.06497 -1.1862,-1.012713 -7.472429,-4.732281 -9.038656,-5.348185 -0.938598,-0.369092 -1.933882,-0.8757 -2.211741,-1.125792 C 93.494019,62.413923 92.979926,63.371603 94.08,64.64 c 0.660678,0.76177 0.867194,1.92 0.342339,1.92 -0.456208,0 0.125715,1.698099 1.289891,3.764019 1.269821,2.253399 3.519904,4.783072 5.1487,5.788474 1.82929,1.129165 1.57903,2.127507 -0.53332,2.127507 -1.079312,0 -1.493008,-0.218518 -2.726199,-1.44 z M 210.56,76.604586 c -3.21525,-0.700042 -6.04725,-2.208042 -6.5911,-3.509674 -0.2469,-0.590896 -0.4489,-1.150982 -0.4489,-1.244634 0,-0.41215 1.35662,-0.105385 2.84914,0.644266 2.43687,1.223971 6.03559,1.823101 9.47086,1.576746 5.71846,-0.41009 8.77955,-1.45969 11.24782,-3.856704 0.61992,-0.602023 1.25026,-1.094586 1.40077,-1.094586 0.50168,0 0.66492,0.619459 0.32876,1.247571 -0.23223,0.433927 -0.22907,0.655191 0.0105,0.735043 0.1885,0.06283 -0.17265,0.660704 -0.80256,1.328599 -0.6299,0.667897 -1.14528,1.414006 -1.14528,1.658022 0,0.430266 -1.80601,1.072963 -6.24,2.220608 -2.7188,0.703703 -7.55251,0.845043 -10.08,0.294743 z M 140.87503,73.42543 c -0.21891,-0.391164 -0.009,-1.11046 0.7775,-2.660758 1.1484,-2.264442 1.59334,-3.941171 2.02339,-7.625126 0.1477,-1.265248 0.36274,-2.597248 0.47788,-2.96 0.12935,-0.407543 0.0674,-0.659546 -0.16219,-0.659546 -0.20434,0 -0.44684,0.288 -0.53889,0.64 -0.0921,0.352 -0.40393,0.64 -0.69307,0.64 -0.28913,0 -0.70556,0.288 -0.92539,0.64 -0.21982,0.352 -0.57846,0.644736 -0.79697,0.650525 -0.21851,0.0058 -0.96942,0.581792 -1.6687,1.28 -0.69927,0.698211 -1.39288,1.269475 -1.54135,1.269475 -0.14847,0 -0.74192,0.36 -1.3188,0.8 -0.57687,0.44 -1.14954,0.8 -1.27261,0.8 -0.12307,0 -0.61201,0.36 -1.08653,0.8 -1.05229,0.975741 -1.55902,1.011558 -1.83883,0.129968 -0.26773,-0.843536 0.91356,-2.149674 3.36953,-3.725658 0.968,-0.621158 1.832,-1.221564 1.92,-1.334236 0.088,-0.112672 0.56001,-0.459476 1.04891,-0.770679 0.48889,-0.3112 2.23497,-1.783875 3.88017,-3.272608 1.6452,-1.488733 3.26657,-2.706787 3.60303,-2.706787 0.83097,0 0.8946,1.233158 0.25682,4.97721 -0.27901,1.637875 -0.46945,3.168041 -0.4232,3.400371 0.0462,0.232329 -0.26157,1.852512 -0.68403,3.600406 -0.78022,3.228109 -1.83592,5.135904 -3.41418,6.169869 -0.61031,0.399827 -0.72808,0.390048 -0.99249,-0.08243 z m 70.77887,-1.735462 c -1.69187,-0.684435 -3.70281,-4.817565 -2.66394,-5.475258 0.85656,-0.542272 1.27548,-0.288425 1.89004,1.14529 0.52674,1.228832 0.75195,1.44 1.53573,1.44 0.63183,0 1.20918,-0.324576 1.84994,-1.04 0.8276,-0.924032 0.94432,-1.316538 1.04678,-3.52 0.0775,-1.667818 -6.4e-4,-2.48 -0.23857,-2.48 -0.19463,0 -0.31788,-0.108154 -0.27388,-0.240346 0.044,-0.132188 -0.88736,-1.212505 -2.06969,-2.400707 -1.41209,-1.419104 -2.0854,-2.327865 -1.96235,-2.648544 0.2295,-0.59807 1.29951,-1.205363 1.69409,-0.961497 0.15885,0.09817 0.78927,-0.116775 1.40094,-0.477668 0.61166,-0.360892 2.379,-1.00472 3.92741,-1.430729 2.86404,-0.787978 3.6496,-0.70881 3.6496,0.367798 0,0.679091 -1.74701,3.984976 -2.66882,5.050231 -0.44668,0.516195 -0.79428,1.020195 -0.77244,1.12 0.0219,0.0998 -0.0746,1.376841 -0.21427,2.837859 -0.21973,2.298163 -0.17935,2.73887 0.29947,3.267952 0.77531,0.856717 2.35521,1.291805 3.67606,1.012349 0.93067,-0.196903 1.25524,-0.505719 1.92,-1.826829 1.07923,-2.144794 1.77339,-2.123751 1.71881,0.0521 -0.0333,1.326093 -0.24873,1.921958 -1.12,3.097402 -1.41183,1.904713 -2.15017,2.271059 -4.60022,2.282528 -1.69456,0.0079 -2.16814,-0.114464 -2.82287,-0.729546 -0.77071,-0.724051 -0.79553,-0.726477 -1.22121,-0.11937 -0.47535,0.677946 -2.48344,1.996023 -2.99451,1.96554 -0.176,-0.0105 -0.61974,-0.140349 -0.9861,-0.288555 z m 6.1492,-14.343923 c 1.10099,-1.622397 1.0064,-1.974167 -0.4431,-1.647946 -0.66,0.148538 -1.67835,0.508941 -2.26299,0.800893 l -1.06299,0.530819 0.74299,0.80009 c 0.87835,0.945846 1.96979,1.435037 2.14609,0.961878 0.0677,-0.181709 0.46371,-0.832291 0.88,-1.445734 z M 191.94386,69.68 c -2.51907,-2.279162 -4.65352,-4.01632 -6.02386,-4.90264 -0.792,-0.512253 -1.512,-1.019584 -1.6,-1.127402 -0.34361,-0.420985 -8.42383,-4.423558 -8.64907,-4.284352 -0.13159,0.08132 -0.30277,-0.284928 -0.38041,-0.813891 -0.12483,-0.850557 -0.0284,-0.99096 0.83361,-1.214342 0.72694,-0.188368 1.34355,-0.07699 2.42532,0.438093 0.7978,0.379872 1.85868,0.78958 2.3575,0.910467 0.49883,0.120883 1.84554,0.790003 2.99271,1.486928 1.14716,0.696928 2.21392,1.267139 2.37058,1.267139 0.15665,0 0.66974,0.432 1.14019,0.96 0.47045,0.528 0.98243,0.96 1.13775,0.96 0.1553,0 0.61602,0.36 1.02379,0.8 0.40778,0.44 0.9142,0.8 1.12538,0.8 0.8436,0 3.51317,3.928467 3.53364,5.2 0.0142,0.882595 -1.0213,0.665274 -2.28713,-0.48 z m -77.23734,-0.261814 c -0.11619,-0.188 -0.3985,-0.269965 -0.62736,-0.182144 -0.40535,0.155548 -0.90847,-0.960288 -0.63355,-1.405114 0.24271,-0.392723 3.78619,-1.501533 6.12238,-1.915792 4.10465,-0.72785 9.27183,0.170947 9.00316,1.566038 -0.17524,0.909933 -1.81514,1.460656 -3.22716,1.083767 -1.89742,-0.506451 -5.57641,-0.251341 -7.51584,0.521168 -1.87686,0.747587 -2.80388,0.846201 -3.12163,0.332077 z m 118.88556,-3.359018 c -0.4722,-1.241981 -0.37816,-2.10528 0.36372,-3.339168 0.69078,-1.148877 4.63485,-5.163686 7.4842,-7.618432 2.00368,-1.726189 7.02177,-5.181568 7.52496,-5.181568 0.20696,0 0.79008,-0.244429 1.29582,-0.543178 1.16308,-0.687049 1.5312,-0.361993 0.65506,0.578432 -0.36769,0.394663 -0.74935,0.972253 -0.84815,1.283536 -0.0988,0.311284 -0.92845,1.024167 -1.84366,1.584186 -0.91522,0.560016 -2.25307,1.539946 -2.97301,2.177619 -0.71994,0.637674 -2.12966,1.879405 -3.13271,2.759405 -2.28594,2.00551 -5.22017,5.577558 -5.5011,6.696874 -0.18796,0.74888 -1.9121,2.423126 -2.49533,2.423126 -0.11975,0 -0.35816,-0.369373 -0.5298,-0.820832 z M 193.12,53.190259 c -2.00684,-1.271286 -3.25036,-3.045533 -3.66161,-5.22439 -0.59209,-3.136931 -0.57731,-3.801472 0.13505,-6.070765 0.80799,-2.573971 1.39438,-3.51201 3.49448,-5.590022 2.17133,-2.1485 2.98017,-2.617908 5.54553,-3.218356 2.47428,-0.579129 5.08709,-0.410809 6.42547,0.413933 1.70031,1.047773 3.86931,3.593245 4.24667,4.983757 0.54652,2.013789 0.19309,6.815498 -0.61389,8.340589 -1.11869,2.114157 -3.0381,4.720611 -3.23805,4.397088 -0.10538,-0.170519 -0.3717,0.09683 -0.59182,0.594112 -0.33909,0.766057 -0.67983,0.954976 -2.23102,1.236976 -1.00695,0.183056 -2.04681,0.345913 -2.31081,0.361907 -0.264,0.016 -1.776,0.108778 -3.36,0.206189 -2.47431,0.152169 -3.01523,0.09145 -3.84,-0.431018 z m 6.95422,-1.9588 c 2.60254,-0.617107 3.92102,-1.415785 6.02547,-3.649974 0.96665,-1.026243 1.21553,-1.562855 1.34375,-2.897258 0.17749,-1.847219 -0.25834,-5.947123 -0.67666,-6.365446 -0.15321,-0.15321 -0.60319,0.760115 -1.01648,2.063155 -0.66026,2.081674 -1.96051,4.010349 -2.78739,4.13455 -2.82713,0.424647 -4.09037,-0.162908 -4.96647,-2.309993 -0.3616,-0.886179 -0.36761,-1.377357 -0.0344,-2.810701 0.22206,-0.955274 0.52278,-1.822122 0.66826,-1.926326 0.14547,-0.104208 0.50662,-0.570388 0.80253,-1.035956 0.51262,-0.806515 0.50887,-0.854118 -0.0795,-1.007977 -1.21326,-0.317277 -3.26589,0.488518 -4.50998,1.770473 -1.15301,1.1881 -2.52333,4.078624 -2.52333,5.322666 0,0.316064 -0.108,0.68257 -0.24,0.814461 -0.27268,0.272448 -0.44802,1.634141 -0.46723,3.628438 -0.0208,2.162451 1.51585,4.040919 3.74723,4.580691 1.48085,0.358221 2.05138,0.320605 4.71422,-0.310803 z m -25.51063,0.614346 c -0.42869,-0.693632 0.23612,-2.319485 1.36574,-3.340026 0.65897,-0.595341 1.53194,-1.708688 1.93993,-2.474105 1.83527,-3.443066 2.16464,-4.005005 2.84633,-4.856228 0.39843,-0.4975 0.72441,-1.1095 0.72441,-1.36 0,-0.250496 0.12684,-0.455446 0.28187,-0.455446 0.15503,0 0.81822,-1.116 1.47375,-2.48 2.09247,-4.35392 3.17222,-6.48 3.29094,-6.48 0.0635,0 0.36695,0.134566 0.67427,0.299036 0.68305,0.365555 0.64487,1.782228 -0.0876,3.250487 -0.28228,0.565843 -0.51324,1.15496 -0.51324,1.309152 0,0.500151 -3.4752,7.552608 -3.77887,7.668717 -0.25823,0.09874 -1.96749,2.48599 -4.54113,6.342394 -0.44,0.659305 -1.04116,1.434761 -1.3359,1.723235 -0.7257,0.710256 -2.11561,1.216681 -2.34051,0.852784 z m 50.65654,-0.137146 c -2.1186,-0.61032 -4.33561,-1.734003 -5.58433,-2.83039 -1.90961,-1.676659 -2.61584,-6.06256 -1.51061,-9.381264 0.79871,-2.398279 3.3698,-5.418173 5.57159,-6.544163 1.21027,-0.618928 3.84708,-0.655866 4.97925,-0.06975 0.33218,0.171968 1.13981,0.409367 1.79472,0.527552 0.67672,0.122125 1.66703,0.65833 2.29406,1.242122 0.60681,0.564979 1.36628,1.186489 1.6877,1.381136 0.32142,0.194643 0.91725,1.000697 1.32407,1.791232 1.01993,1.98191 1.32399,7.364752 0.51259,9.074633 -0.5706,1.202464 -3.48264,3.785341 -4.69386,4.163287 -0.39342,0.122765 -0.80311,0.359622 -0.91043,0.526352 -0.32399,0.503344 -3.86336,0.580582 -5.46475,0.119253 z m 5.86005,-2.555942 c 2.30565,-1.028647 3.48106,-2.326154 3.84884,-4.248656 0.30634,-1.601303 0.13631,-4.002816 -0.40774,-5.759098 -0.35293,-1.139296 -2.64085,-3.168637 -4.52996,-4.017981 l -1.23001,-0.553014 0.22446,0.707232 c 0.12346,0.388979 0.25557,1.501837 0.29359,2.473018 0.0678,1.733068 0.0383,1.796905 -1.59643,3.445782 -1.99753,2.014874 -3.09554,2.179309 -5.12293,0.76719 -1.19172,-0.830057 -1.27861,-0.994844 -1.25989,-2.389366 0.0111,-0.823805 -0.085,-1.497824 -0.21353,-1.497824 -0.12851,0 -0.48785,0.665616 -0.79854,1.479142 -0.49547,1.29737 -0.51816,1.7516 -0.18471,3.696196 C 220.413,45.0612 221.49958,48 221.85759,48 c 0.0465,0 0.9436,0.305171 1.9935,0.678163 1.0499,0.372989 2.62891,0.787024 3.50891,0.920077 0.88,0.133053 1.69008,0.259882 1.80018,0.281837 0.1101,0.02195 0.9741,-0.305354 1.92,-0.72736 z m 18.29662,-4.493338 c -3.88946,-1.810893 -10.51789,-7.972537 -12.0441,-11.195936 -1.20642,-2.548001 -1.3581,-3.472329 -0.68093,-4.149503 0.62317,-0.623167 0.5846,-0.667653 2.19662,2.533546 1.25243,2.487122 6.70261,7.794117 9.99865,9.735967 1.03012,0.606899 2.09942,1.329465 2.37621,1.605705 0.74466,0.743188 0.95685,1.854656 0.39521,2.070176 -0.58731,0.225376 -0.30905,0.29985 -2.24166,-0.599955 z M 187.04022,27.72146 c -0.96812,-0.945196 -1.76022,-1.881196 -1.76022,-2.08 0,-0.198803 -0.18,-0.366718 -0.4,-0.373144 -0.22,-0.0064 -0.81691,-0.690426 -1.32646,-1.52 C 183.04399,22.918742 182.4042,21.88 182.1318,21.44 c -1.21484,-1.962257 -4.00726,-7.885917 -3.92205,-8.32 0.1369,-0.697465 0.71794,-0.98157 1.63025,-0.79713 0.44,0.08895 1.53553,0.232544 2.43451,0.319089 2.14432,0.206433 4.87836,0.730452 5.35024,1.025453 0.20639,0.129025 0.51925,0.259723 0.69525,0.29044 0.176,0.03072 1.112,0.344506 2.08,0.697309 0.968,0.352802 2.17288,0.7347 2.67752,0.848662 1.16979,0.264174 5.64103,3.098988 5.64186,3.576995 0.001,0.655907 -0.87683,1.112095 -1.72877,0.89827 -0.45684,-0.114658 -0.83061,-0.346199 -0.83061,-0.514536 0,-0.842284 -9.71244,-4.406196 -13.38779,-4.912554 -1.33672,-0.184163 -1.37922,-0.163987 -1.15521,0.548403 0.12792,0.406779 0.50042,1.241467 0.82779,1.85486 0.32736,0.613394 0.59783,1.261394 0.60103,1.44 0.005,0.296915 0.61877,1.300897 2.62409,4.294703 0.40155,0.599479 1.35537,1.706382 2.11959,2.459784 1.51593,1.494456 2.5939,3.259708 2.37563,3.890252 -0.28554,0.824864 -1.41967,0.346323 -3.12491,-1.31854 z M 236.48,24.745197 c 0,-0.470142 0.19513,-1.082142 0.43363,-1.36 0.54574,-0.635824 1.90477,-3.213632 2.79692,-5.305197 1.85093,-4.339346 4.35072,-8.7426182 5.14725,-9.0666666 0.14421,-0.058667 0.2622,-0.2473129 0.2622,-0.4192137 0,-0.4656816 -1.83061,-0.089222 -2.41685,0.4970179 -0.27988,0.2798742 -0.67858,0.5120643 -0.88601,0.5159779 C 241.60972,9.6110291 241.08,9.8958269 240.64,10.24 c -0.44,0.344173 -1.1155,0.628971 -1.50111,0.632884 -0.38562,0.0039 -0.78521,0.143182 -0.88799,0.309484 -0.23605,0.381937 -5.52821,2.897632 -6.09562,2.897632 -0.23207,0 -0.46995,0.108 -0.52861,0.24 -0.14175,0.31893 -1.77837,1.452446 -3.03635,2.102962 -0.55533,0.287165 -1.20333,0.711368 -1.44,0.942674 -0.75184,0.734781 -1.99842,1.514364 -2.42152,1.514364 -1.3021,0 0.26789,-2.105232 3.16752,-4.247408 1.30756,-0.965998 7.33538,-4.072592 7.90217,-4.072592 0.19883,0 0.36151,-0.108848 0.36151,-0.241884 0,-0.133037 0.468,-0.4405054 1.04,-0.6832638 0.572,-0.2427584 2.35029,-1.0699104 3.95176,-1.8381156 C 242.75322,7.0285315 244.23429,6.4 244.44302,6.4 c 0.20872,0 0.69843,-0.2047789 1.08824,-0.455064 0.38981,-0.2502851 1.38387,-0.5533056 2.20903,-0.6733786 l 1.50029,-0.2183145 -0.35274,1.1493369 c -0.19401,0.6321351 -0.59766,1.4122272 -0.897,1.7335376 -0.29935,0.3213101 -0.71281,0.899129 -0.91881,1.2840416 -0.206,0.3849127 -0.58548,0.699841 -0.84329,0.699841 -0.25781,0 -0.46874,0.224639 -0.46874,0.499197 0,0.274559 -0.504,1.159266 -1.12,1.966017 -0.616,0.806751 -1.12449,1.698112 -1.12999,1.980803 -0.005,0.282691 -0.36475,1.089983 -0.79836,1.793983 -0.4336,0.704 -0.78911,1.4679 -0.79001,1.697556 -0.005,1.23059 -3.20208,6.742092 -4.24836,7.323444 -1.0342,0.574638 -1.19328,0.516541 -1.19328,-0.435803 z m -31.6,-5.227429 c -0.396,-0.163429 -0.72,-0.362007 -0.72,-0.441284 0,-0.445953 0.43304,-1.156484 0.70484,-1.156484 0.174,0 0.72024,-0.287584 1.21386,-0.639076 1.69568,-1.207428 8.07087,-1.504636 12.4013,-0.578142 1.54361,0.330254 1.68,0.432558 1.68,1.260109 0,1.069258 -1.42607,2.018967 -2.29852,1.530723 -0.97415,-0.545165 -4.57838,-1.133115 -6.50148,-1.060573 -1.056,0.03983 -2.568,0.310236 -3.36,0.600896 -2.11515,0.776248 -2.33053,0.809648 -3.12,0.483831 z"
     id="path5148"
     inkscape:connector-curvature="0" />
</svg>
