<?xml version="1.0" encoding="UTF-8" standalone="no"?>
<!-- Created with Inkscape (http://www.inkscape.org/) -->

<svg
   xmlns:dc="http://purl.org/dc/elements/1.1/"
   xmlns:cc="http://creativecommons.org/ns#"
   xmlns:rdf="http://www.w3.org/1999/02/22-rdf-syntax-ns#"
   xmlns:svg="http://www.w3.org/2000/svg"
   xmlns="http://www.w3.org/2000/svg"
   xmlns:sodipodi="http://sodipodi.sourceforge.net/DTD/sodipodi-0.dtd"
   xmlns:inkscape="http://www.inkscape.org/namespaces/inkscape"
   version="1.1"
   id="svg6967"
   width="240.32001"
   height="156.16"
   viewBox="0 0 240.32001 156.16"
   sodipodi:docname="mapcat-identity.svg"
   inkscape:version="0.92.3 (2405546, 2018-03-11)">
  <metadata
     id="metadata6973">
    <rdf:RDF>
      <cc:Work
         rdf:about="">
        <dc:format>image/svg+xml</dc:format>
        <dc:type
           rdf:resource="http://purl.org/dc/dcmitype/StillImage" />
        <dc:title></dc:title>
      </cc:Work>
    </rdf:RDF>
  </metadata>
  <defs
     id="defs6971" />
  <sodipodi:namedview
     pagecolor="#ffffff"
     bordercolor="#666666"
     borderopacity="1"
     objecttolerance="10"
     gridtolerance="10"
     guidetolerance="10"
     inkscape:pageopacity="0"
     inkscape:pageshadow="2"
     inkscape:window-width="3832"
     inkscape:window-height="2084"
     id="namedview6969"
     showgrid="false"
     inkscape:zoom="7.7600875"
     inkscape:cx="147.96508"
     inkscape:cy="105.02439"
     inkscape:window-x="0"
     inkscape:window-y="28"
     inkscape:window-maximized="0"
     inkscape:current-layer="svg6967" />
  <path
     style="fill:#000000;stroke-width:1"
     d="m 155.84001,150.72387 c -1.144,-0.1493 -3.376,-0.36872 -4.96,-0.48759 -1.584,-0.11887 -3.312,-0.26162 -3.84,-0.31723 -0.528,-0.0556 -2.904,-0.12235 -5.28,-0.14831 -2.376,-0.0259 -5.112,-0.18214 -6.08,-0.34707 -5.90537,-1.00611 -8.4621,-1.3529 -10.88,-1.47573 -3.36805,-0.1711 -4.96959,-0.4944 -9.44001,-1.90567 -6.5113,-2.05555 -7.3554,-2.30167 -8.64,-2.51923 -1.37137,-0.23226 -4.32,-1.68875 -4.32,-2.1339 0,-0.14803 -0.25231,-0.26914 -0.56068,-0.26914 -0.74864,0 -3.373847,-2.47621 -4.088945,-3.85687 -1.387331,-2.67854 -0.298374,-5.90545 2.654225,-7.86527 1.77705,-1.17954 1.85442,-1.19831 5.02014,-1.21793 3.52153,-0.0218 4.18473,0.0806 5.32847,0.82267 2.3046,1.49532 8.06622,3.59817 13.40804,4.89361 0.26469,0.0642 1.05669,0.26277 1.76,0.44129 3.61122,0.91661 24.81385,1.05154 30.55876,0.19446 5.87295,-0.87618 10.49341,-1.75723 14.88,-2.83741 1.056,-0.26004 2.424,-0.53829 3.04,-0.61835 1.34744,-0.17512 1.73302,-0.26334 5.16547,-1.18185 1.47099,-0.39364 2.74653,-0.80705 2.83453,-0.91871 0.30438,-0.38618 5.10802,-2.25564 5.79594,-2.25564 1.10684,0 7.65228,-3.72235 9.44443,-5.37099 0.9022,-0.82995 2.0206,-1.83415 2.48534,-2.23153 0.87898,-0.75162 4.72428,-6.50523 6.57464,-9.83748 1.13241,-2.0393 1.46737,-2.38729 2.30541,-2.3951 1.01314,-0.009 0.92559,1.01732 -0.28227,3.31036 -0.66192,1.25661 -1.29077,2.35674 -1.39745,2.44474 -0.10667,0.088 -1.16507,1.6369 -2.35199,3.442 -1.18692,1.8051 -2.3257,3.3891 -2.53063,3.52 -0.20494,0.1309 -0.97238,0.96586 -1.70545,1.85546 -0.73306,0.8896 -1.8808,1.8976 -2.55052,2.24 -0.66973,0.3424 -1.42291,0.81529 -1.67375,1.05086 -0.67053,0.62975 -9.6321,4.86805 -10.7537,5.08588 -0.528,0.10254 -1.03308,0.29578 -1.12239,0.42943 -0.0893,0.13364 -1.52931,0.62638 -3.2,1.09497 -1.67069,0.4686 -3.46961,1.04385 -3.99761,1.27834 -1.69747,0.75385 -5.0579,1.6994 -7.36,2.07093 -1.232,0.19883 -2.96,0.56366 -3.84,0.81073 -2.50023,0.70199 -5.55456,1.35726 -8,1.7163 -2.36472,0.3472 -8.54363,0.81833 -9.89345,1.08149 -3.54388,0.6909 -6.56262,0.53065 -8.895,0.49326 -2.60952,-0.0418 -6.5028,0.39783 -7.26139,-0.071 -0.18419,-0.11383 -1.67033,-0.27869 -3.30253,-0.36635 -3.00389,-0.16132 -6.3907,-0.95081 -8.72764,-2.03448 -1.90558,-0.88364 -3.32057,-1.49051 -5.28,-2.26451 -0.968,-0.38237 -2.912,-1.25739 -4.32,-1.94449 -2.41685,-1.17942 -2.68321,-1.23952 -4.76359,-1.07472 -2.68304,0.21254 -3.53003,0.62529 -5.26804,2.56715 -1.320718,1.47563 -1.336222,1.51981 -0.8217,2.34138 0.56846,0.90772 3.01925,3.22426 3.41969,3.23238 0.1355,0.003 0.7835,0.34263 1.44,0.75528 1.16232,0.73059 4.22927,1.90966 5.19364,1.99666 0.48602,0.0438 5.86416,1.75343 8.0936,2.57276 0.66749,0.2453 2.68349,0.59211 4.48001,0.77069 1.79652,0.17858 4.4184,0.47001 5.8264,0.64762 1.408,0.17761 3.424,0.38974 4.48,0.4714 4.24415,0.32821 6.16759,0.5186 8,0.7919 7.63243,1.13835 27.422,1.42922 29.04379,0.4269 0.14645,-0.0905 1.37551,-0.35351 2.73124,-0.58444 8.99064,-1.53143 9.20136,-1.58582 13.75583,-3.55046 0.57797,-0.24932 1.1994,-0.45331 1.38097,-0.45331 7.50757,-3.01694 10.33733,-6.64702 16.70275,-11.09824 1.87263,-1.30233 6.44156,-5.80375 9.02542,-8.89206 0.704,-0.84144 1.72201,-2.05185 2.26224,-2.6898 0.54024,-0.63794 1.83624,-2.2399 2.88,-3.5599 1.04377,-1.32 2.28447,-2.82411 2.75712,-3.34246 0.47264,-0.51836 1.02944,-1.31036 1.23733,-1.76 0.4773,-1.03235 0.69726,-1.45135 2.60951,-4.97072 0.85969,-1.5822 1.83065,-3.167 2.1577,-3.52178 2.1762,-2.36071 4.23352,-8.395936 4.14688,-12.16504 -0.0282,-1.228365 0.14127,-2.265818 0.47057,-2.88 0.59231,-1.104736 0.71885,-7.06519 0.1979,-9.321331 -0.1678,-0.72673 -0.37833,-1.95073 -0.46783,-2.72 -0.60964,-5.239693 -2.76413,-10.989914 -5.82556,-15.548138 -1.02622,-1.527968 -2.15386,-3.082624 -2.50586,-3.454793 -0.352,-0.372167 -1.68538,-1.836829 -2.96306,-3.254807 -1.27769,-1.417974 -2.93369,-2.992765 -3.68,-3.499533 -0.74632,-0.506768 -1.71694,-1.248214 -2.15694,-1.647654 -0.44,-0.39944 -1.268,-0.896368 -1.84,-1.104285 -0.572,-0.207913 -1.04,-0.501597 -1.04,-0.65263 0,-0.151031 -0.13239,-0.192778 -0.2942,-0.09277 -0.16181,0.100007 -0.52685,-0.05082 -0.8112,-0.335164 -0.28435,-0.284349 -2.20395,-1.3837 -4.2658,-2.443008 -5.98692,-3.075885 -7.00088,-3.568404 -12.96335,-6.296804 -7.73022,-3.419385 -15.27316,-6.445946 -22.94545,-8.197912 -2.024,-0.463689 -3.968,-0.907012 -4.32,-0.98516 -6.05976,-1.345354 -21.86702,-2.270528 -28,-1.638798 -6.30131,0.649069 -6.41111,0.680226 -5.34712,1.517167 0.44443,0.349591 0.99415,0.63562 1.22159,0.63562 0.30563,0 0.31986,0.09367 0.0545,0.358994 -0.19745,0.197446 -0.29317,0.530532 -0.21271,0.74019 0.0804,0.209659 -0.1468,0.64643 -0.50501,0.970603 -0.60729,0.549592 -0.69081,0.553632 -1.23648,0.05981 C 131.57295,30.958318 131.13773,30.72 130.92766,30.72 c -0.21008,0 -1.04599,-0.612 -1.8576,-1.36 -1.46063,-1.346163 -1.49882,-1.35962 -3.75285,-1.322653 -1.25246,0.02054 -3.4292,0.332168 -4.8372,0.692505 -1.40801,0.360336 -3.43338,0.750579 -4.50085,0.867206 -2.10229,0.561609 -3.03079,0.7096 -3.83551,0.802942 -0.322,0 -0.37189,-0.192271 -0.18266,-0.703828 0.19452,-0.525825 0.85469,-0.885309 2.61034,-1.421402 1.29249,-0.394665 2.47576,-0.639835 2.62949,-0.544823 0.15373,0.09501 0.54042,-0.06337 0.8593,-0.35195 0.31888,-0.288584 0.7058,-0.495437 0.85983,-0.459673 0.15403,0.03576 0.66248,-0.09351 1.1299,-0.287265 1.15576,-0.479101 5.31846,-0.982893 8.43016,-1.020263 1.408,-0.01691 3.856,-0.183912 5.44,-0.371119 1.584,-0.187206 3.528,-0.386196 4.32,-0.4422 0.792,-0.056 1.70932,-0.208403 2.0385,-0.338664 1.82694,-0.722948 24.35461,1.158877 27.4015,2.288955 0.264,0.09792 0.94516,0.23848 1.5137,0.312364 8.32841,1.026139 14.21705,5.093614 22.0063,7.766918 4.50067,1.516284 15.6743,7.05063 23.62389,11.701004 3.62465,2.120359 3.81027,2.263079 6.28421,4.831946 4.11303,4.270861 4.68289,4.988662 8.0024,10.08 0.87532,1.342534 2.28219,4.515533 3.07469,6.934515 1.07411,3.278576 2.64501,13.234183 2.6653,16.89136 0.0146,2.633571 -2.10935,13.193207 -2.8312,14.075789 -0.15219,0.186086 -0.43502,0.930586 -0.62852,1.654436 -0.19349,0.72386 -0.71157,1.84625 -1.15128,2.49421 -0.43972,0.64796 -0.79949,1.25263 -0.79949,1.34372 0,0.29246 -1.69892,3.80013 -1.9209,3.96597 -0.11779,0.088 -0.73998,0.988 -1.38265,2 -0.64268,1.012 -1.28741,1.84 -1.43275,1.84 -0.14534,0 -0.462,0.504 -0.7037,1.12 -0.2417,0.616 -0.55288,1.12 -0.69151,1.12 -0.13863,0 -0.47144,0.42424 -0.73958,0.94276 -0.26813,0.51852 -0.8456,1.34652 -1.28324,1.84 -1.27585,1.43861 -1.36077,1.55209 -2.53488,3.38752 -0.61534,0.96193 -1.342,1.83462 -1.6148,1.9393 -0.27279,0.10469 -0.49756,0.37485 -0.49947,0.60038 -0.004,0.52637 -3.12267,3.79574 -5.58386,5.85454 -1.04903,0.87753 -2.83812,2.4595 -3.97575,3.5155 -5.55001,4.13397 -9.73071,9.09789 -15.63811,11.81645 -0.83534,0.33904 -2.0814,0.96711 -2.76902,1.39571 -1.09126,0.6802 -5.02223,1.86434 -7.14892,2.15351 -2.17359,0.29555 -3.60602,0.5756 -5.01894,0.98126 -0.86795,0.24919 -2.30795,0.45387 -3.2,0.45486 -0.89206,9.6e-4 -2.12592,0.14005 -2.74192,0.30905 -0.616,0.16901 -2.344,0.37272 -3.84,0.45271 -1.496,0.08 -4.088,0.21886 -5.76,0.30861 -1.672,0.0898 -3.976,0.041 -5.12,-0.10829 z m -52.21387,-38.8844 c -0.0635,-0.0635 -2.56131,-0.19585 -5.550766,-0.29419 -6.01874,-0.19797 -9.041674,-0.71134 -12.633306,-2.14543 -3.958125,-1.58042 -4.990701,-2.31089 -5.53826,-3.91788 -0.451779,-1.3259 -0.439721,-1.48745 0.205904,-2.75874 0.377181,-0.74271 1.046797,-1.60272 1.488039,-1.91115 1.155382,-0.80763 6.28152,-2.195114 9.432918,-2.5532 3.150941,-0.358035 5.097428,-0.838384 6.124593,-1.511408 1.076998,-0.705677 1.943264,-0.796806 8.241048,-0.866954 5.88267,-0.06553 6.60065,0.08642 5.67555,1.201101 -0.27274,0.328634 -0.23572,0.536403 0.1531,0.859088 0.46812,0.388509 0.46313,0.461968 -0.0572,0.842458 -0.319,0.233254 -1.42395,0.417622 -2.5089,0.418621 -1.06636,9.6e-4 -2.44284,0.133708 -3.05884,0.294947 -0.616,0.161241 -3.208,0.398819 -5.759996,0.527957 -2.552,0.12914 -5.072,0.26451 -5.6,0.30083 -1.054999,0.0726 -4.288867,1.0545 -7.52,2.28335 -1.440839,0.54797 -2.299245,1.1003 -2.793479,1.79741 -0.712195,1.00454 -0.712339,1.00757 -0.07875,1.68199 0.957584,1.0193 3.751575,1.75639 7.42057,1.95763 1.810413,0.0993 4.136627,0.38993 5.169363,0.64585 2.89841,0.71825 5.387142,0.78941 8.113702,0.23201 1.65262,-0.33785 4.746,-0.5472 9.20859,-0.6232 9.54896,-0.16264 11.91969,-0.45706 14.49681,-1.80035 1.15101,-0.59994 2.24809,-1.35929 2.43797,-1.68743 0.18988,-0.32814 0.59231,-0.85634 0.8943,-1.17377 0.30198,-0.31744 0.92947,-1.32784 1.39441,-2.24535 0.46493,-0.91751 1.04585,-1.86871 1.29093,-2.113785 0.24507,-0.245075 0.44559,-0.585325 0.44559,-0.756112 0,-0.724214 1.2288,-1.623139 1.91923,-1.404006 0.94713,0.300608 0.7459,1.017155 -1.63498,5.821743 -3.20995,6.47767 -4.89656,7.70334 -10.88756,7.91211 -1.47218,0.0513 -4.4047,0.25413 -6.5167,0.45074 -3.93158,0.36599 -13.76637,0.74261 -13.97386,0.53512 z m -70.026139,-9.57661 c 0,-0.77431 0.864932,-1.37936 2.955156,-2.06723 4.341056,-1.428596 6.033152,-1.669355 12.724845,-1.810539 5.534679,-0.116774 6.999191,-0.04568 9.36993,0.454848 1.545463,0.326291 2.901463,0.684787 3.013335,0.796659 0.344412,0.344413 -0.08149,0.537562 -1.285111,0.582812 -0.63384,0.0238 -1.08784,0.14783 -1.008893,0.27558 0.268615,0.43462 -1.062614,0.54975 -2.76952,0.23951 -0.936205,-0.17016 -4.586141,-0.25319 -8.110967,-0.18452 -6.18959,0.1206 -6.513878,0.15984 -9.481872,1.14744 -3.373264,1.12246 -3.957843,1.22303 -3.618842,0.62258 0.180663,-0.32 0.139642,-0.32 -0.205117,0 -0.584476,0.54251 -1.582944,0.50646 -1.582944,-0.0571 z m 45.200002,-4.68103 c -0.572,-0.121548 -1.04,-0.144867 -1.04,-0.05182 0,0.09305 -0.278288,-0.08267 -0.618419,-0.390483 -1.081418,-0.978669 -0.285398,-2.093802 1.380963,-1.934576 2.787364,0.266345 8.505988,-2.757012 11.865012,-6.272861 3.070685,-3.214051 4.184362,-5.503472 4.734128,-9.732093 0.372426,-2.864573 0.487491,-3.210314 1.097712,-3.298394 0.53784,-0.07764 0.728698,0.115703 0.904531,0.916279 0.281466,1.281494 -0.08518,4.798451 -0.67431,6.468233 -0.24729,0.70089 -0.449616,1.616244 -0.449616,2.034116 0,0.417872 -0.144,0.759766 -0.32,0.759766 -0.176,0 -0.320176,0.18 -0.32039,0.4 -2.15e-4,0.22 -0.324215,0.782336 -0.72,1.249635 -0.395786,0.467303 -1.36761,1.649011 -2.15961,2.626019 -0.792,0.977012 -1.656,1.856554 -1.92,1.954535 -0.264,0.09798 -1.024535,0.654445 -1.69008,1.236579 -2.658333,2.325181 -8.015181,4.471693 -10.069921,4.035062 z M 28.376597,96.682976 c -0.121096,-0.605475 0.151107,-1.828528 0.801215,-3.6 C 29.719353,91.607341 30.28004,89.68 30.423782,88.8 c 0.143743,-0.88 0.399442,-2.392 0.56822,-3.36 0.70201,-4.026269 0.776211,-8.057971 0.201411,-10.943594 -0.304962,-1.530976 -0.468757,-3.006976 -0.363987,-3.28 0.299695,-0.780992 1.778303,-0.623488 2.099004,0.223594 0.629149,1.661805 0.920567,8.019283 0.517059,11.28 -0.06534,0.528 -0.213852,1.968 -0.330028,3.2 -0.40714,4.317517 -3.126873,11.68 -4.314642,11.68 -0.13245,0 -0.32335,-0.412659 -0.424222,-0.917024 z M 76.63513,94.064643 c -0.285312,-0.898941 0.314915,-1.515021 1.88215,-1.931843 1.312963,-0.349197 3.436704,-1.710499 3.347594,-2.145786 -0.02557,-0.124857 0.06157,-0.473219 0.193622,-0.774137 0.293959,-0.669859 -0.689869,-3.633792 -1.582665,-4.768019 -0.585012,-0.74321 -0.937677,-0.84065 -3.840001,-1.060967 -1.757705,-0.13343 -3.454598,-0.23783 -3.770877,-0.232 -0.32895,0.0061 -0.708873,-0.341382 -0.88775,-0.811859 -0.278413,-0.732285 -0.153962,-0.983472 1.13505,-2.290909 0.796262,-0.807645 1.44775,-1.551507 1.44775,-1.65303 0,-0.10152 0.756,-0.75304 1.68,-1.447824 0.924,-0.694781 1.848298,-1.480371 2.053994,-1.745754 0.205696,-0.265382 0.569757,-0.742713 0.809027,-1.060733 0.414951,-0.55152 0.47336,-0.544134 1.265191,0.16 0.731411,0.650407 0.853292,1.061764 1.024627,3.458218 0.229424,3.208912 0.722857,4.744499 2.1768,6.774282 1.486291,2.07494 2.140214,2.391193 3.506784,1.695961 1.761843,-0.89632 3.006551,-2.481769 3.472167,-4.422678 0.527417,-2.198525 0.770819,-2.593011 1.44118,-2.33577 0.363495,0.139485 0.469248,0.410202 0.33073,0.846627 -0.12608,0.397245 -0.05832,0.641578 0.177936,0.641578 0.912896,0 -1.437696,5.907933 -2.515085,6.321366 -0.283257,0.108698 -0.775321,0.420512 -1.093475,0.692925 -0.707991,0.606202 -3.721216,1.323328 -3.957043,0.941754 -0.327373,-0.529703 -0.647207,-0.267907 -1.056919,0.865133 -0.598352,1.65471 -2.155222,3.279084 -3.992157,4.165251 -1.984355,0.957283 -2.970925,0.993184 -3.24863,0.118214 z m 2.784857,-14.735421 c -0.05501,-0.943753 -0.150672,-1.766579 -0.212592,-1.828496 -0.401392,-0.401392 -3.687392,2.292298 -3.687392,3.02273 0,0.389587 1.565527,0.668394 3.2,0.569898 0.761386,-0.04588 0.795172,-0.131037 0.699984,-1.764132 z M 47.040002,89.390634 c -1.543459,-0.510756 -3.395466,-1.682605 -4.924576,-3.116007 -1.428109,-1.338723 -1.842244,-1.977337 -2.28777,-3.527833 -1.002374,-3.4884 0.231098,-8.900474 2.599162,-11.404304 0.425251,-0.449629 0.773184,-0.925748 0.773184,-1.058039 0,-0.353369 1.887536,-2.058054 3.36,-3.034505 0.704,-0.466852 1.471178,-1.029965 1.704842,-1.251367 C 49.098437,65.208726 52.199599,64 53.392482,64 c 1.57696,0 3.991517,0.830925 4.704768,1.619059 0.309069,0.341517 0.702871,0.620941 0.875117,0.620941 0.443175,0 1.75186,1.586314 2.103405,2.549629 1.462202,4.006787 1.291274,7.374374 -0.586592,11.556704 -0.744224,1.657517 -1.482746,3.061667 -1.641155,3.120333 -0.158413,0.05867 -0.288023,0.246265 -0.288023,0.416889 0,0.616451 -3.972342,3.976663 -5.717507,4.836445 -1.717853,0.84633 -4.351664,1.150736 -5.802493,0.670634 z m 5.945232,-3.468864 c 1.239927,-0.726301 3.408583,-3.032138 4.817063,-5.12177 0.857427,-1.27209 1.969504,-4.744122 2.126761,-6.64 0.145578,-1.755117 -0.200489,-1.988291 -0.712387,-0.48 -0.300899,0.886586 -1.262563,2.164925 -3.310016,4.4 -0.786566,0.858646 -4.228656,3.991405 -4.74656,4.32 -0.277395,0.176 -1.137895,0.741187 -1.912224,1.255968 -0.774327,0.514784 -1.947869,1.148627 -2.607869,1.408541 -1.471677,0.579561 -1.506256,0.907593 -0.16,1.517709 1.482995,0.672083 4.806384,0.334675 6.505232,-0.660448 z m -6.745232,-3.169952 c 0.917821,-0.272912 1.665331,-0.665204 2.24,-1.175543 0.352,-0.312595 0.830912,-0.615136 1.064246,-0.672313 0.750647,-0.183946 3.89193,-3.050679 5.770161,-5.265844 0.982003,-1.158166 2.560016,-3.963424 2.903801,-5.162134 0.489063,-1.705261 -1.927632,-3.542867 -4.812902,-3.659635 -1.659312,-0.06715 -3.09121,0.385747 -3.259978,1.03111 -0.08324,0.318339 -0.966893,0.964608 -1.963661,1.436154 -2.224061,1.05215 -3.208573,2.042384 -4.262563,4.287337 -1.008455,2.147956 -1.340947,4.471792 -0.919869,6.42905 0.09466,0.44 0.260317,1.357258 0.368131,2.038349 0.194573,1.229184 0.204743,1.236758 1.37433,1.023485 0.648067,-0.118176 1.322304,-0.257684 1.498304,-0.310016 z m 92.061078,-4.170391 c -1.28363,-0.718278 -1.81588,-1.464944 -1.44848,-2.032003 0.1965,-0.303283 0.62286,-0.490621 0.95169,-0.41817 0.32765,0.07219 2.24574,0.162256 4.26243,0.200148 3.70502,0.06962 4.53062,0.360172 3.26654,1.149603 -0.34617,0.216185 -0.55636,0.583398 -0.46709,0.816029 0.11521,0.30022 -0.19587,0.440048 -1.07193,0.48183 -3.07861,0.146829 -5.00143,0.07772 -5.49316,-0.197437 z m 12.00083,-0.88735 c -0.72186,-0.256784 -0.87885,-0.485747 -0.8,-1.166778 0.0874,-0.75504 0.23927,-0.850486 1.39458,-0.876576 1.63205,-0.03686 3.97323,-0.901072 6.14973,-2.270093 1.78273,-1.121337 2.19395,-1.227904 2.93321,-0.760118 0.3748,0.237165 0.38446,0.38103 0.0524,0.781082 -0.22383,0.269705 -0.32274,0.626652 -0.2198,0.793216 0.10294,0.166566 -0.20866,0.441004 -0.69245,0.609862 -0.48379,0.168858 -1.59741,0.762432 -2.4747,1.319053 -2.23244,1.416429 -4.91133,2.079645 -6.34302,1.570352 z m -18.81997,-1.94137 c -1.54184,-1.541849 -2.00609,-2.732409 -2.02486,-5.192707 -0.0182,-2.393235 0.31346,-3.010304 1.62869,-3.029824 0.8261,-0.01226 1.12195,0.631251 0.86981,1.891936 -0.13885,0.694282 0.0707,1.385568 0.8137,2.684179 0.55039,0.961987 1.19448,1.823424 1.43131,1.914307 0.23684,0.09088 0.50927,0.466026 0.6054,0.833655 0.13403,0.512512 -0.005,0.713517 -0.59559,0.861773 -0.42372,0.106345 -0.77039,0.369744 -0.77039,0.585331 0,0.695462 -0.99188,0.417539 -1.95807,-0.54865 z M 26.400001,72.405517 c -0.352,-0.08814 -1,-0.406288 -1.44,-0.707011 -0.90017,-0.615226 -2.738918,-1.396308 -3.070497,-1.304311 -0.119872,0.03326 -0.306049,-0.06381 -0.413726,-0.215696 C 20.614498,68.963578 12.477674,67.522877 10.000363,68.146672 9.0254359,68.39216 8.438968,68.406966 8.2235319,68.191533 8.0157248,67.983725 7.6997453,67.978173 7.3303981,68.175853 6.4002201,68.673667 6.245862,67.891238 7.0864742,66.939421 9.09513,64.66504 11.556954,62.654323 13.74642,61.499846 c 6.810496,-3.591081 17.43511,-5.451862 17.881911,-3.131814 0.177471,0.921533 -0.379117,1.203382 -2.390263,1.210387 -4.242888,0.01478 -13.363723,2.903347 -16.569396,5.247527 l -0.910669,0.665932 1.400999,0.0547 c 3.558119,0.138915 8.64098,1.60553 12.120999,3.497408 2.859237,1.554397 4.158404,2.58784 3.94672,3.139482 -0.173087,0.451056 -1.496808,0.555043 -2.82672,0.22206 z M 202.19942,69.461114 c -0.18001,-0.516384 -0.69219,-1.177968 -1.13816,-1.470183 -0.76133,-0.498845 -0.92115,-0.493177 -2.61606,0.09279 -0.99286,0.343248 -2.21647,0.644484 -2.71913,0.669412 -0.74738,0.03706 -0.87451,-0.05659 -0.69759,-0.513904 0.11899,-0.307575 0.29478,-0.947821 0.39064,-1.422768 0.13206,-0.654228 0.6114,-1.087952 1.9776,-1.789376 1.37077,-0.703776 1.77707,-1.072295 1.69398,-1.536458 -0.0601,-0.335843 -0.24102,-0.658922 -0.402,-0.717955 -0.16097,-0.05903 -0.21066,-0.240048 -0.1104,-0.402259 0.10025,-0.162212 -0.0317,-0.377047 -0.29327,-0.477412 -0.39914,-0.153168 -0.3767,-0.281324 0.13972,-0.79774 0.33839,-0.338391 0.87816,-0.615258 1.19948,-0.615258 0.565,0 1.97578,1.230624 1.97578,1.723482 0,0.133228 0.22817,0.470406 0.50705,0.749286 0.46274,0.462739 0.65398,0.460742 2.18813,-0.02285 2.12351,-0.669379 2.33075,-0.66361 2.72651,0.07589 0.39172,0.73192 -0.49044,2.017818 -1.83693,2.677648 -0.87024,0.426455 -0.88943,0.524877 -0.49123,2.519802 0.40679,2.037968 -1.82908,3.16559 -2.49412,1.257862 z m -38.88464,0.136416 c -0.26965,-0.702688 1.63025,-3.35753 2.40276,-3.35753 0.19936,0 0.32647,-0.127325 0.28247,-0.282947 -0.0941,-0.332615 3.00123,-3.381607 3.70844,-3.652989 0.26662,-0.102314 0.64929,0.01222 0.85037,0.254502 0.50056,0.60314 0.0735,1.32704 -2.12109,3.595021 -0.98265,1.015527 -2.14822,2.314413 -2.59016,2.886413 -0.86235,1.116138 -2.20502,1.41169 -2.53279,0.55753 z M 78.032438,68.00577 c -0.08482,-0.08483 -0.864825,-0.216621 -1.733331,-0.292877 -2.580163,-0.226538 -4.939104,-1.491555 -4.939104,-2.648672 0,-0.233322 -0.206358,-0.424221 -0.458576,-0.424221 -0.252218,0 -1.008218,-0.684 -1.68,-1.52 -0.671783,-0.836 -1.308557,-1.592 -1.415053,-1.68 -0.603475,-0.498666 -0.995747,-2.88209 -0.842448,-5.118669 0.196832,-2.871734 0.925686,-4.521705 2.894941,-6.553542 0.737626,-0.761069 1.825008,-1.962538 2.416406,-2.669936 0.591399,-0.707395 1.439079,-1.377488 1.883735,-1.489088 0.444656,-0.111603 1.285181,-0.566519 1.86783,-1.010928 1.373156,-1.047357 2.77642,-0.924522 5.619693,0.491917 3.439901,1.71366 4.979111,3.471481 5.893581,6.73063 0.497136,1.771782 0.51953,2.357274 0.185984,4.862496 -0.577315,4.336109 -1.39416,6.181517 -3.698032,8.354557 -1.175907,1.109129 -2.233446,1.838451 -2.668061,1.84 -0.396,0.0013 -0.72,0.117635 -0.72,0.258278 0,0.140643 -0.478224,0.428643 -1.06272,0.64 -1.188153,0.429642 -1.324893,0.450007 -1.544845,0.230055 z m 1.887565,-3.44889 c 0.22,-0.173382 0.4,-0.222685 0.4,-0.109558 0,0.348579 2.349674,-0.996237 3.276292,-1.875156 1.151997,-1.092704 1.246288,-1.584828 1.136576,-5.932166 l -0.09287,-3.68 -1.183802,1.76 c -2.729098,4.057443 -7.95362,8.885453 -9.408842,8.694755 -1.261242,-0.165277 -1.118218,0.503095 0.252813,1.181427 1.090067,0.539322 1.696483,0.626036 3.278637,0.468829 C 78.646464,64.958925 79.7,64.730266 79.92,64.55688 Z m -7.92,-3.91688 c 0.219101,-0.264 0.716045,-0.48 1.10432,-0.48 1.674659,0 6.575408,-4.170739 8.297367,-7.061405 1.267062,-2.127024 1.335235,-2.440179 0.791168,-3.634281 -0.484883,-1.064202 -2.127165,-1.604183 -4.912855,-1.615341 -2.649558,-0.01062 -3.677309,0.561088 -5.124477,2.850566 C 71.647795,51.502794 71.128262,52.16 71.001008,52.16 c -0.452957,0 -1.024807,2.434803 -1.08977,4.64 -0.09875,3.352045 0.927674,5.23903 2.088765,3.84 z m 60.480007,3.06689 c 0,-0.33721 0.5974,-1.086266 1.32757,-1.664567 0.73016,-0.578301 1.95945,-1.726989 2.73175,-2.55264 1.69198,-1.808864 2.53062,-2.131417 2.7957,-1.075264 0.24986,0.995523 -0.23217,2.163411 -1.14584,2.776202 -0.41205,0.276355 -1.03718,0.771785 -1.38918,1.100953 -1.50915,1.411252 -2.5446,2.028426 -3.40316,2.028426 -0.69011,0 -0.91684,-0.151622 -0.91684,-0.61311 z m 58.30929,-4.29768 c -1.83933,-0.92234 -2.70563,-1.544036 -2.83013,-2.031021 -0.4333,-1.694931 1.18075,-1.841811 3.68336,-0.335187 0.94738,0.570348 2.07262,1.22928 2.50051,1.464294 1.05545,0.579674 1.25963,1.270771 0.53711,1.817901 -0.81084,0.613993 -0.86535,0.601161 -3.89085,-0.915987 z M 173.82401,60.096 c -0.62128,-0.621274 -0.44995,-1.133987 0.656,-1.963165 1.21522,-0.911107 3.70919,-2.220169 4.4,-2.30952 0.264,-0.03414 1.222,-0.169053 2.12888,-0.299798 1.42994,-0.206147 1.69165,-0.157821 1.97088,0.363933 0.51716,0.966323 -0.32155,1.767315 -2.15384,2.05696 -0.8779,0.138777 -2.67878,0.766057 -4.00195,1.393955 -2.77465,1.316685 -2.50821,1.249398 -2.99997,0.757635 z M 100.84527,58.64 C 99.524212,56.031507 99.070619,49.164045 99.840881,43.433344 100.24573,40.421274 101.09596,36.472483 101.44138,36 c 0.12867,-0.176 0.47031,-1.045126 0.75921,-1.931392 0.75648,-2.320677 2.42889,-3.604132 3.08904,-2.370623 0.25364,0.473925 0.21884,0.854965 -0.1377,1.508082 -1.10221,2.019021 -2.29425,5.609869 -2.61327,7.87209 -0.8005,5.676598 -0.86455,12.889654 -0.12264,13.811261 0.14586,0.18118 0.25301,0.757872 0.23812,1.281539 -0.0149,0.523667 0.0755,1.275427 0.20096,1.670582 0.12719,0.400727 0.0935,0.718461 -0.0762,0.718461 -0.16733,0 -0.37955,0.288 -0.47161,0.64 -0.25467,0.973888 -0.78878,0.769306 -1.46201,-0.56 z M 36.454005,54.48 c -0.142928,-1.319459 -0.116275,-2 0.07832,-2 0.128406,0 0.755267,-0.786128 1.393024,-1.746954 1.978538,-2.980793 8.535783,-8.43079 12.469421,-10.363856 2.468448,-1.21304 5.510714,-2.170371 5.842567,-1.838521 0.08772,0.08772 0.06091,0.684918 -0.05956,1.32711 -0.120477,0.642189 -0.297469,1.089197 -0.393319,0.993347 -0.249341,-0.249337 -6.092794,2.114884 -6.504461,2.631661 -0.088,0.110471 -0.736,0.624423 -1.44,1.142119 -0.704,0.517692 -1.352,1.024595 -1.44,1.126448 -0.088,0.101849 -0.808,0.68398 -1.6,1.293622 -1.965693,1.513091 -2.519754,2.068358 -4.465296,4.475024 -0.924807,1.144 -1.990445,2.328797 -2.368087,2.632883 C 37.250296,54.72969 36.498658,54.892237 36.454005,54.48 Z M 141.12001,48.96 v -4.48 h 0.76082 c 1.30018,0 1.50904,0.634086 1.43864,4.367808 -0.0689,3.652528 -0.39811,4.592192 -1.60906,4.592192 -0.54576,0 -0.5904,-0.338778 -0.5904,-4.48 z m -0.88757,-8.91223 c -0.22208,-0.501725 -1.2576,-1.833725 -2.30115,-2.96 -1.04355,-1.126272 -2.06813,-2.362055 -2.27685,-2.746183 -0.45403,-0.835635 -0.19217,-1.701587 0.51458,-1.701587 0.88701,0 3.34005,2.321674 4.81847,4.560438 1.38492,2.097181 1.41135,2.18385 0.9028,2.96 -0.68338,1.042967 -1.16067,1.010532 -1.65785,-0.112668 z M 81.858551,38.231882 c -0.103412,-0.103415 -0.527892,-0.239674 -0.943284,-0.302804 -1.590755,-0.241753 -2.20895,-0.592188 -2.402077,-1.361664 -0.236172,-0.940995 0.374688,-1.46135 1.326813,-1.130233 1.175629,0.408848 4.40409,0.102953 7.586173,-0.718784 4.469597,-1.154221 6.406778,-1.941053 8.322164,-3.380247 0.920941,-0.691982 1.777622,-1.25815 1.903734,-1.25815 0.126112,0 0.273988,0.54 0.328612,1.2 0.08476,1.024144 -0.07401,1.371574 -1.08345,2.37079 -0.650522,0.643933 -1.658522,1.27256 -2.24,1.396951 -0.581478,0.12439 -1.201232,0.341245 -1.377232,0.481904 -0.511405,0.408713 -5.999588,1.878259 -8.214407,2.199539 -1.114077,0.161606 -2.249117,0.38313 -2.522307,0.492272 -0.273194,0.109146 -0.581328,0.113837 -0.684739,0.01043 z M 73.945417,32.226848 C 73.792109,31.823616 73.435673,31.301984 73.153341,31.067667 72.871005,30.833349 72.639929,30.407268 72.639843,30.120818 72.639753,29.834368 72.336505,28.808 71.965961,27.84 70.601123,24.274554 70.338006,22.658585 70.220499,17.12 c -0.06348,-2.992 -0.121747,-5.512 -0.129485,-5.6 -0.02113,-0.240308 -2.251011,2.239715 -2.251011,2.503525 0,0.12535 -0.389008,0.800383 -0.864458,1.500075 -2.777206,4.087024 -5.628672,12.472314 -4.650016,13.674277 0.187014,0.229688 0.237251,0.951 0.117155,1.682123 -0.177744,1.082049 -0.341517,1.295248 -1.059001,1.378605 -0.609572,0.07082 -0.903728,-0.07464 -1.043876,-0.516203 C 60.10927,31.016036 60.069049,26.999423 60.28311,26.08 61.245222,21.947586 61.639574,20.772912 62.780876,18.639812 63.51062,17.275915 64.369663,15.728 64.689862,15.2 c 0.320198,-0.528 0.711629,-1.250398 0.86985,-1.605329 0.342473,-0.768265 2.930176,-4.1086985 3.301091,-4.2613376 0.14256,-0.058667 0.2592,-0.3106668 0.2592,-0.56 0,-0.2493334 0.144,-0.4533334 0.32,-0.4533334 0.176,0 0.32,-0.36 0.32,-0.8 0,-0.5866666 0.170666,-0.8 0.64,-0.8 0.352,0 0.64,0.1631094 0.64,0.3624656 0,0.1993558 0.310224,0.6315222 0.689389,0.9603699 0.664291,0.5761373 0.691174,0.8570999 0.738368,7.7175345 0.05431,7.8948 0.310249,9.248026 2.568141,13.578455 0.579613,1.111646 0.941261,2.021175 0.803664,2.021175 -0.1376,0 -0.340535,0.36 -0.450967,0.8 -0.251296,1.001232 -1.073449,1.039315 -1.443181,0.06685 z"
     id="path7520"
     inkscape:connector-curvature="0"
     sodipodi:nodetypes="cscccsscssccccccsccccsccccscsccccccccscccccccccscccsccsscccsccccccccscccccccccscsccccccsssccccscsccccsccccsscccccscscccccsccsssccscccccccccccccccccccssscccccsccscsssccscccsccscccsssscccsccccsscsccsscccssccccccccscsscccssccscccsccssccccsscsccscsccscccsccssscsscssscscscsccccsccsccccccsccscscccccccccsccccscccscccccscccccsccccccccsssscccscccccccccccccccssccccscccsccccccccssscsccccsssscssccscscsssscccsscccsscscscccsssccccscccccssccscsccccccsccccsccccccccssccscscsscccssccccccssscsccccccccccscscccscsscccssssscsssccc" />
</svg>
