<?xml version="1.0" encoding="UTF-8" standalone="no"?>
<!-- Created with Inkscape (http://www.inkscape.org/) -->

<svg
   xmlns:dc="http://purl.org/dc/elements/1.1/"
   xmlns:cc="http://creativecommons.org/ns#"
   xmlns:rdf="http://www.w3.org/1999/02/22-rdf-syntax-ns#"
   xmlns:svg="http://www.w3.org/2000/svg"
   xmlns="http://www.w3.org/2000/svg"
   xmlns:sodipodi="http://sodipodi.sourceforge.net/DTD/sodipodi-0.dtd"
   xmlns:inkscape="http://www.inkscape.org/namespaces/inkscape"
   version="1.1"
   id="svg5781"
   width="285.76001"
   height="135.36"
   viewBox="0 0 285.76001 135.36"
   sodipodi:docname="mapcat-seq.svg"
   inkscape:version="0.92.3 (2405546, 2018-03-11)">
  <metadata
     id="metadata5787">
    <rdf:RDF>
      <cc:Work
         rdf:about="">
        <dc:format>image/svg+xml</dc:format>
        <dc:type
           rdf:resource="http://purl.org/dc/dcmitype/StillImage" />
        <dc:title></dc:title>
      </cc:Work>
    </rdf:RDF>
  </metadata>
  <defs
     id="defs5785" />
  <sodipodi:namedview
     pagecolor="#ffffff"
     bordercolor="#666666"
     borderopacity="1"
     objecttolerance="10"
     gridtolerance="10"
     guidetolerance="10"
     inkscape:pageopacity="0"
     inkscape:pageshadow="2"
     inkscape:window-width="3832"
     inkscape:window-height="2084"
     id="namedview5783"
     showgrid="false"
     inkscape:zoom="6.330399"
     inkscape:cx="105.0538"
     inkscape:cy="70.637582"
     inkscape:window-x="0"
     inkscape:window-y="28"
     inkscape:window-maximized="0"
     inkscape:current-layer="svg5781" />
  <path
     style="fill:#000000;stroke-width:1"
     d="m 76.480003,129.45183 c -1.496,-0.40022 -3.695607,-1.17861 -4.888013,-1.72975 -1.19241,-0.55115 -2.247959,-1.00208 -2.345668,-1.00208 -0.286643,0 -3.001148,-2.27901 -4.584745,-3.8492 -0.93905,-0.9311 -1.66178,-2.03329 -2.021575,-3.08295 -0.837049,-2.44201 -0.732537,-3.43226 0.509443,-4.82693 0.588192,-0.6605 1.344192,-1.54542 1.68,-1.96647 0.335805,-0.42105 0.957908,-1.06905 1.382445,-1.44 0.424535,-0.37095 1.546554,-1.38525 2.493373,-2.25401 0.946816,-0.86877 2.183469,-1.90748 2.748112,-2.30826 0.954756,-0.67767 1.510077,-1.23036 3.840173,-3.82192 0.621555,-0.6913 1.081651,-1.79263 1.525859,-3.652471 0.64377,-2.695357 2.446577,-7.037789 2.921812,-7.037789 0.142333,0 0.258784,-0.216 0.258784,-0.48 0,-0.264 0.167155,-0.48 0.371456,-0.48 0.204301,0 0.744301,-0.405773 1.2,-0.901715 1.226349,-1.33465 2.60895,-1.781613 4.737315,-1.531466 0.994992,0.116944 2.01392,0.382627 2.264282,0.59041 0.250362,0.207782 0.763846,0.531401 1.141075,0.719155 1.030551,0.512925 1.720615,2.278714 1.968877,5.038102 0.204586,2.273911 0.138842,2.714864 -0.811085,5.440004 -0.568544,1.63103 -1.231312,3.12539 -1.472819,3.32079 -0.241504,0.1954 -0.439101,0.45927 -0.439101,0.58638 0,0.12711 -0.864,1.34798 -1.92,2.71304 -1.056,1.36506 -1.92,2.57719 -1.92,2.69361 0,0.11643 -0.252,0.48509 -0.56,0.81926 -1.653312,1.79374 -2,2.23114 -2,2.5233 0,0.17636 -0.216215,0.40363 -0.480474,0.50503 -0.264262,0.10141 -0.713549,0.67314 -0.998419,1.27052 -0.450285,0.94426 -0.460154,1.2067 -0.07555,2.00915 0.447466,0.93361 2.516695,2.29122 3.564484,2.33863 0.313526,0.0142 0.652931,0.2418 0.754236,0.5058 0.131872,0.34365 0.669044,0.48 1.891072,0.48 1.877073,0 2.424109,0.41807 1.610362,1.23071 -0.407277,0.40672 -1.117315,0.52535 -3.066122,0.51228 -2.361747,-0.0158 -2.623628,-0.0873 -3.809085,-1.04 -0.700137,-0.56264 -1.35342,-1.02299 -1.45174,-1.02299 -0.09832,0 -0.455866,-0.2771 -0.794544,-0.61578 -1.959114,-1.95911 -1.763652,-4.79045 0.52638,-7.62474 0.390829,-0.48371 1.151959,-1.45548 1.691402,-2.15948 0.53944,-0.704 1.329543,-1.712 1.755783,-2.24 3.774435,-4.67554 5.127651,-6.57958 5.549021,-7.80775 0.658444,-1.919181 0.367564,-4.463188 -0.794964,-6.952624 -0.402499,-0.861914 -0.675091,-1.024436 -1.969501,-1.174237 -2.746918,-0.317901 -4.976054,1.236835 -6.270877,4.373689 -0.281305,0.681495 -0.511465,1.739204 -0.511465,2.350464 0,1.678688 -2.400957,5.748688 -4.77961,8.102168 -0.451213,0.44644 -1.68439,1.5221 -2.74039,2.39034 -3.654199,3.00449 -7.840001,7.62219 -7.840001,8.64895 0,1.06786 1.443213,3.43979 2.717904,4.4669 1.238861,0.99824 5.045661,3.03575 7.682097,4.11169 1.980054,0.80807 7.267078,1.47921 8.850355,1.12347 0.837715,-0.18822 1.444707,-0.186 1.636704,0.006 0.384592,0.3846 0.02378,1.00094 -0.585945,1.00094 -0.253613,0 -0.461114,0.11729 -0.461114,0.26064 0,0.50505 -2.415395,1.5326 -3.68,1.56554 -0.704,0.0183 -2.504,-0.29412 -4,-0.69434 z m 25.279997,0.0104 c 0,-0.25176 0.324,-0.52015 0.72,-0.59643 0.45367,-0.0874 0.2831,-0.15479 -0.46111,-0.18225 -0.64961,-0.024 -1.27011,0.10042 -1.37889,0.27642 -0.10877,0.176 -0.54927,0.32 -0.978883,0.32 -0.567779,-1e-5 -0.781114,-0.1748 -0.781114,-0.64001 0,-0.352 0.05555,-0.64 0.123431,-0.64 0.06789,0 1.302016,-0.42124 2.742506,-0.93609 2.85248,-1.01951 3.57854,-1.62296 5.61406,-4.666 1.75961,-2.63057 2.00117,-2.8617 2.5311,-2.42189 0.65789,0.54599 0.38427,2.1402 -0.56373,3.28452 -0.98371,1.18742 -1.0773,1.64966 -0.28737,1.41925 0.308,-0.0898 1.28,-0.25631 2.16,-0.36995 1.90023,-0.24539 2.46705,-0.34916 4.16,-0.76154 0.704,-0.17149 2.936,-0.60849 4.96,-0.97111 2.024,-0.36262 5.048,-0.94556 6.72,-1.29542 1.672,-0.34986 4.048,-0.77869 5.28,-0.95297 1.232,-0.17428 3.752,-0.53938 5.6,-0.81133 4.87398,-0.71725 6.69273,-0.80781 18.40001,-0.91612 10.17437,-0.0941 10.78202,-0.13518 16.64,-1.12427 3.344,-0.56461 6.86279,-1.24775 7.81954,-1.51807 1.85873,-0.52519 11.89098,-5.51784 12.87259,-6.40619 0.32333,-0.29261 0.58787,-0.41538 0.58787,-0.27282 0,0.14256 0.252,0.0432 0.56,-0.22075 0.308,-0.26396 1.424,-0.95703 2.48,-1.54015 1.056,-0.58311 2.56406,-1.57746 3.35125,-2.20966 0.7872,-0.63219 2.00276,-1.53335 2.70125,-2.00257 1.37844,-0.92599 5.9475,-5.361401 5.9475,-5.773539 0,-0.139331 0.36,-0.253331 0.8,-0.253331 0.68993,0 0.79953,0.143091 0.79659,1.04 -0.003,0.7544 -0.28807,1.309856 -1.04,2.02267 -1.28885,1.22179 -5.32742,4.46902 -7.08274,5.69489 -0.72262,0.50467 -1.95403,1.44067 -2.73647,2.08 -1.82462,1.49092 -5.82551,3.75464 -12.65738,7.16159 -6.32392,3.15364 -7.08649,3.47133 -8.42383,3.50935 -0.54678,0.0156 -0.94025,0.11546 -0.87439,0.22203 0.0659,0.10657 -0.55109,0.19094 -1.37102,0.18749 -0.81992,-0.003 -1.56276,0.0761 -1.65076,0.17669 -0.28652,0.32765 -4.91838,1.54046 -6.56,1.71769 -0.88,0.095 -4.48,0.26034 -8,0.36743 -3.52,0.10709 -7.408,0.32827 -8.64,0.49151 -5.24686,0.69521 -7.60146,0.8779 -8.24528,0.63974 -0.3771,-0.1395 -1.23802,-0.12952 -1.91315,0.0222 -0.67513,0.15169 -2.48168,0.35865 -4.01454,0.4599 -4.0643,0.26848 -5.39353,0.39142 -8.04967,0.74451 -1.45074,0.19286 -2.52118,0.20176 -2.73686,0.0228 -0.22002,-0.18261 -0.65404,-0.13844 -1.14558,0.11657 -0.43524,0.22581 -1.52528,0.42728 -2.4223,0.44772 -2.91369,0.0664 -11.53154,2.43893 -17.72222,4.87907 -1.92911,0.76038 -3.83041,0.84897 -3.83041,0.17847 z m 4.39334,-1.97559 c -0.10633,-0.10634 -0.38234,-0.1177 -0.61334,-0.0253 -0.25527,0.10215 -0.17945,0.17797 0.19334,0.19333 0.33733,0.0139 0.52633,-0.0617 0.42,-0.16807 z m 6.69626,-11.91187 c -0.80858,-0.89347 -0.65571,-1.40759 0.92755,-3.11937 0.80144,-0.86649 1.97467,-2.5539 2.6072,-3.7498 1.26721,-2.39592 2.11699,-2.76445 2.20786,-0.95751 0.0522,1.03764 -1.88083,4.7095 -3.81254,7.2421 -1.01981,1.33704 -1.19977,1.39155 -1.93007,0.58458 z m 56.89241,-2.0926 c -0.29156,-1.16164 2.73513,-6.89573 5.34258,-10.12156 3.30737,-4.091757 4.09232,-4.983008 6.29903,-7.152128 l 2.02361,-1.989143 -1.94404,-1.509686 C 180.39396,91.879357 179.39826,91.2 179.2505,91.2 c -0.14775,0 -0.85625,-0.576 -1.57444,-1.28 -0.71819,-0.704 -1.44363,-1.28 -1.6121,-1.28 -0.16847,0 -0.49033,-0.444266 -0.71524,-0.987254 -0.22492,-0.542989 -0.63839,-1.217431 -0.91883,-1.498756 -0.69773,-0.699932 -0.65287,-4.359299 0.0696,-5.67399 1.32331,-2.408208 2.64342,-3.017056 6.57437,-3.032176 3.87212,-0.01488 10.71173,2.452035 13.96619,5.03737 2.72767,2.166854 7.5182,4.536163 9.2,4.55015 1.71939,0.0143 -0.48707,5.878918 -4.09515,10.884656 -0.95145,1.32 -2.16792,3.15852 -2.70328,4.08561 -1.94244,3.36374 -4.16157,5.09518 -4.16157,3.247 0,-0.32941 1.23582,-2.438 2.74627,-4.68577 3.07785,-4.580274 5.99809,-10.238264 5.83877,-11.312664 -0.0843,-0.568266 -0.6748,-0.925818 -2.98504,-1.80736 -2.86052,-1.091517 -4.35378,-1.992144 -3.34858,-2.019629 0.25772,-0.007 0.0366,-0.243977 -0.49142,-0.526515 -0.528,-0.282534 -1.032,-0.610278 -1.12,-0.728317 -0.35744,-0.479443 -3.82041,-2.218227 -5.92,-2.97248 -3.48091,-1.25047 -4.32383,-1.463574 -6.61681,-1.672835 -2.86336,-0.261318 -4.14618,0.270048 -4.92756,2.041082 -0.31834,0.721532 -0.69392,1.311878 -0.83463,1.311878 -0.39153,0 0.72586,2.64425 1.39131,3.292467 0.32323,0.314855 0.58769,0.710855 0.58769,0.88 0,0.169143 0.22051,0.307533 0.49004,0.307533 0.26952,0 0.57293,0.216 0.67423,0.48 0.10131,0.264 0.33051,0.48 0.50933,0.48 0.17882,0 1.23321,0.648 2.3431,1.44 1.31902,0.941235 2.3518,1.44 2.98175,1.44 0.53008,0 1.05277,0.144 1.16155,0.32 0.10877,0.176 0.76527,0.32 1.45888,0.32 1.05505,0 1.26112,0.106416 1.26112,0.651258 0,0.856108 -0.91345,2.228742 -1.48317,2.228742 -1.21278,0 -4.04829,2.355856 -7.34682,6.10403 -2.37672,2.7007 -2.79793,3.23153 -3.61268,4.5528 -0.41268,0.66926 -0.81655,1.15062 -0.89748,1.06969 -0.18064,-0.18064 -2.65744,4.4726 -2.66599,5.00868 -0.007,0.4262 -1.97314,2.7848 -2.32166,2.7848 -0.121,0 -0.3056,-0.34101 -0.4102,-0.7578 z m 70.018,-6.5987 c -0.572,-0.34876 -1.04,-0.83995 -1.04,-1.09155 0,-0.93035 4.81497,-7.55196 5.49149,-7.55196 0.11746,0 0.71862,-0.490474 1.33591,-1.089942 0.61729,-0.599469 2.03365,-1.630864 3.14747,-2.291988 1.79948,-1.068108 2.27471,-1.205164 4.26513,-1.230057 2.07541,-0.02595 2.24737,0.02381 2.34031,0.677142 0.0868,0.610349 -0.14981,0.776048 -1.76,1.232426 -1.92624,0.545955 -3.30092,1.224985 -4.57685,2.260768 -0.9182,0.745389 -4.20662,3.648421 -4.65017,4.105201 -0.55876,0.57543 -2.27813,3.48473 -2.70464,4.57645 -0.47727,1.22167 -0.49899,1.22641 -1.84865,0.40351 z M 142.00208,104.848 c -1.2083,-1.11982 -2.54465,-2.12804 -2.82062,-2.12804 -0.13872,0 -0.6593,0.40624 -1.15684,0.90275 -1.21044,1.20794 -2.25318,1.46602 -2.68246,0.6639 -0.32889,-0.61453 -0.0964,-2.84665 0.29648,-2.84665 0.11408,0 0.39297,-0.29712 0.61975,-0.66026 0.36347,-0.58201 0.29675,-0.791906 -0.56302,-1.771132 -1.08518,-1.235949 -1.22516,-2.073098 -0.47251,-2.82575 0.65547,-0.655472 0.58103,-0.678375 2.01949,0.621193 0.79719,0.720211 1.42984,1.052813 1.76093,0.925763 0.2842,-0.109056 0.51672,-0.325977 0.51672,-0.482044 0,-0.156064 0.59245,-0.712922 1.31656,-1.23746 1.00459,-0.727721 1.45211,-0.881152 1.88866,-0.64752 0.79568,0.425837 0.5815,2.282688 -0.44163,3.828743 l -0.7985,1.206617 1.07243,1.03945 c 1.13383,1.09894 1.58946,2.23519 1.28323,3.20005 -0.28836,0.90856 -0.99775,0.98973 -1.83867,0.21039 z m -22.76946,-1.31203 c -0.11265,-0.44881 -0.10948,-1.21201 0.007,-1.69601 0.31986,-1.32877 2.68183,-6.16 3.0116,-6.16 0.15876,0 0.21291,-0.197418 0.12032,-0.438707 -0.22218,-0.578986 0.85863,-0.986903 1.19795,-0.452131 0.14338,0.225961 0.26289,0.585804 0.26558,0.799654 0.0116,0.91959 -1.5949,5.013704 -3.04935,7.771184 -0.57772,1.09531 -1.30181,1.17737 -1.55314,0.17601 z M 227.52001,104 c 0,-0.176 -0.26903,-0.32 -0.59783,-0.32 -0.46027,0 -0.72672,-0.46022 -1.15792,-2 -1.05218,-3.75721 -3.9043,-8.732317 -7.20038,-12.56 -0.90934,-1.056 -1.93021,-2.454262 -2.26861,-3.107251 C 215.62929,84.727635 215.4867,83.52 216.00092,83.52 c 0.41033,0 4.51948,4.317987 5.8275,6.123664 0.54823,0.756803 1.24662,1.644182 1.55199,1.971955 1.74213,1.869959 5.82022,11.477271 5.25799,12.386971 -0.25556,0.41351 -1.11839,0.41151 -1.11839,-0.003 z m 48.81151,-1.80668 C 274.69834,100.69093 271.59124,98.56 271.0338,98.56 c -0.17259,0 -0.31379,-0.116451 -0.31379,-0.258784 0,-0.56112 -5.99021,-2.930893 -7.98374,-3.158429 -1.83004,-0.208877 -3.65059,-1.0164 -4.29789,-1.906377 -0.4976,-0.684148 -0.52527,-0.875815 -0.16,-1.108436 0.2429,-0.154688 0.65763,-0.201011 0.92163,-0.102937 0.264,0.09807 1.128,0.327251 1.92,0.509289 5.10433,1.173213 9.46205,3.000007 12.7397,5.340583 0.58143,0.4152 1.12525,0.686813 1.20848,0.603581 0.16143,-0.161431 -1.38296,-3.976836 -1.87189,-4.624474 -0.16026,-0.212288 -0.2061,-0.52399 -0.10185,-0.692666 0.10425,-0.168678 0.0806,-0.354985 -0.0525,-0.414019 -0.13309,-0.05903 -0.61646,-0.899331 -1.07416,-1.867331 -0.45769,-0.968 -1.28574,-2.696 -1.84012,-3.84 -0.55438,-1.144 -1.0079,-2.332 -1.00784,-2.64 8e-5,-0.308 -0.18482,-0.56 -0.41088,-0.56 -0.55478,0 -1.60921,-1.837254 -1.38691,-2.41657 0.0978,-0.254886 0.37865,-0.46343 0.62409,-0.46343 0.44738,0 2.83358,2.433027 3.73383,3.807114 0.264,0.40295 0.804,1.179171 1.2,1.724931 0.396,0.545763 0.72,1.22016 0.72,1.498665 0,0.278503 1.07299,2.649479 2.38442,5.268832 2.2184,4.430855 3.30421,7.519278 2.88314,8.200588 -0.0974,0.15765 -0.046,0.54162 0.1144,0.85326 0.16036,0.31163 0.22702,0.74661 0.14813,0.96661 -0.26687,0.74428 -1.20361,0.38055 -2.79858,-1.08668 z M 50.800002,100.64975 c -0.308,-0.42358 -0.56,-1.057676 -0.56,-1.409113 0,-0.351434 -0.167933,-1.044349 -0.373187,-1.539805 C 49.661563,97.205373 49.469128,96.728 49.439179,96.64 49.165544,95.835949 48.716571,94.817354 47.646398,92.572669 46.957467,91.127638 46.258261,89.588858 46.092606,89.153155 45.64565,87.977565 42.054942,82.636435 40.47699,80.8 38.486405,78.483334 34.385505,74.377738 31.846877,72.16 29.336569,69.967005 28.91112,69.55999 28.567062,69.022314 c -0.135884,-0.212352 -0.823061,-0.810925 -1.527061,-1.33016 -0.704,-0.519236 -2.062406,-1.71384 -3.01868,-2.654679 -0.956273,-0.940841 -2.144274,-1.950208 -2.64,-2.24304 -0.495726,-0.292835 -0.90132,-0.645376 -0.90132,-0.78343 0,-0.138051 -0.146169,-0.251005 -0.324819,-0.251005 -0.446605,0 -2.782667,-2.326074 -4.659927,-4.64 C 12.293307,53.173251 9.3446307,46.306752 7.8685878,39.36 7.625511,38.216 7.3436662,37.064 7.2422655,36.8 6.7221273,35.445802 6.3075388,30.130364 6.2314239,23.84 6.1484921,16.986295 6.1707762,16.703344 7.0735247,13.147422 8.0789452,9.1870755 8.9136966,7.4873466 10.693387,5.776623 c 0.851102,-0.8181196 1.241045,-1.0101913 1.508302,-0.7429344 0.253898,0.253898 0.518199,0.261922 0.894136,0.027146 0.372665,-0.2327331 1.060276,-0.2235878 2.278935,0.03031 1.564561,0.3259639 1.824794,0.5023514 2.513675,1.7037853 0.975823,1.7018723 1.346278,5.7169571 0.745975,8.0850701 -0.57266,2.259068 -0.564107,5.114107 0.02972,9.92 0.282709,2.288 0.662561,6.187504 0.844114,8.665565 0.35976,4.910448 1.15933,8.596832 2.416491,11.141126 0.812936,1.645258 1.459783,2.777824 1.755267,3.073309 0.088,0.088 0.432069,0.664 0.764598,1.28 0.33253,0.616 0.993681,1.552 1.469226,2.08 0.475545,0.528 1.196545,1.464 1.602222,2.08 0.405678,0.616 1.940526,2.309965 3.410775,3.764368 1.470248,1.454403 2.673179,2.786403 2.673179,2.96 0,0.173597 0.133715,0.315632 0.297143,0.315632 0.16343,0 0.48743,0.184461 0.72,0.409917 1.052582,1.020368 6.713859,5.686982 8.435283,6.953245 1.049168,0.77175 2.288077,1.770758 2.753136,2.220012 0.465063,0.449255 1.247005,1.104826 1.737658,1.456826 2.110861,1.514362 5.549312,6.03608 6.874288,9.04 0.252298,0.572 0.567571,1.04 0.700608,1.04 0.133037,0 0.241885,0.268579 0.241885,0.596845 0,0.328265 0.288,0.962979 0.64,1.410473 0.352,0.447495 0.64,0.924295 0.64,1.059552 0,0.135258 0.746461,1.768544 1.6588,3.629527 0.912342,1.860982 1.712343,3.779603 1.777776,4.263603 0.101648,0.751834 0.0054,0.88 -0.660938,0.88 -0.80432,0 -0.989971,-0.310387 -7.095341,-11.862477 C 51.616137,79.925162 50.752003,78.359542 50.400003,77.778368 49.168118,75.744458 42.95279,69.786195 39.200002,67.041606 38.496002,66.526739 37.192118,65.45175 36.302479,64.652742 35.41284,63.853734 33.550545,62.192 32.164046,60.96 30.777548,59.728 29.53058,58.576 29.393007,58.4 c -0.597648,-0.764586 -3.21646,-3.901731 -3.797029,-4.548566 -0.349788,-0.389709 -0.635977,-0.845709 -0.635977,-1.013332 0,-0.167622 -0.108,-0.352768 -0.24,-0.411436 C 24.17066,52.182515 21.795479,48.619248 20.568135,46.198003 19.407416,43.908192 17.692821,38.503184 16.927044,34.72 16.628616,33.245667 15.993035,19.196396 15.948551,13.09077 15.931998,10.818846 15.797322,8.96 15.649271,8.96 c -0.148052,0 -0.190346,-0.2054499 -0.09399,-0.4565555 0.107842,-0.281032 -0.16174,-0.6330941 -0.70121,-0.9157514 -0.772443,-0.4047238 -0.983976,-0.398015 -1.783217,0.056555 -0.498746,0.2836634 -0.907721,0.680345 -0.908833,0.8815149 -0.0011,0.2011699 -0.193989,0.4394275 -0.428613,0.5294615 -0.234624,0.090034 -0.678475,1.0054405 -0.986334,2.0342365 C 10.439215,12.118258 10.105431,13.176 10.005331,13.44 9.66907,14.326843 9.4169432,16.759786 9.1099647,22.079999 c -0.096475,1.672 -0.2350141,3.328 -0.3078644,3.68 -0.07285,0.352 -0.0128,1.168874 0.1334455,1.815276 0.160487,0.709352 0.1428579,1.298318 -0.044469,1.485646 -0.198978,0.198978 -0.2001264,0.523682 -0.0032,0.904724 0.1689427,0.326895 0.3160614,1.041587 0.3269302,1.588204 0.010867,0.546618 0.2387184,2.346618 0.5063325,4.000001 C 9.9887562,37.207232 10.295321,39.208 10.402397,40 c 0.3302,2.442349 0.885623,4.945037 1.168242,5.264 0.148149,0.1672 0.269361,0.561827 0.269361,0.876947 0,0.713187 1.318551,3.779053 1.625274,3.779053 0.12394,0 0.314763,0.356269 0.424051,0.791706 0.400523,1.595808 4.13003,6.673625 5.937286,8.08376 0.623364,0.486387 1.85339,1.545324 2.73339,2.353196 0.88,0.807869 2.451813,2.103911 3.492917,2.880096 3.87345,2.887805 5.169641,3.834816 6.032037,4.407072 0.486723,0.322973 2.273257,1.869037 3.970073,3.435696 1.696817,1.56666 3.437793,3.154122 3.868836,3.527696 0.431043,0.373572 1.308509,1.339751 1.949926,2.147069 0.641418,0.807315 1.969108,2.445667 2.950426,3.640778 0.981315,1.195113 2.19368,2.892931 2.694141,3.772931 0.500464,0.88 1.08999,1.816 1.310064,2.08 1.836941,2.203597 3.674598,6.951635 4.143712,10.706275 0.381798,3.055815 -0.857149,4.711905 -2.172131,2.903475 z m 99.040008,-1.675584 c -0.396,-0.07627 -0.71545,-0.308662 -0.70989,-0.516422 0.0162,-0.604064 1.39283,-2.005571 2.77341,-2.823469 C 152.60378,95.219424 153.77309,94.484 154.502,94 c 0.72891,-0.484 1.58735,-0.88 1.90765,-0.88 0.32029,0 0.75618,-0.173827 0.96864,-0.386285 0.30172,-0.301715 0.50839,-0.262403 0.944,0.179559 0.53029,0.538022 0.53018,0.586281 -0.002,0.981561 -0.308,0.228647 -0.56,0.56305 -0.56,0.74312 0,0.180071 -0.252,0.414179 -0.56,0.52024 -0.83196,0.28649 -2.58808,1.384531 -4.46627,2.792605 -0.91645,0.687059 -1.78045,1.22959 -1.92,1.205622 -0.13955,-0.02397 -0.57773,-0.105984 -0.97373,-0.182256 z M 161.48145,90.94705 C 161.2847,90.628704 162.2298,88.64 162.57784,88.64 c 0.35869,0 2.54217,-4.432416 2.54217,-5.16056 0,-0.802307 1.25628,-2.19944 1.9777,-2.19944 0.57496,0 0.7447,0.600013 0.58841,2.08 -0.13359,1.265101 -2.17282,5.147133 -3.40394,6.48 -1.16494,1.261213 -2.40301,1.750589 -2.80073,1.10705 z m -39.60408,-0.550503 c -0.5651,-0.30704 -0.91171,-0.826077 -1.05238,-1.575923 -0.13644,-0.727277 -0.73673,-1.653517 -1.71737,-2.649885 -2.63318,-2.675401 -3.31125,-4.310633 -1.96468,-4.738019 0.68827,-0.218448 1.63096,0.38471 2.51202,1.60728 0.25368,0.352 1.08888,1.259741 1.85601,2.0172 1.51412,1.495027 2.2163,3.635997 1.66664,5.081693 -0.32738,0.861075 -0.22645,0.841075 -1.30024,0.257654 z M 174.13053,88.32 c 0,-0.44 0.0726,-0.62 0.16141,-0.4 0.0888,0.22 0.0888,0.58 0,0.8 -0.0888,0.22 -0.16141,0.04 -0.16141,-0.4 z m 65.70948,-2.368458 c -1.6884,-0.535072 -4.68273,-2.495728 -5.25442,-3.44054 -0.24993,-0.413053 -0.8738,-1.594845 -1.38637,-2.626205 -0.83699,-1.684119 -0.92226,-2.14064 -0.83677,-4.48 0.10156,-2.779149 0.47645,-3.879683 1.72488,-5.063581 0.42989,-0.407667 0.78411,-0.894275 0.78715,-1.081347 0.008,-0.515015 1.6418,-1.910109 2.72553,-2.32785 2.8648,-1.104272 5.13152,-1.052861 7.84,0.177827 2.45089,1.113645 3.29033,2.09937 4.90223,5.756528 0.17123,0.388509 0.32402,2.260509 0.33952,4.16 0.0229,2.799338 -0.089,3.696122 -0.59045,4.733626 -0.9177,1.89881 -2.35391,3.579843 -3.53887,4.142144 -1.27083,0.603046 -4.88156,0.629619 -6.71243,0.0494 z m 6.33844,-2.295968 c 1.03433,-0.758758 1.74211,-1.603699 2.16,-2.578595 1.2334,-2.877408 0.55419,-7.126265 -1.44967,-9.06848 -1.77794,-2.359974 -3.566,-3.521759 -6.64955,-3.674269 -0.95296,0.167888 -4.03885,2.296692 -4.06559,2.804656 -0.007,0.142388 0.1158,0.178896 0.27398,0.08113 0.15819,-0.09776 0.87863,-0.252013 1.60098,-0.342771 1.97125,-0.247677 3.32556,0.454147 4.14572,2.148368 0.70674,1.459933 0.91362,3.134387 0.38725,3.134387 -0.16414,0 -0.39914,0.317283 -0.52221,0.705075 -0.5621,1.771005 -2.15807,2.003379 -4.81879,0.701613 -1.32309,-0.647328 -1.79241,-1.079933 -2.1028,-1.93831 -0.33942,-0.938644 -0.45464,-1.02969 -0.76535,-0.604768 -0.23921,0.327136 -0.28002,0.9692 -0.11794,1.855539 0.67381,3.266115 2.34998,5.494325 4.86553,6.951376 1.36074,0.780381 2.04486,0.962531 3.6,0.958537 1.68893,-0.0044 2.10515,-0.140748 3.45844,-1.133488 z M 110.2565,79.37823 c -0.26378,-0.291472 -0.56912,-1.098809 -0.67853,-1.794089 -0.10943,-0.695277 -0.24191,-1.308819 -0.29441,-1.363424 -0.12468,-0.12968 0.62622,-2.811079 1.15958,-4.140717 0.28534,-0.71135 0.62981,-1.04 1.09007,-1.04 0.73423,0 0.77495,0.554301 0.29552,4.022736 -0.20308,1.469174 -0.14468,1.708659 0.61718,2.530717 0.77189,0.83288 0.7999,0.953939 0.33864,1.463619 -0.72197,0.797773 -1.95497,0.95441 -2.52805,0.321158 z m 157.34579,-2.621155 c -0.83185,-0.526691 -0.97443,-0.765933 -0.72935,-1.223859 0.39338,-0.73504 0.65513,-4.450461 0.32779,-4.652768 -0.13764,-0.08507 -0.17501,-1.36079 -0.083,-2.834938 0.11111,-1.780985 -0.0178,-3.786534 -0.38411,-5.977443 -0.68242,-4.08112 -0.61406,-3.785123 -1.58588,-6.867021 -0.67768,-2.149088 -0.73768,-2.628195 -0.37464,-2.991238 0.78811,-0.788112 1.77866,0.161955 3.06533,2.940048 1.3277,2.866678 1.70533,4.588355 1.80079,8.210144 0.0348,1.32 0.16696,4.218086 0.29371,6.440192 0.19827,3.475827 0.1502,4.25808 -0.3441,5.6 -0.76937,2.088662 -0.79889,2.108829 -1.9865,1.356883 z M 165.05832,74.922026 c -1.49408,-1.459991 -3.07978,-2.631824 -4.47064,-3.303815 -1.95228,-0.943238 -2.28756,-1.349449 -1.61364,-1.954985 0.41442,-0.372368 0.85436,-0.429466 1.82597,-0.236983 1.45146,0.287546 2.48482,0.663069 2.72,0.988448 0.088,0.121757 0.88,0.593674 1.76,1.048704 1.89874,0.981802 3.68,2.514928 3.68,3.167379 0,0.553236 -1.33907,1.224906 -2.33506,1.171252 -0.38772,-0.0209 -1.0927,-0.416887 -1.56663,-0.88 z m 41.95886,-3.538144 c -0.73227,-0.781748 -1.90467,-5.800663 -2.11264,-9.043924 -0.35925,-5.602601 0.99188,-11.459958 2.6435,-11.459958 0.72737,0 0.82308,1.213914 0.31112,3.946058 -0.27566,1.471123 -0.52837,3.453084 -0.56158,4.404355 -0.0914,2.619059 0.41839,7.969587 0.75937,7.969587 0.16545,0 0.2183,0.13353 0.11744,0.29673 -0.10086,0.1632 0.10664,1.032531 0.46111,1.931846 0.35448,0.899315 0.64451,1.82512 0.64451,2.057344 0,0.566374 -1.70891,0.489312 -2.26283,-0.102038 z M 64.800002,70.344854 c -0.528,-0.1916 -1.176,-0.520454 -1.44,-0.730784 -0.264,-0.210329 -1.293168,-0.78358 -2.28704,-1.273894 -1.57991,-0.779424 -2.80815,-1.827299 -5.331011,-4.548163 C 55.094239,63.093469 54.300517,60.72392 53.935803,58.4 c -0.139062,-0.886086 -0.0054,-1.846253 0.434423,-3.12 0.349418,-1.012 0.579158,-1.84 0.510534,-1.84 -0.06862,0 0.169383,-0.684 0.528903,-1.52 1.594377,-3.707443 2.587677,-5.487686 3.553222,-6.368278 0.570413,-0.520224 1.685117,-1.717063 2.477117,-2.659642 0.792,-0.942576 2.132947,-2.374893 2.979882,-3.182928 5.542653,-5.288064 6.869395,-7.138838 8.565255,-11.948328 1.444342,-4.096185 6.110105,-6.887208 8.599046,-5.143885 3.638756,2.548682 4.31912,6.685494 1.937373,11.779736 -0.571113,1.221533 -1.06543,2.37 -1.09848,2.552147 -0.03305,0.182148 -0.375766,0.93744 -0.761587,1.678429 -0.385818,0.740989 -0.701488,1.568989 -0.701488,1.84 0,0.271011 -0.144,0.492749 -0.32,0.492749 -0.176,0 -0.32,0.279501 -0.32,0.621114 0,0.341612 -0.117843,0.693945 -0.261872,0.782963 -0.144032,0.08901 -1.030311,1.681513 -1.969514,3.538883 -0.9392,1.857373 -1.829357,3.37704 -1.978125,3.37704 -0.148768,0 -0.270489,0.188954 -0.270489,0.419894 0,0.230941 -0.291965,1.024192 -0.64881,1.762775 -0.844976,1.748896 -1.342429,4.3972 -1.100419,5.858307 0.11464,0.692131 0.649795,1.660448 1.325177,2.397795 0.941034,1.02737 1.08641,1.368237 0.858468,2.012874 -0.435181,1.23071 -0.923428,1.133037 -2.614768,-0.523082 -1.175684,-1.151197 -1.731591,-2.020537 -2.158909,-3.376153 -0.571271,-1.812279 -0.56993,-1.844026 0.181936,-4.309069 0.416598,-1.365837 0.858288,-2.627341 0.981533,-2.803341 0.123244,-0.176 0.53583,-1.46535 0.916851,-2.865226 0.381024,-1.399872 1.17591,-3.487872 1.766416,-4.64 C 75.937983,42.06265 76.66878,40.328 76.971471,39.36 c 0.599463,-1.917072 3.192826,-7.464641 3.78233,-8.090942 0.553181,-0.587709 1.486202,-2.730817 1.486202,-3.413742 0,-0.331635 -0.09204,-0.842823 -0.204531,-1.135975 -0.135631,-0.52196 -0.684327,-1.141065 -1.238532,-1.441882 -0.722457,-0.599587 -2.801561,-0.204493 -3.704973,0.704059 -1.362835,1.370591 -1.916172,2.13663 -2.438713,3.547954 -0.522541,1.411324 -1.372179,3.512979 -2.333252,5.573965 C 71.36711,36.492064 68.787199,39.115987 65.775097,41.76 62.819701,44.354237 60.1527,47.155731 59.279944,48.582698 58.883912,49.230214 58.120309,50.84 57.583052,52.16 c -0.537258,1.32 -1.134064,2.717459 -1.326234,3.105466 -0.482874,0.97494 -0.116662,3.623907 0.682128,4.93414 0.362266,0.594218 0.659203,1.329008 0.659859,1.632868 6.4e-4,0.303862 0.757197,1.341334 1.681197,2.305491 1.269859,1.325053 2.265914,1.997494 4.08,2.754435 4.448439,1.856147 4.800013,2.029853 4.795101,2.369184 -0.01635,1.129629 -1.715526,1.678246 -3.355101,1.08327 z m 49.920728,-1.522192 c 0.17891,-1.804096 0.33694,-2.178297 1.28379,-3.04 1.89513,-1.724713 2.20178,-1.928745 4.00189,-2.662662 2.90197,-1.183158 5.16434,-0.792224 4.65746,0.804806 -0.12521,0.394503 -0.75523,0.739373 -1.86644,1.021684 -2.51684,0.639424 -4.94296,1.888368 -5.85079,3.011945 -0.44508,0.550861 -1.1739,1.433565 -1.61959,1.961565 l -0.81035,0.96 z m 36.72771,0.910231 c -2.90602,-0.987789 -5.52843,-2.285891 -5.52843,-2.736592 0,-0.239965 -0.14961,-0.436301 -0.33247,-0.436301 -0.18286,0 -0.0642,-0.287926 0.26363,-0.639837 0.59475,-0.638387 0.60038,-0.637798 2.49247,0.260912 1.043,0.495411 2.83237,1.172413 3.97637,1.504448 1.93755,0.562355 2.54298,0.921213 2.5551,1.514477 0.003,0.132 -0.20082,0.24 -0.45225,0.24 -0.25143,0 -0.65001,0.192864 -0.88573,0.428589 -0.35812,0.358118 -0.70155,0.335805 -2.08869,-0.135696 z m 58.96503,-2.650339 c -0.54363,-0.543632 -0.81346,-1.164836 -0.81346,-1.872746 0,-1.203776 1.01152,-3.338976 1.97326,-4.165312 0.64177,-0.551411 0.63872,-0.562013 -0.41488,-1.44 -1.79995,-1.499946 -2.12574,-1.90529 -2.34924,-2.922864 -0.24251,-1.104125 0.5652,-2.822723 1.41307,-3.006653 1.04706,-0.227145 1.46246,0.39193 1.34839,2.009552 -0.0904,1.281491 0.0117,1.65265 0.58695,2.133431 0.38299,0.320121 0.99425,0.834038 1.35836,1.142038 0.36411,0.308 0.67598,0.566592 0.69305,0.57465 0.0171,0.0081 1.32704,0.0939 2.91104,0.190764 2.60847,0.159508 2.9525,0.112871 3.64896,-0.494652 0.42293,-0.368919 0.96649,-0.670762 1.20792,-0.670762 0.24143,0 0.57583,-0.36 0.74312,-0.8 0.21093,-0.5548 0.546,-0.8 1.09319,-0.8 0.98436,0 1.10273,0.195187 1.50123,2.475366 0.17731,1.014551 0.40037,2.276634 0.49568,2.804634 0.0953,0.528 0.30811,1.212 0.47286,1.52 0.40135,0.75031 -0.12447,1.68584 -0.98393,1.750582 -0.85092,0.0641 -3.56652,-1.142752 -4.17903,-1.857212 -0.25934,-0.3025 -3.61028,-1.792288 -4.48,-1.991757 -0.44,-0.100912 -1.30257,-0.07845 -1.91682,0.04992 -1.40028,0.292637 -2.55011,2.130851 -2.55792,4.089283 -0.007,1.853213 -0.68473,2.348807 -1.7518,1.281735 z m 13.27251,-5.620384 -0.35151,-1.305399 -0.94723,0.489831 c -0.52098,0.269408 -0.94723,0.610652 -0.94723,0.75832 0,0.383731 2.38,1.924684 2.49874,1.61783 0.0543,-0.140352 -0.0594,-0.842614 -0.25277,-1.560582 z M 137.92,63.426106 c -1.52825,-0.74418 -2.16029,-0.857626 -4.8,-0.861568 -3.00633,-0.0045 -3.04,-0.01315 -3.04,-0.783626 0,-0.666275 0.23169,-0.839146 1.6,-1.193827 3.27772,-0.849623 6.32288,-0.314842 9.45079,1.659721 1.4797,0.934096 1.58066,1.330624 0.44838,1.761114 -1.19219,0.45327 -1.69899,0.372688 -3.65917,-0.581814 z m 98.72001,-5.194308 c -0.88,-0.149596 -1.99448,-0.38928 -2.47663,-0.532624 -1.09424,-0.325324 -4.40337,-2.9351 -4.40337,-3.472755 0,-0.21887 -0.19766,-0.473795 -0.43924,-0.566496 -0.50388,-0.193357 -1.36622,-3.626243 -1.62858,-6.483184 -0.19268,-2.098288 0.0585,-3.185443 1.35481,-5.862512 0.71368,-1.473913 1.07528,-1.835488 2.47773,-2.477552 0.90316,-0.413478 2.42357,-0.901187 3.37869,-1.083798 1.88477,-0.360352 4.72266,-0.339024 4.9552,0.03724 0.0796,0.12881 0.75127,0.336669 1.49259,0.461914 3.56413,0.602157 7.23265,4.910224 7.93727,9.321014 0.48996,3.067011 -0.0269,4.845437 -2.05238,7.061613 -1.79479,1.963779 -3.16183,2.75673 -5.65215,3.278509 -2.74928,0.576032 -3.24274,0.607837 -4.94394,0.318633 z m 4.92678,-2.398288 c 3.19535,-0.588224 6.03772,-4.162732 5.69909,-7.167049 -0.14783,-1.311562 -0.38229,-1.655504 -2.35502,-3.454691 -1.20497,-1.098964 -2.62285,-2.22384 -3.15085,-2.499728 -0.528,-0.275888 -1.59465,-0.85496 -2.37033,-1.286829 C 238.38153,40.86392 237.48887,40.64 236.2594,40.64 c -1.98927,0 -3.93939,0.704765 -3.93939,1.42367 0,0.272983 -0.108,0.496586 -0.24,0.496903 -0.132,3.13e-4 -0.65573,0.658589 -1.16383,1.462832 -0.86514,1.369363 -0.91059,1.604688 -0.71548,3.70407 0.20203,2.17376 0.77775,3.776675 1.6808,4.679735 0.24118,0.241177 0.43851,0.560473 0.43851,0.709548 0,0.149076 0.54,0.599188 1.2,1.00025 0.66,0.401066 1.2881,0.85711 1.39577,1.01343 0.10768,0.156324 0.25168,0.261802 0.32,0.234397 0.0683,-0.02739 0.48423,0.08362 0.92423,0.246723 0.44,0.163101 0.99053,0.356736 1.2234,0.430298 0.52862,0.166982 2.74382,0.05666 4.18338,-0.208346 z m -7.91877,-2.075516 c -1.39468,-1.010301 -1.40946,-1.051095 -1.38264,-3.814704 0.0179,-1.846244 0.32288,-2.246183 1.97463,-2.589639 0.92707,-0.192771 3.37852,0.537274 4.25123,1.266019 0.77038,0.643293 1.55104,2.132026 1.66569,3.176496 0.29686,2.704333 -3.78537,3.934746 -6.50891,1.961828 z M 76.800003,56.16271 c 0,-0.262508 0.288,-0.657145 0.64,-0.876972 0.352,-0.219828 0.64,-0.626532 0.64,-0.903789 0,-0.545463 2.152627,-1.901949 3.018227,-1.901949 0.292099,0 1.207347,-0.36 2.033885,-0.8 0.826538,-0.44 1.738797,-0.8 2.027242,-0.8 0.288448,0 1.441593,-0.343603 2.562547,-0.763558 1.120954,-0.419959 2.617648,-0.843188 3.325987,-0.940506 0.708339,-0.09732 1.683591,-0.327389 2.167223,-0.511264 0.483635,-0.183878 3.014573,-0.700534 5.624307,-1.148125 2.609729,-0.44759 5.162479,-0.929737 5.672779,-1.071433 1.25612,-0.348804 10.27281,-0.176298 13.2478,0.253452 6.36801,0.919885 8.42714,1.044301 14.24,0.860416 13.48126,-0.42647 17.51313,-0.847004 24.96001,-2.603379 13.86507,-3.270131 15.05007,-3.574112 16.47426,-4.226051 1.29076,-0.590854 5.00827,-0.858499 5.3029,-0.381786 0.44977,0.727751 -1.31836,1.85778 -3.43621,2.196106 -1.15364,0.184294 -2.6943,0.545635 -3.42369,0.802982 -0.7294,0.257344 -1.36017,0.464285 -1.40172,0.459866 -0.0416,-0.0044 -0.29154,0.05757 -0.55554,0.137741 -0.264,0.08018 -1.344,0.314265 -2.4,0.520198 -1.056,0.205936 -2.64,0.568227 -3.52,0.805095 -0.88,0.236864 -2.392,0.608777 -3.36,0.82647 -0.968,0.217693 -2.696,0.654502 -3.84,0.970688 -4.71884,1.304214 -11.66902,2.225875 -17.76001,2.355142 -1.584,0.03362 -3.744,0.168096 -4.8,0.298842 -2.53367,0.313699 -14.24382,0.35112 -14.96,0.0478 -0.33157,-0.140429 -0.56,-0.09793 -0.56,0.104182 0,0.187747 -0.396,0.329405 -0.88,0.3148 -1.61169,-0.04864 -14.27121,0.345875 -17.68,0.550966 -1.847997,0.111188 -5.375997,0.636164 -7.839997,1.166612 -2.464,0.530451 -5.056,1.068841 -5.76,1.196425 -1.39345,0.252531 -4.875584,1.585751 -7.269363,2.783251 -1.740992,0.870941 -2.490637,0.954548 -2.490637,0.277776 z M 196.02029,46.497472 c -0.12324,-0.321171 0.0586,-0.903414 0.44576,-1.42704 0.35968,-0.486483 0.65396,-0.961443 0.65396,-1.055462 0,-0.145117 1.84949,-3.008064 8.48532,-13.13497 1.0247,-1.563802 3.39283,-6.368304 3.80481,-7.719268 0.15808,-0.518391 -0.0494,-0.897333 -0.87582,-1.6 -2.00298,-1.702932 -2.38322,-1.97504 -3.0601,-2.189875 -0.37082,-0.117692 -0.67421,-0.348281 -0.67421,-0.512421 0,-0.16414 -0.1551,-0.298436 -0.34466,-0.298436 -0.18955,0 -1.68294,-0.655414 -3.31864,-1.456476 -2.18295,-1.069076 -3.19063,-1.402104 -3.78847,-1.252055 -0.92515,0.232196 -6.22426,-1.765998 -6.82351,-2.573015 C 190.32933,13.015305 190.03352,12.8 189.86738,12.8 c -0.16614,0 -0.94227,-0.402959 -1.72472,-0.895464 -1.24823,-0.785675 -1.5187,-0.846844 -2.206,-0.498908 -1.11426,0.564072 -2.01406,2.42912 -1.64291,3.40532 0.47874,1.259161 2.32335,2.575551 5.14626,3.672562 3.48772,1.355368 4.44836,1.690956 5.35053,1.869152 1.28187,0.253195 1.56419,1.036102 0.9084,2.519066 -0.27441,0.62055 -0.73634,1.668272 -1.0265,2.328272 -0.29016,0.66 -1.01016,1.958796 -1.6,2.886213 -0.58984,0.927418 -1.07243,1.770535 -1.07243,1.873593 0,0.103058 -0.4351,0.832071 -0.96689,1.62003 -0.53179,0.787959 -1.25471,1.996842 -1.6065,2.686407 -0.35179,0.689568 -0.78069,1.253757 -0.95312,1.253757 -0.17242,0 -0.31349,0.216 -0.31349,0.48 0,0.264 -0.12653,0.48 -0.28118,0.48 -0.15465,0 -0.47124,0.468 -0.70353,1.04 -0.67909,1.672179 -3.06383,5.248755 -3.64958,5.473526 -0.85215,0.327002 -0.8996,0.26897 -0.71419,-0.873536 0.14045,-0.865526 0.0718,-1.072064 -0.34587,-1.04 -1.19945,0.09209 -0.64046,-1.175097 1.84547,-4.183536 2.51495,-3.043568 5.47412,-7.258554 6.47048,-9.216454 0.26869,-0.528 0.94051,-1.802152 1.49292,-2.831448 0.5524,-1.029297 0.93093,-1.990286 0.84116,-2.135533 -0.0898,-0.145247 -0.91752,-0.510149 -1.83945,-0.810894 -0.92193,-0.300744 -1.82023,-0.651899 -1.99623,-0.780343 -0.176,-0.128443 -0.74707,-0.33593 -1.26904,-0.461082 -0.8268,-0.198238 -3.53954,-1.942581 -4.50088,-2.89414 -0.72001,-0.712691 -1.75008,-2.807229 -1.75008,-3.558602 0,-0.437503 0.56532,-1.689272 1.25627,-2.781709 2.18807,-3.4594528 2.35848,-3.6149978 4.0568,-3.7029101 5.25369,1.0781469 9.18401,4.4712451 13.98154,6.5082691 1.19605,0.50426 2.24878,1.036815 2.33941,1.183457 0.0906,0.146641 0.84005,0.569841 1.66537,0.940443 1.48139,0.665197 4.92023,3.043257 5.12726,3.545656 0.0587,0.14236 0.28755,0.258836 0.50864,0.258836 0.59768,0 1.1755,1.51279 0.95426,2.498337 -0.74007,3.29671 -3.75072,9.680533 -5.53745,11.741663 -0.30514,0.352 -1.27435,1.72 -2.1538,3.04 -0.87945,1.32 -2.11297,3.130506 -2.74114,4.023344 -0.62818,0.892842 -1.37082,2.065558 -1.65032,2.606042 -0.62955,1.217424 -2.35124,2.970614 -2.91723,2.970614 -0.23163,0 -0.51484,-0.244138 -0.62934,-0.542528 z m 69.01972,0.01059 c -0.6399,-0.258208 -0.45407,-1.166294 0.40553,-1.981658 0.43696,-0.414473 0.79447,-0.907132 0.79447,-1.094803 0,-0.187667 0.20155,-0.568553 0.4479,-0.846413 1.02677,-1.158137 3.83592,-11.528046 3.27486,-12.089105 -0.0833,-0.08332 -0.89596,0.436971 -1.80586,1.156207 -0.90991,0.719241 -1.85744,1.307708 -2.10564,1.307708 -0.24819,0 -0.45126,0.131155 -0.45126,0.291453 0,0.160301 -0.612,0.606627 -1.36,0.99184 -0.748,0.385209 -1.972,1.040374 -2.72,1.455917 -0.748,0.415545 -1.36221,0.653219 -1.3649,0.528163 -0.003,-0.125056 -0.11069,-0.07601 -0.24,0.108989 -0.12931,0.184995 -1.03173,0.780524 -2.00539,1.323392 -1.72453,0.961516 -1.78864,0.972179 -2.48,0.412345 -0.97865,-0.792457 -0.88803,-1.467328 0.25029,-1.86415 0.528,-0.184061 0.96,-0.486147 0.96,-0.671303 0,-0.185155 0.14809,-0.336646 0.3291,-0.336646 0.18101,0 1.36901,-0.513709 2.64,-1.141574 5.61208,-2.772349 8.42246,-4.936303 10.2262,-7.874022 0.41525,-0.676319 0.80364,-0.904404 1.54006,-0.904404 h 0.98476 l -0.17684,2.48 c -0.41194,5.776669 -0.60665,7.326666 -1.02308,8.144109 -0.24211,0.475261 -0.4402,1.213673 -0.4402,1.640921 0,0.427245 -0.21765,1.297709 -0.48366,1.934362 -0.26601,0.636653 -0.49307,1.26624 -0.50459,1.399082 -0.0655,0.755987 -2.37148,4.569091 -2.85616,4.722924 -0.31706,0.100631 -0.65725,0.393482 -0.75598,0.650784 -0.18543,0.483191 -0.39386,0.532596 -1.07961,0.255888 z m -48.8,-4.293696 c -0.88523,-0.515597 -0.67821,-1.037152 1.14539,-2.885674 4.15125,-4.207968 8.85461,-9.947899 8.85461,-10.806079 0,-0.136929 0.42076,-1.030534 0.93503,-1.985789 0.51427,-0.955254 1.03333,-2.271695 1.15347,-2.925425 0.28313,-1.540575 0.88472,-2.057456 1.87141,-1.607892 0.69037,0.314553 0.72476,0.456987 0.50368,2.086136 -0.21648,1.595249 -0.73151,3.022313 -1.23801,3.430355 -0.10924,0.088 -0.37853,0.52 -0.59844,0.96 -0.21991,0.44 -0.75002,1.376 -1.17803,2.08 -0.428,0.704 -0.95226,1.604 -1.16502,2 -0.21275,0.396 -0.50771,0.72 -0.65546,0.72 -0.14775,0 -0.26863,0.154054 -0.26863,0.342342 0,0.987357 -3.60003,5.122544 -6.87558,7.897658 -1.3179,1.116554 -1.61636,1.199971 -2.48442,0.694368 z m 35.55542,-4.486285 c -0.23948,-0.150409 -0.6753,-0.198902 -0.96849,-0.10776 -0.29319,0.09114 -0.62929,0.01002 -0.7469,-0.180272 -0.11761,-0.190291 -0.80243,-0.717555 -1.52184,-1.171696 -1.27688,-0.806057 -1.71549,-1.13143 -2.62644,-1.948355 -0.24532,-0.22 -0.53613,-0.4 -0.64625,-0.4 -0.11012,0 -0.6604,-0.431334 -1.22286,-0.958518 -0.56245,-0.527188 -1.13064,-0.959188 -1.26264,-0.96 -0.132,-9.6e-4 -0.31011,-0.0033 -0.39581,-0.0055 -0.0857,-0.0022 -0.93173,-0.830196 -1.88009,-1.84 -3.99009,-4.248612 -5.9641,-6.630316 -5.9641,-7.195875 0,-0.331213 -0.14583,-0.874693 -0.32407,-1.207732 -0.25219,-0.471229 -0.19713,-0.673461 0.24826,-0.911829 0.78172,-0.418364 1.54148,0.05962 2.1572,1.357158 0.73804,1.55531 3.22856,4.359008 5.59861,6.302613 1.144,0.938161 2.152,1.795446 2.24,1.905076 0.088,0.10963 0.952,0.784085 1.92,1.49879 0.968,0.714705 2.192,1.676833 2.72,2.138065 1.06878,0.933629 2.72667,1.797728 3.44918,1.797728 0.63662,0 1.30255,0.847264 1.0937,1.39152 -0.21585,0.562512 -1.30243,0.851437 -1.86746,0.496563 z"
     id="path6334"
     inkscape:connector-curvature="0"
     sodipodi:nodetypes="ccssccccccscssssccscscssscscscccscccscccsccscsccsssccsscccsccccsscccccscssssccccsccccssccccscccccssccccccccsscccccccccsccccccssscsccssccsccscccccsscsscscscsssccscscccssssccscccccsccsccsccsccsccccccscccccccscscsccccccssscccsscccccscscsccscccccccsccsccscsccssssssssssssssscccscssscccccsscsccsscsssccscsssscsscsssssscsccscssssccsscccccsccccsscscscsccccssscccccccccccscsscccscccsccccccssccccccscccccccsccccssscccccccccsccccccssscssccccsccsscscccccscsscccsssscsssccssscsccccccsscsccszcsssccccsccccccscccccssccscscccsccscccscccscssccccccccccccsccccsscccccsccccscscccccsccscssccccscccccsccccccccsssscccscsssccscccccsccscscccssccccsccccsscccsccccscsssscsssccccccccscccsccccccsccsccscccsscccsscccccccssscscccsscccccccsscsscsccsssccccccsccsssccssssssccc" />
</svg>
