<?xml version="1.0" encoding="UTF-8" standalone="no"?>
<!-- Created with Inkscape (http://www.inkscape.org/) -->

<svg
   xmlns:dc="http://purl.org/dc/elements/1.1/"
   xmlns:cc="http://creativecommons.org/ns#"
   xmlns:rdf="http://www.w3.org/1999/02/22-rdf-syntax-ns#"
   xmlns:svg="http://www.w3.org/2000/svg"
   xmlns="http://www.w3.org/2000/svg"
   xmlns:sodipodi="http://sodipodi.sourceforge.net/DTD/sodipodi-0.dtd"
   xmlns:inkscape="http://www.inkscape.org/namespaces/inkscape"
   version="1.1"
   id="svg6374"
   width="71.040001"
   height="67.839996"
   viewBox="0 0 71.040001 67.839996"
   sodipodi:docname="reduce-into.svg"
   inkscape:version="0.92.3 (2405546, 2018-03-11)">
  <metadata
     id="metadata6380">
    <rdf:RDF>
      <cc:Work
         rdf:about="">
        <dc:format>image/svg+xml</dc:format>
        <dc:type
           rdf:resource="http://purl.org/dc/dcmitype/StillImage" />
        <dc:title></dc:title>
      </cc:Work>
    </rdf:RDF>
  </metadata>
  <defs
     id="defs6378" />
  <sodipodi:namedview
     pagecolor="#ffffff"
     bordercolor="#666666"
     borderopacity="1"
     objecttolerance="10"
     gridtolerance="10"
     guidetolerance="10"
     inkscape:pageopacity="0"
     inkscape:pageshadow="2"
     inkscape:window-width="3832"
     inkscape:window-height="2084"
     id="namedview6376"
     showgrid="false"
     inkscape:zoom="17.862844"
     inkscape:cx="33.876953"
     inkscape:cy="33.223808"
     inkscape:window-x="0"
     inkscape:window-y="28"
     inkscape:window-maximized="0"
     inkscape:current-layer="svg6374" />
  <path
     style="fill:#000000;stroke-width:1"
     d="m 28.835673,62.639996 c -0.449865,-1.40094 -0.612499,-6.151379 -0.331401,-9.679999 0.615447,-7.725712 1.320566,-13.132934 1.842904,-14.132358 0.168919,-0.323203 0.552575,-1.235641 0.852571,-2.027641 0.299996,-0.792 0.654473,-1.656 0.787726,-1.92 0.292198,-0.578899 1.165583,-0.645283 1.052527,-0.08 -0.044,0.22 0.127501,0.4 0.381114,0.4 0.586493,0 1.00104,0.646304 0.587392,0.915776 -0.480576,0.313072 -1.624934,4.05183 -2.168341,7.084223 -0.734454,4.098509 -1.57735,10.981181 -1.547974,12.64 0.0094,0.528 0.04926,2.25206 0.08868,3.831241 0.04582,1.835683 -0.05321,2.912874 -0.274596,2.986669 -0.190449,0.06348 -0.346272,0.319424 -0.346272,0.568755 0,0.836454 -0.586972,0.463904 -0.924327,-0.586666 z m 29.579777,-2.08 c 0.06938,-1.363999 0.205936,-2.839999 0.303463,-3.279999 0.397302,-1.792464 0.391478,-6.453386 -0.01229,-9.840294 -0.236064,-1.98016 -0.49704,-3.710045 -0.579943,-3.844182 -0.0829,-0.134141 -0.238601,-1.057604 -0.345996,-2.052141 -0.107396,-0.994538 -0.492132,-2.648656 -0.854973,-3.675817 -0.362839,-1.027159 -0.735901,-2.263565 -0.829027,-2.747565 -0.148906,-0.773917 -0.0711,-0.88 0.645436,-0.88 0.533716,0 0.884823,0.220762 1.017885,0.64 0.111722,0.352 0.317991,0.64 0.458378,0.64 0.483629,0 2.479907,7.067923 2.147971,7.605004 -0.145165,0.234883 0.08721,1.571303 0.652906,3.754995 0.386848,1.493296 0.345097,7.832361 -0.06691,10.158969 -0.670615,3.786931 -1.447677,6.00103 -2.106132,6.00103 -0.492153,0 -0.54224,-0.288358 -0.430768,-2.48 z M 19.461237,59.846742 c -1.528319,-0.668755 -3.400319,-1.663552 -4.16,-2.210662 -0.75968,-0.547107 -1.76588,-1.243159 -2.236,-1.546778 -0.470119,-0.303616 -1.07979,-1.02392 -1.354823,-1.600668 -0.275033,-0.576752 -0.646389,-1.048637 -0.825237,-1.048637 -0.178847,0 -0.325177,-0.272595 -0.325177,-0.605763 0,-0.333171 -0.18435,-0.676506 -0.409666,-0.762967 C 9.7706888,51.925584 9.1979995,50.92457 8.370348,48.959997 7.3385633,46.51088 7.187778,42.022858 8.0101844,38.239998 c 0.1530522,-0.704 0.582705,-2.648 0.9547844,-4.32 C 9.863627,29.88173 9.7066952,28.553333 8.1350334,26.894757 7.4602331,26.18264 6.7292151,25.599998 6.5105489,25.599998 c -0.4958963,0 -1.853001,-1.262212 -2.1099149,-1.962383 -0.1054234,-0.287312 -0.039648,-1.121337 0.1461667,-1.853389 0.2740566,-1.079699 0.5486995,-1.419106 1.4546019,-1.797616 2.3169809,-0.968097 4.7552454,-0.407973 7.4386284,1.708818 2.928844,2.310424 4.955403,8.807261 3.856032,12.36185 -0.94218,3.046345 -1.696632,10.900143 -1.08964,11.343081 0.150467,0.109802 0.262752,0.559638 0.249522,0.999638 -0.03388,1.126599 0.552213,2.188429 2.250585,4.077427 1.607367,1.787776 3.767456,2.770294 5.682212,2.58455 0.927325,-0.08995 1.062719,-0.0032 1.148478,0.736199 0.07508,0.647289 -0.07068,0.883142 -0.64,1.035629 -1.30167,0.348636 -2.62425,0.221548 -4.382529,-0.421127 -3.03641,-1.109846 -4.823849,-3.010947 -6.094841,-6.482412 -1.137721,-3.107462 -1.113001,-4.915014 0.14565,-10.650265 0.270374,-1.232 0.585436,-2.672 0.700138,-3.2 0.892722,-4.109396 -0.868091,-9.772967 -3.625943,-11.662678 -1.465427,-1.004126 -3.7688728,-1.249205 -4.6075352,-0.490226 -0.9222141,0.834592 -0.7784375,1.404443 0.4878403,1.933528 0.616,0.257381 1.12,0.610033 1.12,0.783671 0,0.173638 0.18,0.318193 0.4,0.321234 0.540938,0.0075 1.6190039,1.190582 2.3276779,2.554471 0.663121,1.276221 0.765407,4.368219 0.202199,6.112266 -0.193195,0.598252 -0.410441,1.591734 -0.482768,2.207734 -0.07233,0.616 -0.213703,1.336 -0.314168,1.6 -0.687282,1.806022 -0.9954996,7.058627 -0.547742,9.334534 0.405165,2.059417 1.239474,4.105465 1.674069,4.105465 0.143403,0 0.260732,0.216 0.260732,0.48 0,0.264 0.112953,0.48 0.251006,0.48 0.138053,0 0.525248,0.464256 0.860433,1.03168 1.314888,2.225926 4.310942,4.286422 8.026065,5.519814 2.328364,0.772998 3.548812,2.777737 1.643611,2.69984 -0.385613,-0.01578 -1.951558,-0.575834 -3.479878,-1.244589 z M 43.276772,36.641563 c -1.118851,-0.48625 -2.610083,-1.985946 -2.626659,-2.641565 -0.01619,-0.640598 1.191644,-0.46425 2.73966,0.4 2.202368,1.229568 4.380445,0.96609 6.571869,-0.794986 1.753895,-1.409468 2.924784,-1.209488 2.172253,0.371005 -1.186441,2.491808 -5.954861,3.926861 -8.857123,2.665546 z m 1.542896,-2.638819 c -1.891216,-0.167028 -2.770554,-1.34008 -1.962077,-2.617443 0.244995,-0.387084 0.410813,-0.374091 1.115101,0.08738 0.825206,0.540696 0.827309,0.539675 0.827309,-0.400751 0,-0.538814 -0.34281,-1.35023 -0.8,-1.893571 -1.265562,-1.504033 -1.011316,-1.855363 1.6,-2.210975 2.176352,-0.296377 2.464844,-0.264968 2.833865,0.308533 0.294973,0.458419 0.176051,0.721834 -0.67808,1.501961 -0.842,0.76905 -1.035785,1.188897 -1.035785,2.244084 0,1.163207 0.08121,1.298039 0.781856,1.298039 0.432496,0 0.993014,-0.301472 1.254425,-0.674691 0.259914,-0.371079 0.62808,-0.578581 0.818144,-0.461114 0.638948,0.39489 0.364519,1.714451 -0.497581,2.392579 -0.833555,0.655674 -1.219296,0.694272 -4.257177,0.425972 z m -9.926103,-2.376063 c -0.608537,-0.35635 -1.976537,-0.833138 -3.039999,-1.05953 -2.524871,-0.5375 -3.742057,-1.11903 -3.624111,-1.731479 0.241575,-1.254392 4.185361,-0.79451 7.814094,0.911196 1.760733,0.827641 1.982672,1.247029 1.042474,1.969923 -0.921283,0.708353 -0.821952,0.712436 -2.192458,-0.09011 z m 21.23058,-0.724728 c -0.194205,-0.506092 1.077632,-2.417797 1.616035,-2.42907 0.186902,-0.0039 0.699821,-0.288712 1.139821,-0.632885 0.824281,-0.644763 2.856237,-0.805417 4.47832,-0.354072 0.896349,0.24941 1.305616,1.314072 0.505142,1.314072 -0.276902,0 -0.503462,0.120668 -0.503462,0.268151 0,0.147483 -0.54,0.288205 -1.2,0.312717 -1.978739,0.07349 -3.077943,0.418747 -3.883635,1.219848 -0.855485,0.850608 -1.886055,0.994853 -2.152221,0.301239 z M 24.868167,28.364498 c -0.171489,-0.514465 0.496916,-2.124498 0.88199,-2.124509 0.518442,-1.5e-5 2.099922,-2.14738 3.096209,-4.204096 0.635146,-1.311184 1.091795,-1.875894 1.516929,-1.875894 1.220105,0 1.319099,1.675617 0.196705,3.329555 -0.44,0.648377 -0.807064,1.352471 -0.815698,1.564655 -0.05052,1.241574 -4.547971,4.294781 -4.876135,3.310289 z m 36.310579,-4.213146 c -1.39808,-1.463707 -2.645961,-3.770586 -2.508809,-4.637872 0.339635,-2.147672 1.733693,-1.966539 2.549811,0.331303 0.348675,0.981717 1.131539,2.169661 2.006291,3.044412 1.223328,1.223327 1.384224,1.528443 1.092973,2.072652 -0.556867,1.040517 -1.639024,0.761215 -3.140266,-0.810495 z M 36.266877,23.908659 c -1.7016,-0.954153 -2.685616,-3.344531 -2.512035,-6.102249 0.136243,-2.164529 1.952579,-4.487063 4.307501,-5.507964 0.994848,-0.431285 1.252288,-0.423967 2.64,0.07505 0.845712,0.304113 1.537658,0.674318 1.537658,0.822677 0,0.148359 0.296304,0.670517 0.658454,1.160351 1.034602,1.399375 1.245434,3.712497 0.52896,5.803477 -0.331686,0.968 -0.842544,2.027323 -1.135238,2.354051 -1.395501,1.557755 -4.466656,2.268601 -6.0253,1.394609 z m 4.301101,-2.470004 c 0.857571,-0.522862 1.672023,-1.705408 1.672023,-2.427706 0,-0.08106 -0.439088,0.07968 -0.975754,0.357196 -0.919382,0.475432 -1.041725,0.463807 -2.117786,-0.201234 -0.679248,-0.419799 -1.379459,-1.236124 -1.727936,-2.014477 l -0.585907,-1.308661 -0.492288,1.178214 c -0.701763,1.679554 -0.112339,4.418012 0.950928,4.418012 0.257808,0 0.468743,0.144 0.468743,0.32 0,0.545422 1.706694,0.350108 2.807977,-0.321344 z m 8.911117,2.373483 c -2.026538,-0.729936 -3.39065,-2.765447 -3.397309,-5.06942 -0.0026,-0.837623 0.706832,-2.806113 1.198215,-3.325576 0.22,-0.232571 0.401782,-0.592571 0.403961,-0.8 0.0022,-0.207429 0.536538,-0.722368 1.187466,-1.144311 0.927773,-0.601395 1.566522,-0.755365 2.956042,-0.712545 2.787052,0.08589 3.280515,0.332119 4.248035,2.119713 1.352057,2.498072 1.36879,3.874734 0.07196,5.92 -1.70185,2.684023 -4.309331,3.861838 -6.668365,3.012139 z m 4.27961,-2.653101 c 1.502205,-1.213075 1.826358,-2.211162 1.280765,-3.943556 -0.509818,-1.618799 -1.1792,-2.499459 -1.889066,-2.485305 -0.443437,0.0088 -0.436928,0.06595 0.0496,0.435278 0.928253,0.704644 0.684624,1.962704 -0.626717,3.23626 -1.364195,1.324892 -2.6256,1.433837 -3.893031,0.336232 l -0.759747,-0.657947 0.240285,0.8 c 1.057626,3.521204 3.053466,4.333756 5.597914,2.279038 z M 30.197789,16.2517 C 29.962389,15.870814 29.701861,14.608218 29.176666,11.303032 29.031855,10.3917 28.575918,9.009955 28.163472,8.2324878 27.387986,6.7706818 27.442226,5.8925536 28.329024,5.5522573 c 0.278637,-0.1069229 0.817852,0.081277 1.207258,0.4213631 0.730445,0.6379309 3.351046,1.5406518 5.412493,1.8644454 1.367616,0.2148134 1.861626,0.7515907 1.089424,1.1837378 -0.292413,0.1636416 -0.448131,0.4326803 -0.346045,0.597863 0.245885,0.3978504 -2.457789,0.3888054 -3.511322,-0.011747 -0.451457,-0.1716438 -0.815724,-0.2796438 -0.809482,-0.24 0.641146,4.0719414 0.843553,5.8979494 0.697786,6.2950464 -0.350033,0.953551 -1.434934,1.294865 -1.871347,0.588734 z m 30.536372,-1.65053 c -0.0551,-0.374644 0.08086,-1.222296 0.302118,-1.883672 0.462,-1.380964 0.835834,-4.0774985 0.565287,-4.0774985 -0.100167,0 -0.713184,0.2218918 -1.36226,0.4930928 -1.519081,0.6347138 -3.898329,0.6950057 -4.269996,0.1082051 -0.406516,-0.6418205 -0.352061,-0.9212979 0.179507,-0.9212979 1.273728,0 7.531184,-2.6936347 7.531184,-3.2419329 0,-0.1147773 0.373773,-0.302497 0.830608,-0.4171552 0.946182,-0.2374765 1.890214,0.3438025 1.464163,0.9015456 -0.608752,0.7969154 -2.007469,5.204419 -2.184525,6.88365 -0.104029,0.986641 -0.252947,1.863449 -0.330931,1.948464 -0.07799,0.08501 -0.700509,0.319541 -1.383386,0.52117 -1.158304,0.342006 -1.248313,0.320904 -1.341769,-0.314571 z M 40.291025,9.5820919 c -0.6701,-0.414144 -0.136164,-1.4178965 0.939932,-1.7669916 1.143606,-0.3833705 1.397066,-0.4344069 2.491271,-0.5971046 0.802669,-0.2014576 6.427725,-0.2381053 8.117773,-0.052888 0.888969,0.097425 1.219792,0.9362863 0.643222,1.6310108 -0.288998,0.3482204 -1.080061,0.4094271 -3.626426,0.2805865 -2.090896,-0.1057949 -4.143715,-0.00567 -5.734284,0.2796909 -1.362621,0.244463 -2.636788,0.3460262 -2.831488,0.225696 z"
     id="path6927"
     inkscape:connector-curvature="0"
     sodipodi:nodetypes="cscsccssscccscccsscsccscscccscscccsscssssssssssccscccsssssssscsscssssscscssccssscccscsccssccsccsscscsccssssscccssscscsccssscsscssscccsscccccsssccccccsccccscccsccccssssssccsccsccscsssssccsccccscscc" />
</svg>
