<?xml version="1.0" encoding="UTF-8" standalone="no"?>
<!-- Created with Inkscape (http://www.inkscape.org/) -->

<svg
   version="1.1"
   id="svg2486"
   width="674.36322"
   height="444.42325"
   viewBox="0 0 674.36321 444.42324"
   style="background: black"
   sodipodi:docname="spider03.svg"
   inkscape:version="1.1.1 (3bf5ae0d25, 2021-09-20)"
   xmlns:inkscape="http://www.inkscape.org/namespaces/inkscape"
   xmlns:sodipodi="http://sodipodi.sourceforge.net/DTD/sodipodi-0.dtd"
   xmlns="http://www.w3.org/2000/svg"
   xmlns:svg="http://www.w3.org/2000/svg">
  <script
     href="animate.js"
     id="script3666" />
  <defs
     id="defs2490" />
  <sodipodi:namedview
     id="namedview2488"
     pagecolor="#000000"
     bordercolor="#666666"
     borderopacity="1.0"
     inkscape:pageshadow="2"
     inkscape:pageopacity="0"
     inkscape:pagecheckerboard="0"
     showgrid="false"
     inkscape:zoom="1.4142136"
     inkscape:cx="319.25871"
     inkscape:cy="249.60869"
     inkscape:window-width="1916"
     inkscape:window-height="1037"
     inkscape:window-x="0"
     inkscape:window-y="18"
     inkscape:window-maximized="1"
     inkscape:current-layer="layer1"
     objecttolerance="1"
     fit-margin-top="0"
     fit-margin-left="0"
     fit-margin-right="0"
     fit-margin-bottom="0" />
  <g
     inkscape:groupmode="layer"
     id="layer1"
     inkscape:label="web"
     transform="translate(164.30658,79.966164)"
     style="display:inline">
    <rect
       style="opacity:1;fill:#ffffff;fill-opacity:1;stroke:#000000;stroke-width:2;stroke-linecap:round;stroke-miterlimit:4;stroke-dasharray:none;stroke-opacity:1"
       id="rect22560"
       width="672.36322"
       height="442.42325"
       x="-163.30658"
       y="-78.966164" />
    <path
       style="fill:none;stroke:#000000;stroke-width:2;stroke-miterlimit:4;stroke-dasharray:none;stroke-opacity:1"
       d="m 53.431,-77.06461 0.18251,42.038172 -15.7182,7.251454 -47.454441,13.609866 -21.928691,2.144015 -26.368538,1.962684 -13.329275,-0.653729 -53.149065,-6.319422 -12.40878,-16.621884 -26.84475,-46.282826 m 217.571126,44.895071 c 0.0792,8.150797 3.227624,19.524018 2.863064,28.4574 -0.3351,8.242842 1.96861,21.100318 -4.57943,26.976593 -7.93158,7.118252 -35.018334,11.425199 -44.36594,12.670127 -6.434539,0.856049 -10.67341,1.032931 -17.549376,1.642785 -7.724626,0.685125 -11.766895,1.395355 -19.769105,1.554315 -18.756388,0.378407 -58.060178,1.820525 -74.864179,-8.61833 -11.81998,-7.343933 -17.14544,-31.3816617 -20.26463,-44.405706 M 55.977337,15.10761 c 0.47802,10.652574 -1.024777,25.970154 -2.223767,36.0946 -3.40427,28.77467 -42.903407,31.35117 -67.906359,32.48048 -6.462396,0.29004 -11.611592,-0.44995 -17.726693,-0.35661 -12.644855,0.19248 -40.395944,2.46802 -52.528203,-4.439 -12.122896,-6.901211 -18.103335,-38.950321 -21.131185,-52.338597 m -1.84213,344.057657 66.753773,-36.74618 c -1.928138,-21.7414 -4.169673,-51.21667 -6.285917,-74.65013 -0.877251,-9.71468 -3.722796,-18.45847 -4.96371,-28.31563 -0.667347,-5.30269 -0.487076,-10.09878 -1.320121,-15.36684 -1.045336,-6.61183 -2.944514,-12.47106 -4.245942,-19.53133 -4.244909,-23.02636 -9.327606,-46.94727 -15.493057,-69.40955 C -77.53131,109.8445 -83.559381,95.259595 -85.416787,78.301325 m 13.31063,50.227555 c 13.289656,-0.60358 29.100135,2.39069 44.458334,2.51275 23.634979,0.19092 48.388264,-6.12547 70.066313,-8.05039 1.52393,8.94063 5.83271,11.95389 14.67674,15.73282 13.89399,5.93895 32.7221,10.58426 49.48709,9.42468 23.35356,-1.61564 34.77629,-5.67121 54.48674,-11.0817 -9.13225,11.87876 -26.51727,39.11758 -37.0119,53.89104 -3.84038,5.40608 -8.23607,10.98528 -6.74734,18.29436 3.03391,14.88084 22.66976,30.27997 33.5374,38.967 6.49915,5.19465 12.63899,11.17677 20.94849,11.74419 19.8591,1.35597 33.67943,-13.15412 49.09234,-20.0821 -15.3362,-11.06231 -27.03873,-14.99693 -44.17778,-31.47354 -14.93876,-14.36248 -22.91533,-28.86305 -34.80702,-42.73706 m -203.797919,6.43372 c 16.059055,-0.14581 38.104095,3.14657 55.724047,1.58379 15.156489,-1.34429 25.661059,-6.05184 39.119542,-7.82949 2.99813,17.89673 23.29466,19.59592 39.51401,21.55941 8.33312,1.00838 15.718739,-0.92797 23.151979,-1.61159 7.602211,-0.6986 31.428151,-6.76463 36.919461,-7.69628 m -185.528288,37.23423 c 5.929759,-0.47727 40.357681,-1.20285 50.332452,-2.08755 8.981265,-0.79659 15.767472,-1.39848 24.140829,-2.14114 4.870357,11.49287 18.180037,12.34963 30.014197,14.20435 12.6584,1.98292 29.87569,2.91559 41.93058,-1.07343 11.52411,-3.81365 16.61424,-12.11453 23.9068,-20.46724 M -40.447676,333.9155 c 6.743569,-0.67864 14.508885,2.02194 19.390138,-4.70642 C -7.806746,310.9431 4.651881,275.99065 7.620548,254.37303 l -24.140829,2.14114 -30.297837,2.53043 m 22.089116,73.56388 c 8.021079,2.3783 16.403288,9.41773 24.106711,3.40559 13.077917,-10.20653 23.488682,-25.08268 36.447561,-37.93834 5.02361,-4.98347 9.36237,-7.59554 13.69752,-13.03422 14.41981,-18.09097 45.198502,-53.6437 60.08622,-71.9058 m -114.0607187,125.04798 24.4220847,27.19367 21.540394,-3.2127 21.86841,-2.82372 19.60771,-3.37419 15.37196,-1.25411 30.69527,-3.05694 32.77919,-4.49971 24.11574,-2.42404 C 170.22947,322.03892 163.72574,287.01289 171.96888,261.91627 M 9.1437966,352.39096 C 22.95713,345.14699 51.5472,325.84084 64.51993,322.32209 l 10.546257,35.09198 M 21.32049,370.97659 19.868965,365.52648 M 6.7460593,261.49268 35.2551,266.68572 48.309683,268.82497 62.0432,269.454 M 7.6243315,254.42179 C 10.497149,242.66243 15.190789,222.33155 21.529103,211.03016 m 0.09409,-0.0496 c 1.643346,-11.3141 5.390128,-34.13925 11.415048,-44.88417 m -0.333098,-0.37932 c 1.49023,-10.66125 4.400174,-32.02312 9.626894,-42.38314 m 6.774728,162.98961 c 9.14538,7.6557 20.200045,22.84133 31.888345,22.24328 13.87853,-0.71001 27.75533,-12.28871 38.1883,-18.32994 19.71729,-11.41674 38.9453,-22.83905 55.51795,-29.72904 M 42.164567,123.07674 c 0.58871,-12.93042 8.440577,-53.449309 10.553787,-66.154388 M 64.51993,322.32209 83.891779,308.66298 M 47.979263,85.664933 c 19.3212,5.19217 45.529847,20.272827 72.452127,19.117067 26.9201,-1.15557 48.76887,-15.37438 71.27489,-19.36353 -5.08362,12.98624 -16.99275,21.98576 -13.82384,36.61793 4.40348,20.32251 27.10648,42.74697 42.13953,55.95305 15.22039,13.37304 37.31926,29.06028 55.81282,33.00087 7.41508,1.58086 10.73635,-0.62487 17.41663,-3.13959 13.51866,-5.09212 29.82111,-10.89347 42.64263,-17.98533 -10.68089,-9.79852 -26.74382,-13.76666 -39.45523,-20.8966 C 277.38006,158.28089 264.15301,147.8057 249.79319,131.14231 230.85684,109.1646 221.81297,76.373244 209.31683,59.524635 202.717,68.183763 199.63294,74.261562 191.70628,85.41847 M 55.359536,35.27363 c 10.99994,1.97296 27.396984,13.791964 45.192324,19.935689 6.5712,2.266217 13.08148,3.845488 20.30573,4.496546 5.71034,0.515468 9.24153,0.177941 15.45265,-0.34419 9.5858,-0.803748 17.75782,-1.187907 26.25021,-3.297077 22.85842,-5.677182 33.63724,-14.353041 53.78312,-17.0711 -2.19927,9.644684 -3.60656,13.454676 -7.02674,20.531137 M 55.64534,-22.726767 c 15.24823,5.531293 25.78053,17.880311 47.06603,27.463803 11.93395,5.371789 27.35205,8.578697 40.62314,9.124777 33.22184,1.364601 72.52109,-21.94706 97.06241,-27.877468 -3.9407,19.812817 -13.13085,35.702638 -24.05335,53.009153 M 122.90589,287.7546 C 109.09132,275.94216 92.050973,259.78127 82.402113,245.58291 m 46.486797,105.53574 c -3.95426,-15.05756 -11.47712,-44.34488 -9.09319,-60.63659 m 41.07871,-153.66521 16.86972,-23.39432 m 8.11929,231.36496 c 13.67029,-1.21247 38.99365,0.70409 52.75649,-4.72712 -7.91679,-13.49836 -16.71534,-29.83105 -19.44689,-46.93896 -2.5398,-15.89373 -1.21804,-39.55268 1.75073,-52.91628 m 0.30273,-0.0763 c 18.01261,-11.63342 48.67362,-16.73678 56.89661,-28.49288 m -38.97007,128.65673 c 6.95725,0.25932 14.73725,2.63024 21.79952,2.17839 5.27639,-0.33747 9.5846,-1.01687 15.38264,-1.13385 8.99072,-0.18116 13.95282,-0.12187 24.30588,-0.28 24.46565,-0.37404 42.47784,5.67104 66.4347,0.88188 -16.10953,-19.8574 -33.87197,-47.9023 -37.16329,-76.33551 -3.19591,-27.63141 13.00453,-54.61058 12.56543,-76.32213 l -6.58387,0.58394 M 235.37018,4.126106 c 10.20329,15.087722 16.25776,45.297391 31.67578,65.762254 10.62434,14.09922 21.70154,25.64767 34.9237,36.7161 20.9586,17.54468 45.05403,30.8539 72.0305,39.06332 28.52214,8.67842 58.52688,28.28907 133.37309,-14.84486 M 240.71753,-14.195323 266.81293,-79.15734 m 35.83753,420.11653 c -10.57178,-14.27953 -25.43703,-41.29678 -29.21489,-61.49849 -3.78585,-20.24192 -0.47954,-54.42666 4.90281,-68.01008 m 64.21577,-21.95177 c 13.39838,-11.88553 36.72771,-14.87785 59.99004,-21.26329 11.9538,-3.28328 14.93807,-7.07101 23.02054,-10.36043 m -58.92811,183.85433 c 14.83857,0.563 44.36135,5.08235 63.03326,7.66709 5.75518,0.79639 12.38438,1.69643 17.90327,2.47241 6.258,0.87944 9.55214,0.33799 13.23383,-0.54731 -16.41946,-15.62025 -50.6595,-39.56458 -64.33848,-69.50125 -16.02037,-35.06365 -9.38545,-85.14706 9.1043,-114.44571 m 55.06017,183.91411 45.4289,11.50296"
       id="path16323"
       sodipodi:nodetypes="ccccccccccccccscccccccccccscccscccccccscccccccscccccscccccccccccccccccccccccccccccccccccccccccccccccccccccccccccccccsccccccccccccccccccccsccccccccscccccccccccccccccc" />
  </g>
  <g
     inkscape:groupmode="layer"
     inkscape:label="spider-layer"
     id="spider-translate"
     style="display:inline"
     sodipodi:insensitive="true"
     transform="translate(0.24258959,-0.24606636)">
    <g
       id="spider-rotate"
       transform="rotate(8.0403073,128.29552,-264.83472)"
       inkscape:transform-center-x="-21.92031">
      <g
         id="g3852"
         style="fill:#000000">
        <g
           id="leg1a"
           inkscape:transform-center-x="-55.06347"
           inkscape:transform-center-y="-22.366743"
           style="fill:#000000"
           transform="rotate(-15,180.16726,141.723)">
          <g
             id="leg1b"
             inkscape:transform-center-x="-41.876954"
             inkscape:transform-center-y="-7.2971954"
             transform="rotate(-2.0369099,215.83101,142.643)"
             style="fill:#000000">
            <g
               id="leg1c"
               inkscape:transform-center-x="-19.456238"
               inkscape:transform-center-y="-4.0845189"
               transform="rotate(-0.27565175,261.6683,138.47547)"
               style="fill:#000000">
              <path
                 id="path2860"
                 style="fill:#000000;stroke-width:1"
                 d="m 271.53906,139.97852 c 4.84182,-1.13833 15.9588,-4.10023 17.43946,-4.64649 0.44,-0.16232 2.09568,-0.75596 3.67968,-1.31836 1.584,-0.5624 3.48432,-1.2929 4.22266,-1.62305 0.73834,-0.33012 1.53814,-0.5996 1.77734,-0.5996 0.93421,0 3.35705,-1.86418 3.69922,-2.84571 0.4296,-1.23235 0.54949,-1.22584 -4.33594,-0.21679 -2.06955,0.42745 -6.49975,1.29834 -9.84375,1.93554 -16.55341,3.15423 -25.26364,5.03007 -27.5332,5.93164 -2.81483,2.86214 1.07235,6.09 10.89453,3.38282 z"
                 sodipodi:nodetypes="cssssssscc" />
            </g>
            <path
               id="path3974"
               style="fill:#000000;stroke-width:1"
               d="m 219.53906,146.08207 c 19.31093,-0.35331 28.68833,-1.4348 44.94604,-5.25703 2.37796,-1.84284 -0.11259,-5.50349 -3.84057,-4.2293 -2.76065,1.09665 -2.92938,1.13009 -2.37891,0.4668 0.22267,-0.26825 0.29921,-0.591 0.17188,-0.71875 -0.12732,-0.12774 -1.69461,-0.27944 -3.48438,-0.33594 -3.6784,-0.11621 -6.47466,0.4042 -13.55468,2.52149 -4.59081,1.37289 -5.02544,1.45728 -4.17578,0.8125 0.51661,-0.39203 0.47941,-0.44709 -0.43946,-0.63086 -2.34183,-0.46836 -5.06799,-0.21588 -7.09375,0.65625 -1.7362,0.74746 -2.52904,0.87458 -6.20117,0.99609 -3.61831,0.11974 -4.49513,0.0477 -6.24023,-0.51562 -3.57837,-0.65277 -7.17567,5.42318 2.29101,6.23437 z"
               sodipodi:nodetypes="cccsscssssscc" />
          </g>
          <path
             id="path4761"
             style="fill:#000000;stroke-width:1"
             d="m 182.09766,144.99223 3.67968,-1.09961 7.68164,0.82812 c 13.85402,1.49357 13.09764,1.29511 24.01841,1.09531 3.52018,-0.47854 3.53473,-5.80543 -2.29101,-6.23437 -2.33716,-0.75447 -6.43346,-1.18109 -16.91099,-1.86875 -8.67068,-0.56906 -11.89435,-0.60104 -15.50391,-0.14844 -1.46857,0.18377 -2.7355,0.27036 -2.8164,0.18946 -3.03154,0.57174 -5.62889,7.58397 2.14258,7.23828 z"
             sodipodi:nodetypes="ccsccsccc" />
        </g>
        <g
           id="leg3a"
           inkscape:transform-center-x="-43.743097"
           inkscape:transform-center-y="-45.614131"
           style="fill:#000000"
           transform="rotate(-3.2266752,174.81984,135.31365)">
          <g
             id="leg3b"
             inkscape:transform-center-x="-24.308307"
             inkscape:transform-center-y="-35.257421"
             style="fill:#000000"
             transform="rotate(1.6210083,215.8489,114.2765)">
            <g
               id="leg3c"
               inkscape:transform-center-x="-10.150063"
               inkscape:transform-center-y="-18.23515"
               style="fill:#000000"
               transform="rotate(-5.3910951,244.31134,80.9288)">
              <path
                 id="path5674"
                 style="fill:#000000;stroke-width:1"
                 d="m 251.82617,75.630899 c 12.82916,-17.29576 20.86817,-29.350589 20.08985,-30.128906 -0.42721,-0.427206 -7.61248,6.778814 -12.49219,12.529297 -2.76293,3.255959 -6.87549,8.360396 -16.6343,21.17836 -1.3041,7.228056 3.56731,5.154535 9.03664,-3.578751 z"
                 sodipodi:nodetypes="csscc" />
            </g>
            <path
               id="path6236"
               style="fill:#000000;stroke-width:1"
               d="m 219.3418,114.99027 c 0.89951,-0.91804 2.42848,-2.25174 3.39648,-2.96289 4.30545,-3.16306 11.43145,-11.58754 19.08399,-22.560543 10.0039,-13.835938 4.95314,-18.746358 -8.32227,1.84375 -8.02145,10.535993 -12.38958,15.294573 -17.62695,19.207033 -3.52384,3.22037 -2.74347,8.4554 3.46875,4.47265 z"
               sodipodi:nodetypes="cscccc" />
          </g>
          <path
             id="path7485"
             style="fill:#000000;stroke-width:1"
             d="m 178.93504,137.94411 c 0.66218,-0.74862 2.05215,-2.06446 3.28762,-2.7761 0.72303,-0.41647 2.79595,-1.35999 4.60546,-2.0957 1.80954,-0.73571 5.69816,-2.64201 8.64063,-4.23633 2.94248,-1.59433 5.99706,-3.18488 6.78906,-3.53516 0.792,-0.35028 1.80024,-0.88654 2.24024,-1.1914 0.44,-0.30487 2.95961,-1.67134 5.59961,-3.03711 5.65569,-2.92591 7.05215,-3.84485 9.24414,-6.08204 1.66982,-1.80629 -0.83018,-4.86255 -3.46875,-4.47265 -2.89651,2.16378 -5.58849,3.48894 -11.53516,5.67969 -11.87911,4.37625 -19.71349,8.01096 -30.35156,14.08007 -7.77393,4.03471 -1.54058,12.12664 4.94871,7.66673 z"
             sodipodi:nodetypes="cssssssccscc" />
        </g>
        <g
           id="leg5a"
           inkscape:transform-center-x="34.654213"
           inkscape:transform-center-y="-57.638184"
           transform="rotate(-4.953437,149.27215,141.58182)"
           style="fill:#000000">
          <g
             id="leg5b"
             inkscape:transform-center-x="31.837373"
             inkscape:transform-center-y="-27.956301"
             transform="rotate(-4.3649059,141.48112,84.345304)"
             style="fill:#000000">
            <g
               id="leg5c"
               inkscape:transform-center-x="17.355827"
               inkscape:transform-center-y="-9.5656309"
               transform="rotate(-2.7328005,117.53013,45.182658)"
               style="fill:#000000">
              <path
                 id="path8417"
                 style="fill:#000000;stroke-width:1"
                 d="m 86.330078,16.572266 c -0.200069,0.03763 -0.232422,0.251226 -0.232422,0.560546 0,0.602027 11.059176,11.704179 17.281254,17.34961 7.64079,6.932675 12.05903,11.198841 13.40039,12.9375 2.87661,0.972248 3.7108,-2.752671 0.39648,-5.21871 -3.45228,-3.478067 -7.49184,-7.60425 -8.97656,-9.167969 -3.43845,-3.621426 -5.76578,-5.564158 -11.88672,-9.925781 -7.27167,-5.181602 -9.382216,-6.648039 -9.982422,-6.535156 z"
                 sodipodi:nodetypes="sssccssss" />
            </g>
            <path
               id="path9003"
               style="fill:#000000;stroke-width:1"
               d="m 116.7793,47.419922 c 0.7419,0.961629 2.26876,3.477243 3.39258,5.589844 1.12381,2.112602 4.19401,7.274361 6.82226,11.470703 5.12393,8.181014 9.84947,16.326327 11.28906,19.457031 2.24005,4.444714 7.90885,2.925581 3.4668,-4.929648 -3.10289,-6.321751 -8.12924,-15.484107 -11.30273,-20.603515 -3.50493,-5.654079 -5.3674,-8.160483 -11.81004,-14.651254 -1.46145,-1.551871 -4.01622,1.226865 -1.85793,3.666839 z"
               sodipodi:nodetypes="cssccscc" />
          </g>
          <path
             id="path9304"
             style="fill:#000000;stroke-width:1"
             d="m 139.5332,90.990234 c 0.19854,2.816 0.48938,9.440706 0.64649,14.720706 0.29799,10.01513 0.58195,12.35135 2.39062,19.67968 0.41266,1.67201 0.93959,4.11946 1.16992,5.43946 -0.15483,23.80148 13.04209,12.53367 9.39454,7.35551 -0.99024,-1.95415 -1.40978,-4.00782 -2.875,-14.07422 -1.45778,-10.01539 -1.97216,-14.14699 -2.57422,-20.64063 -0.58333,-6.291718 -1.07621,-9.579016 -2.21875,-14.808591 -1.00777,-8.496485 -8.41008,-10.663002 -5.9336,2.328085 z"
             sodipodi:nodetypes="cssccsscc" />
        </g>
        <path
           id="path2571"
           style="fill:#000000;stroke-width:1"
           d="m 143.95312,141.5625 c -0.12301,0.12303 -0.85656,0.29356 -1.63085,0.38086 -14.70176,-1.40538 -4.22558,-0.47443 -27.74415,-4.01758 -0.73749,-0.23741 -2.14641,-0.0978 -5.85546,-0.41016 -10.33496,-0.87021 -15.467921,-0.3426 -25.023441,4.43555 -7.64873,3.82467 -11.720012,8.03866 -13.826172,14.31836 -0.77547,2.31226 -0.859747,3.02583 -0.873047,7.36133 -1e-4,0.0327 0.002,0.0399 0.002,0.0723 h 112.8437 c -0.72628,-6.42216 -1.2652,-8.73982 -1.42773,-14.63671 -1.16704,0.005 -2.22731,-1.07877 -2.09961,-2.14649 9.04131,-3.43921 4.08959,-8.50746 1.63672,-9.16601 2.17167,-4.26555 -4.27381,-8.0983 -7.37954,-6.44199 -3.44913,1.96775 -4.29188,2.00435 -5.63023,2.31308 -2.16174,0.49868 -3.24954,1.08435 -5.54883,2.98438 -1.28101,1.0586 -1.68971,1.23209 -2.53125,1.07421 -0.98627,-0.18502 -2.4256,0.38353 -4.1875,1.6543 -2.98635,-2.34344 -9.04464,-3.00654 -10.72461,2.22457 z"
           sodipodi:nodetypes="cccsscscccccccsssc" />
        <g
           id="leg7a"
           inkscape:transform-center-x="59.202863"
           inkscape:transform-center-y="-19.267682"
           transform="rotate(-8.4125966,140.76218,145.19544)"
           style="fill:#000000">
          <g
             id="leg7b"
             inkscape:transform-center-x="32.262972"
             inkscape:transform-center-y="-22.64146"
             style="fill:#000000"
             transform="rotate(6.880544,98.346206,130.16218)">
            <g
               id="leg7c"
               inkscape:transform-center-x="16.788195"
               inkscape:transform-center-y="-13.34946"
               transform="rotate(11.466922,63.886224,113.07719)"
               style="fill:#000000">
              <path
                 id="path9820"
                 style="fill:#000000;stroke-width:1"
                 d="M 64.349702,109.56203 C 56.376855,106.88101 57.593687,107.56835 44.498047,101 c -6.952,-3.486892 -13.576703,-6.853913 -14.720703,-7.482422 -2.63914,-1.449936 -5.079931,-2.430037 -5.462891,-2.193359 -0.65114,0.402429 -0.184512,1.039079 2.298828,3.138672 1.70714,1.443331 3.974382,2.90533 6.638672,4.28125 2.22553,1.149334 5.280513,2.778129 6.789063,3.619139 1.50854,0.84101 7.844628,4.12268 14.080078,7.29297 14.153658,7.94517 14.463957,2.11345 10.228608,-0.0942 z"
                 sodipodi:nodetypes="csssssscc" />
            </g>
            <path
               id="path12181"
               style="fill:#000000;stroke-width:1"
               d="m 102.47461,123.4707 c -1.3456,0 -4.037959,-1.04674 -16.986329,-6.60742 -8.18197,-3.51374 -9.931634,-4.13537 -16.990234,-6.0293 -7.679313,-3.18287 -13.394579,1.12125 4.640625,7.62696 8.73178,3.45576 14.024314,5.86016 13.777344,6.25976 -0.09272,0.15003 1.937195,0.79936 4.509765,1.44336 4.67604,1.17056 4.677726,1.1716 6.072266,2.72266 5.946623,2.02173 9.208383,-3.10442 4.976563,-5.41602 z"
               sodipodi:nodetypes="csccsscc" />
          </g>
          <path
             id="path12670"
             style="fill:#000000;stroke-width:1"
             d="m 143.11011,143.639 c 0,0 -0.9945,-1.68318 -1.76879,-1.59588 -1.59147,-0.47044 -1.83904,-0.3423 -9.80226,-5.27359 -3.608,-2.23427 -8.4327,-4.9763 -10.7207,-6.09375 -8.04658,-3.92991 -16.38536,-7.20508 -18.34375,-7.20508 -2.19383,-0.67218 -6.016783,2.01389 -4.976563,5.41602 1.1166,1.24194 2.017904,1.81962 4.517573,2.89648 4.96666,2.13964 12.5625,5.85373 12.5625,6.14258 29.2418,16.15756 29.77806,8.86867 28.53199,5.71322 z"
             sodipodi:nodetypes="ccssccscc" />
        </g>
        <g
           id="m1a"
           inkscape:transform-center-x="-11.781382"
           inkscape:transform-center-y="-1.2212816"
           transform="rotate(-5.4746575,179.16303,152.0992)"
           style="fill:#000000">
          <path
             id="path14528"
             style="fill:#000000;stroke-width:1"
             d="m 180.81836,154.46098 c 0,-0.46482 2.43651,-0.75061 5.94922,-0.69532 3.93378,0.0619 7.30327,0.73807 11.5918,2.32227 4.11272,1.51925 6.45652,1.23836 5.96679,-0.71289 -0.30767,-1.22583 -3.08758,-4.14133 -4.87695,-5.11523 -2.00786,-1.09281 -8.56634,-2.46875 -11.76563,-2.46875 -1.42855,0 -3.11236,0.24448 -4.35742,0.63476 -1.11568,0.34973 -2.4242,0.63863 -2.9082,0.64063 -4.72797,0.44753 -3.74758,6.22628 0.40039,5.39453 z"
             sodipodi:nodetypes="csssssscc" />
        </g>
        <g
           id="m1b"
           inkscape:transform-center-x="-5.3222459"
           inkscape:transform-center-y="0.37206247"
           transform="rotate(-8.8975778,178.24317,156.97991)"
           style="fill:#000000">
          <path
             id="path14726"
             style="fill:#000000;stroke-width:1"
             d="m 186.50977,161.87113 c 4.9465,0.96039 4.98534,0.94676 3.05078,-1.04101 -1.31526,-1.35147 -1.58305,-1.80547 -1.3711,-2.32031 0.1449,-0.352 0.27471,-0.79041 0.28711,-0.97461 0.0124,-0.18421 -1.70636,-0.8964 -3.81836,-1.58399 -2.112,-0.6876 -3.83984,-1.358 -3.83984,-1.49023 -6.96154,-0.12996 -8.36887,5.66572 5.69141,7.41015 z"
             sodipodi:nodetypes="csssscc" />
        </g>
      </g>
      <g
         id="g15251"
         style="fill:#000000"
         transform="matrix(1,0,0,-1,0,326.12268)">
        <g
           id="leg2a"
           inkscape:transform-center-x="-55.06347"
           inkscape:transform-center-y="-22.366743"
           style="fill:#000000"
           transform="rotate(-15,180.16726,141.723)">
          <g
             id="leg2b"
             inkscape:transform-center-x="-41.876954"
             inkscape:transform-center-y="-7.2971954"
             transform="rotate(-2.0369099,215.83101,142.643)"
             style="fill:#000000">
            <g
               id="leg2c"
               inkscape:transform-center-x="-19.456238"
               inkscape:transform-center-y="-4.0845189"
               transform="rotate(-0.27565175,261.6683,138.47547)"
               style="fill:#000000">
              <path
                 id="path15193"
                 style="fill:#000000;stroke-width:1"
                 d="m 271.53906,139.97852 c 4.84182,-1.13833 15.9588,-4.10023 17.43946,-4.64649 0.44,-0.16232 2.09568,-0.75596 3.67968,-1.31836 1.584,-0.5624 3.48432,-1.2929 4.22266,-1.62305 0.73834,-0.33012 1.53814,-0.5996 1.77734,-0.5996 0.93421,0 3.35705,-1.86418 3.69922,-2.84571 0.4296,-1.23235 0.54949,-1.22584 -4.33594,-0.21679 -2.06955,0.42745 -6.49975,1.29834 -9.84375,1.93554 -16.55341,3.15423 -25.26364,5.03007 -27.5332,5.93164 -2.81483,2.86214 1.07235,6.09 10.89453,3.38282 z"
                 sodipodi:nodetypes="cssssssscc" />
            </g>
            <path
               id="path15197"
               style="fill:#000000;stroke-width:1"
               d="m 219.53906,146.08207 c 19.31093,-0.35331 28.68833,-1.4348 44.94604,-5.25703 2.37796,-1.84284 -0.11259,-5.50349 -3.84057,-4.2293 -2.76065,1.09665 -2.92938,1.13009 -2.37891,0.4668 0.22267,-0.26825 0.29921,-0.591 0.17188,-0.71875 -0.12732,-0.12774 -1.69461,-0.27944 -3.48438,-0.33594 -3.6784,-0.11621 -6.47466,0.4042 -13.55468,2.52149 -4.59081,1.37289 -5.02544,1.45728 -4.17578,0.8125 0.51661,-0.39203 0.47941,-0.44709 -0.43946,-0.63086 -2.34183,-0.46836 -5.06799,-0.21588 -7.09375,0.65625 -1.7362,0.74746 -2.52904,0.87458 -6.20117,0.99609 -3.61831,0.11974 -4.49513,0.0477 -6.24023,-0.51562 -3.57837,-0.65277 -7.17567,5.42318 2.29101,6.23437 z"
               sodipodi:nodetypes="cccsscssssscc" />
          </g>
          <path
             id="path15201"
             style="fill:#000000;stroke-width:1"
             d="m 182.09766,144.99223 3.67968,-1.09961 7.68164,0.82812 c 13.85402,1.49357 13.09764,1.29511 24.01841,1.09531 3.52018,-0.47854 3.53473,-5.80543 -2.29101,-6.23437 -2.33716,-0.75447 -6.43346,-1.18109 -16.91099,-1.86875 -8.67068,-0.56906 -11.89435,-0.60104 -15.50391,-0.14844 -1.46857,0.18377 -2.7355,0.27036 -2.8164,0.18946 -3.03154,0.57174 -5.62889,7.58397 2.14258,7.23828 z"
             sodipodi:nodetypes="ccsccsccc" />
        </g>
        <g
           id="leg4a"
           inkscape:transform-center-x="-43.743097"
           inkscape:transform-center-y="-45.614131"
           style="fill:#000000"
           transform="rotate(-3.2266752,174.81984,135.31365)">
          <g
             id="leg4b"
             inkscape:transform-center-x="-24.308307"
             inkscape:transform-center-y="-35.257421"
             style="fill:#000000"
             transform="rotate(1.6210083,215.8489,114.2765)">
            <g
               id="leg4c"
               inkscape:transform-center-x="-10.150063"
               inkscape:transform-center-y="-18.23515"
               style="fill:#000000"
               transform="rotate(-5.3910951,244.31134,80.9288)">
              <path
                 id="path15205"
                 style="fill:#000000;stroke-width:1"
                 d="m 251.82617,75.630899 c 12.82916,-17.29576 20.86817,-29.350589 20.08985,-30.128906 -0.42721,-0.427206 -7.61248,6.778814 -12.49219,12.529297 -2.76293,3.255959 -6.87549,8.360396 -16.6343,21.17836 -1.3041,7.228056 3.56731,5.154535 9.03664,-3.578751 z"
                 sodipodi:nodetypes="csscc" />
            </g>
            <path
               id="path15209"
               style="fill:#000000;stroke-width:1"
               d="m 219.3418,114.99027 c 0.89951,-0.91804 2.42848,-2.25174 3.39648,-2.96289 4.30545,-3.16306 11.43145,-11.58754 19.08399,-22.560543 10.0039,-13.835938 4.95314,-18.746358 -8.32227,1.84375 -8.02145,10.535993 -12.38958,15.294573 -17.62695,19.207033 -3.52384,3.22037 -2.74347,8.4554 3.46875,4.47265 z"
               sodipodi:nodetypes="cscccc" />
          </g>
          <path
             id="path15213"
             style="fill:#000000;stroke-width:1"
             d="m 178.93504,137.94411 c 0.66218,-0.74862 2.05215,-2.06446 3.28762,-2.7761 0.72303,-0.41647 2.79595,-1.35999 4.60546,-2.0957 1.80954,-0.73571 5.69816,-2.64201 8.64063,-4.23633 2.94248,-1.59433 5.99706,-3.18488 6.78906,-3.53516 0.792,-0.35028 1.80024,-0.88654 2.24024,-1.1914 0.44,-0.30487 2.95961,-1.67134 5.59961,-3.03711 5.65569,-2.92591 7.05215,-3.84485 9.24414,-6.08204 1.66982,-1.80629 -0.83018,-4.86255 -3.46875,-4.47265 -2.89651,2.16378 -5.58849,3.48894 -11.53516,5.67969 -11.87911,4.37625 -19.71349,8.01096 -30.35156,14.08007 -7.77393,4.03471 -1.54058,12.12664 4.94871,7.66673 z"
             sodipodi:nodetypes="cssssssccscc" />
        </g>
        <g
           id="leg6a"
           inkscape:transform-center-x="34.654213"
           inkscape:transform-center-y="-57.638184"
           transform="rotate(-4.953437,149.27215,141.58182)"
           style="fill:#000000">
          <g
             id="leg6b"
             inkscape:transform-center-x="31.837373"
             inkscape:transform-center-y="-27.956301"
             transform="rotate(-4.3649059,141.48112,84.345304)"
             style="fill:#000000">
            <g
               id="leg6c"
               inkscape:transform-center-x="17.355827"
               inkscape:transform-center-y="-9.5656309"
               transform="rotate(-2.7328005,117.53013,45.182658)"
               style="fill:#000000">
              <path
                 id="path15217"
                 style="fill:#000000;stroke-width:1"
                 d="m 86.330078,16.572266 c -0.200069,0.03763 -0.232422,0.251226 -0.232422,0.560546 0,0.602027 11.059176,11.704179 17.281254,17.34961 7.64079,6.932675 12.05903,11.198841 13.40039,12.9375 2.87661,0.972248 3.7108,-2.752671 0.39648,-5.21871 -3.45228,-3.478067 -7.49184,-7.60425 -8.97656,-9.167969 -3.43845,-3.621426 -5.76578,-5.564158 -11.88672,-9.925781 -7.27167,-5.181602 -9.382216,-6.648039 -9.982422,-6.535156 z"
                 sodipodi:nodetypes="sssccssss" />
            </g>
            <path
               id="path15221"
               style="fill:#000000;stroke-width:1"
               d="m 116.7793,47.419922 c 0.7419,0.961629 2.26876,3.477243 3.39258,5.589844 1.12381,2.112602 4.19401,7.274361 6.82226,11.470703 5.12393,8.181014 9.84947,16.326327 11.28906,19.457031 2.24005,4.444714 7.90885,2.925581 3.4668,-4.929648 -3.10289,-6.321751 -8.12924,-15.484107 -11.30273,-20.603515 -3.50493,-5.654079 -5.3674,-8.160483 -11.81004,-14.651254 -1.46145,-1.551871 -4.01622,1.226865 -1.85793,3.666839 z"
               sodipodi:nodetypes="cssccscc" />
          </g>
          <path
             id="path15225"
             style="fill:#000000;stroke-width:1"
             d="m 139.5332,90.990234 c 0.19854,2.816 0.48938,9.440706 0.64649,14.720706 0.29799,10.01513 0.58195,12.35135 2.39062,19.67968 0.41266,1.67201 0.93959,4.11946 1.16992,5.43946 -0.15483,23.80148 13.04209,12.53367 9.39454,7.35551 -0.99024,-1.95415 -1.40978,-4.00782 -2.875,-14.07422 -1.45778,-10.01539 -1.97216,-14.14699 -2.57422,-20.64063 -0.58333,-6.291718 -1.07621,-9.579016 -2.21875,-14.808591 -1.00777,-8.496485 -8.41008,-10.663002 -5.9336,2.328085 z"
             sodipodi:nodetypes="cssccsscc" />
        </g>
        <path
           id="path15229"
           style="fill:#000000;stroke-width:1"
           d="m 143.95312,141.5625 c -0.12301,0.12303 -0.85656,0.29356 -1.63085,0.38086 -14.70176,-1.40538 -4.22558,-0.47443 -27.74415,-4.01758 -0.73749,-0.23741 -2.14641,-0.0978 -5.85546,-0.41016 -10.33496,-0.87021 -15.467921,-0.3426 -25.023441,4.43555 -7.64873,3.82467 -11.720012,8.03866 -13.826172,14.31836 -0.77547,2.31226 -0.859747,3.02583 -0.873047,7.36133 -1e-4,0.0327 0.002,0.0399 0.002,0.0723 h 112.8437 c -0.72628,-6.42216 -1.2652,-8.73982 -1.42773,-14.63671 -1.16704,0.005 -2.22731,-1.07877 -2.09961,-2.14649 9.04131,-3.43921 4.08959,-8.50746 1.63672,-9.16601 2.17167,-4.26555 -4.27381,-8.0983 -7.37954,-6.44199 -3.44913,1.96775 -4.29188,2.00435 -5.63023,2.31308 -2.16174,0.49868 -3.24954,1.08435 -5.54883,2.98438 -1.28101,1.0586 -1.68971,1.23209 -2.53125,1.07421 -0.98627,-0.18502 -2.4256,0.38353 -4.1875,1.6543 -2.98635,-2.34344 -9.04464,-3.00654 -10.72461,2.22457 z"
           sodipodi:nodetypes="cccsscscccccccsssc" />
        <g
           id="leg8a"
           inkscape:transform-center-x="59.202863"
           inkscape:transform-center-y="-19.267682"
           transform="rotate(-8.4125966,140.76218,145.19544)"
           style="fill:#000000">
          <g
             id="leg8b"
             inkscape:transform-center-x="32.262972"
             inkscape:transform-center-y="-22.64146"
             style="fill:#000000"
             transform="rotate(6.880544,98.346206,130.16218)">
            <g
               id="leg8c"
               inkscape:transform-center-x="16.788195"
               inkscape:transform-center-y="-13.34946"
               transform="rotate(11.466922,63.886224,113.07719)"
               style="fill:#000000">
              <path
                 id="path15231"
                 style="fill:#000000;stroke-width:1"
                 d="M 64.349702,109.56203 C 56.376855,106.88101 57.593687,107.56835 44.498047,101 c -6.952,-3.486892 -13.576703,-6.853913 -14.720703,-7.482422 -2.63914,-1.449936 -5.079931,-2.430037 -5.462891,-2.193359 -0.65114,0.402429 -0.184512,1.039079 2.298828,3.138672 1.70714,1.443331 3.974382,2.90533 6.638672,4.28125 2.22553,1.149334 5.280513,2.778129 6.789063,3.619139 1.50854,0.84101 7.844628,4.12268 14.080078,7.29297 14.153658,7.94517 14.463957,2.11345 10.228608,-0.0942 z"
                 sodipodi:nodetypes="csssssscc" />
            </g>
            <path
               id="path15235"
               style="fill:#000000;stroke-width:1"
               d="m 102.47461,123.4707 c -1.3456,0 -4.037959,-1.04674 -16.986329,-6.60742 -8.18197,-3.51374 -9.931634,-4.13537 -16.990234,-6.0293 -7.679313,-3.18287 -13.394579,1.12125 4.640625,7.62696 8.73178,3.45576 14.024314,5.86016 13.777344,6.25976 -0.09272,0.15003 1.937195,0.79936 4.509765,1.44336 4.67604,1.17056 4.677726,1.1716 6.072266,2.72266 5.946623,2.02173 9.208383,-3.10442 4.976563,-5.41602 z"
               sodipodi:nodetypes="csccsscc" />
          </g>
          <path
             id="path15239"
             style="fill:#000000;stroke-width:1"
             d="m 143.11011,143.639 c 0,0 -0.9945,-1.68318 -1.76879,-1.59588 -1.59147,-0.47044 -1.83904,-0.3423 -9.80226,-5.27359 -3.608,-2.23427 -8.4327,-4.9763 -10.7207,-6.09375 -8.04658,-3.92991 -16.38536,-7.20508 -18.34375,-7.20508 -2.19383,-0.67218 -6.016783,2.01389 -4.976563,5.41602 1.1166,1.24194 2.017904,1.81962 4.517573,2.89648 4.96666,2.13964 12.5625,5.85373 12.5625,6.14258 29.2418,16.15756 29.77806,8.86867 28.53199,5.71322 z"
             sodipodi:nodetypes="ccssccscc" />
        </g>
        <g
           id="m2a"
           inkscape:transform-center-x="-11.781382"
           inkscape:transform-center-y="-1.2212816"
           transform="rotate(-5.4746575,179.16303,152.0992)"
           style="fill:#000000">
          <path
             id="path15243"
             style="fill:#000000;stroke-width:1"
             d="m 180.81836,154.46098 c 0,-0.46482 2.43651,-0.75061 5.94922,-0.69532 3.93378,0.0619 7.30327,0.73807 11.5918,2.32227 4.11272,1.51925 6.45652,1.23836 5.96679,-0.71289 -0.30767,-1.22583 -3.08758,-4.14133 -4.87695,-5.11523 -2.00786,-1.09281 -8.56634,-2.46875 -11.76563,-2.46875 -1.42855,0 -3.11236,0.24448 -4.35742,0.63476 -1.11568,0.34973 -2.4242,0.63863 -2.9082,0.64063 -4.72797,0.44753 -3.74758,6.22628 0.40039,5.39453 z"
             sodipodi:nodetypes="csssssscc" />
        </g>
        <g
           id="m2b"
           inkscape:transform-center-x="-5.3222459"
           inkscape:transform-center-y="0.37206247"
           transform="rotate(-8.8975778,178.24317,156.97991)"
           style="fill:#000000">
          <path
             id="path15247"
             style="fill:#000000;stroke-width:1"
             d="m 186.50977,161.87113 c 4.9465,0.96039 4.98534,0.94676 3.05078,-1.04101 -1.31526,-1.35147 -1.58305,-1.80547 -1.3711,-2.32031 0.1449,-0.352 0.27471,-0.79041 0.28711,-0.97461 0.0124,-0.18421 -1.70636,-0.8964 -3.81836,-1.58399 -2.112,-0.6876 -3.83984,-1.358 -3.83984,-1.49023 -6.96154,-0.12996 -8.36887,5.66572 5.69141,7.41015 z"
             sodipodi:nodetypes="csssscc" />
        </g>
      </g>
    </g>
  </g>
</svg>
